NotoSansEthiopic-Bold.ufo
<glyph name="dieresiscomb" format="2">
  <unicode hex="0308"/>
  <anchor x="0" y="552" name="_top"/>
  <anchor x="0" y="767" name="top"/>
  <outline>
    <contour>
      <point x="-201" y="690" type="curve"/>
      <point x="-201" y="638"/>
      <point x="-165" y="614"/>
      <point x="-118" y="614" type="curve" smooth="yes"/>
      <point x="-73" y="614"/>
      <point x="-34" y="638"/>
      <point x="-34" y="690" type="curve" smooth="yes"/>
      <point x="-34" y="743"/>
      <point x="-73" y="767"/>
      <point x="-118" y="767" type="curve" smooth="yes"/>
      <point x="-165" y="767"/>
      <point x="-201" y="743"/>
    </contour>
    <contour>
      <point x="33" y="690" type="curve"/>
      <point x="33" y="638"/>
      <point x="69" y="614"/>
      <point x="117" y="614" type="curve" smooth="yes"/>
      <point x="162" y="614"/>
      <point x="201" y="638"/>
      <point x="201" y="690" type="curve" smooth="yes"/>
      <point x="201" y="743"/>
      <point x="162" y="767"/>
      <point x="117" y="767" type="curve" smooth="yes"/>
      <point x="69" y="767"/>
      <point x="33" y="743"/>
    </contour>
  </outline>
</glyph>
<glyph name="dblverticallineabovecomb" format="2">
  <unicode hex="030E"/>
  <anchor x="0" y="552" name="_top"/>
  <anchor x="0" y="776" name="top"/>
  <outline>
    <contour>
      <point x="-32" y="776" type="line"/>
      <point x="-145" y="776" type="line"/>
      <point x="-145" y="596" type="line"/>
      <point x="-32" y="596" type="line"/>
    </contour>
    <contour>
      <point x="145" y="776" type="line"/>
      <point x="32" y="776" type="line"/>
      <point x="32" y="596" type="line"/>
      <point x="145" y="596" type="line"/>
    </contour>
  </outline>
</glyph>
<glyph name="ha.eth" format="2">
  <advance width="668"/>
  <unicode hex="1200"/>
  <note>
uni1200
</note>
  <anchor x="334" y="714" name="top"/>
  <outline>
    <contour>
      <point x="331" y="-10" type="curve" smooth="yes"/>
      <point x="505" y="-10"/>
      <point x="593" y="86"/>
      <point x="593" y="231" type="curve" smooth="yes"/>
      <point x="593" y="714" type="line"/>
      <point x="413" y="714" type="line"/>
      <point x="413" y="251" type="line" smooth="yes"/>
      <point x="413" y="178"/>
      <point x="388" y="147"/>
      <point x="332" y="147" type="curve" smooth="yes"/>
      <point x="280" y="147"/>
      <point x="255" y="177"/>
      <point x="255" y="250" type="curve" smooth="yes"/>
      <point x="255" y="714" type="line"/>
      <point x="75" y="714" type="line"/>
      <point x="75" y="233" type="line" smooth="yes"/>
      <point x="75" y="77"/>
      <point x="163" y="-10"/>
    </contour>
  </outline>
</glyph>
<glyph name="hi.eth" format="2">
  <advance width="607"/>
  <unicode hex="1202"/>
  <note>
uni1202
</note>
  <anchor x="324" y="714" name="top"/>
  <outline>
    <contour>
      <point x="150" y="0" type="line"/>
      <point x="295" y="0" type="line"/>
      <point x="584" y="714" type="line"/>
      <point x="404" y="714" type="line"/>
      <point x="297" y="442" type="line"/>
      <point x="255" y="447"/>
      <point x="226" y="473"/>
      <point x="226" y="523" type="curve" smooth="yes"/>
      <point x="226" y="714" type="line"/>
      <point x="46" y="714" type="line"/>
      <point x="46" y="528" type="line" smooth="yes"/>
      <point x="46" y="393"/>
      <point x="124" y="330"/>
      <point x="244" y="318" type="curve"/>
      <point x="150" y="91" type="line"/>
    </contour>
    <contour>
      <point x="233" y="0" type="line"/>
      <point x="413" y="0" type="line"/>
      <point x="413" y="120" type="line"/>
      <point x="233" y="120" type="line"/>
    </contour>
    <component base="rightdoubleflag" xOffset="341"/>
  </outline>
</glyph>
<glyph name="haa.eth" format="2">
  <advance width="604"/>
  <unicode hex="1203"/>
  <note>
uni1203
</note>
  <anchor x="315" y="714" name="top"/>
  <outline>
    <contour>
      <point x="113" y="0" type="line"/>
      <point x="297" y="0" type="line"/>
      <point x="584" y="714" type="line"/>
      <point x="404" y="714" type="line"/>
      <point x="297" y="442" type="line"/>
      <point x="255" y="447"/>
      <point x="226" y="473"/>
      <point x="226" y="523" type="curve" smooth="yes"/>
      <point x="226" y="714" type="line"/>
      <point x="46" y="714" type="line"/>
      <point x="46" y="528" type="line" smooth="yes"/>
      <point x="46" y="393"/>
      <point x="124" y="330"/>
      <point x="244" y="318" type="curve"/>
    </contour>
  </outline>
</glyph>
<glyph name="hee.eth" format="2">
  <advance width="651"/>
  <unicode hex="1204"/>
  <note>
uni1204
</note>
  <anchor x="344" y="714" name="top"/>
  <outline>
    <contour>
      <point x="155" y="0" type="line"/>
      <point x="297" y="0" type="line"/>
      <point x="584" y="714" type="line"/>
      <point x="404" y="714" type="line"/>
      <point x="297" y="442" type="line"/>
      <point x="255" y="447"/>
      <point x="226" y="473"/>
      <point x="226" y="523" type="curve" smooth="yes"/>
      <point x="226" y="714" type="line"/>
      <point x="46" y="714" type="line"/>
      <point x="46" y="528" type="line" smooth="yes"/>
      <point x="46" y="393"/>
      <point x="124" y="330"/>
      <point x="244" y="318" type="curve"/>
      <point x="155" y="101" type="line"/>
    </contour>
    <contour>
      <point x="294" y="118" type="line"/>
      <point x="342" y="226" type="line"/>
      <point x="401" y="226" type="line" smooth="yes"/>
      <point x="447" y="226"/>
      <point x="466" y="206"/>
      <point x="466" y="177" type="curve" smooth="yes"/>
      <point x="466" y="138"/>
      <point x="438" y="118"/>
      <point x="377" y="118" type="curve" smooth="yes"/>
    </contour>
    <contour>
      <point x="172" y="0" type="line"/>
      <point x="375" y="0" type="line" smooth="yes"/>
      <point x="562" y="0"/>
      <point x="643" y="73"/>
      <point x="643" y="177" type="curve" smooth="yes"/>
      <point x="643" y="287"/>
      <point x="574" y="342"/>
      <point x="416" y="342" type="curve" smooth="yes"/>
      <point x="293" y="342" type="line"/>
    </contour>
  </outline>
</glyph>
<glyph name="he.eth" format="2">
  <advance width="769"/>
  <unicode hex="1205"/>
  <note>
uni1205
</note>
  <anchor x="374" y="714" name="top"/>
  <outline>
    <contour>
      <point x="432" y="-10" type="curve" smooth="yes"/>
      <point x="606" y="-10"/>
      <point x="694" y="86"/>
      <point x="694" y="231" type="curve" smooth="yes"/>
      <point x="694" y="714" type="line"/>
      <point x="514" y="714" type="line"/>
      <point x="514" y="251" type="line" smooth="yes"/>
      <point x="514" y="178"/>
      <point x="489" y="147"/>
      <point x="433" y="147" type="curve" smooth="yes"/>
      <point x="381" y="147"/>
      <point x="356" y="177"/>
      <point x="356" y="250" type="curve" smooth="yes"/>
      <point x="356" y="555" type="line"/>
      <point x="176" y="555" type="line"/>
      <point x="176" y="233" type="line" smooth="yes"/>
      <point x="176" y="77"/>
      <point x="264" y="-10"/>
    </contour>
    <contour>
      <point x="178" y="424" type="curve"/>
      <point x="356" y="555" type="line"/>
      <point x="312" y="555" type="line" smooth="yes"/>
      <point x="258" y="555"/>
      <point x="233" y="571"/>
      <point x="233" y="637" type="curve" smooth="yes"/>
      <point x="233" y="714" type="line"/>
      <point x="55" y="714" type="line"/>
      <point x="55" y="614" type="line" smooth="yes"/>
      <point x="55" y="507"/>
      <point x="101" y="437"/>
    </contour>
  </outline>
</glyph>
<glyph name="ho.eth" format="2">
  <advance width="882"/>
  <unicode hex="1206"/>
  <note>
uni1206
</note>
  <anchor x="474" y="724" name="top"/>
  <outline>
    <contour>
      <point x="331" y="-10" type="curve" smooth="yes"/>
      <point x="505" y="-10"/>
      <point x="593" y="86"/>
      <point x="593" y="231" type="curve" smooth="yes"/>
      <point x="593" y="682" type="line"/>
      <point x="413" y="682" type="line"/>
      <point x="413" y="251" type="line" smooth="yes"/>
      <point x="413" y="178"/>
      <point x="388" y="147"/>
      <point x="332" y="147" type="curve" smooth="yes"/>
      <point x="280" y="147"/>
      <point x="255" y="177"/>
      <point x="255" y="250" type="curve" smooth="yes"/>
      <point x="255" y="714" type="line"/>
      <point x="75" y="714" type="line"/>
      <point x="75" y="233" type="line" smooth="yes"/>
      <point x="75" y="77"/>
      <point x="163" y="-10"/>
    </contour>
    <contour>
      <point x="533" y="380" type="line"/>
      <point x="630" y="380" type="line" smooth="yes"/>
      <point x="805" y="380"/>
      <point x="874" y="448"/>
      <point x="874" y="558" type="curve" smooth="yes"/>
      <point x="874" y="663"/>
      <point x="811" y="724"/>
      <point x="662" y="724" type="curve" smooth="yes"/>
      <point x="558" y="724"/>
      <point x="470" y="701"/>
      <point x="413" y="682" type="curve"/>
    </contour>
    <contour>
      <point x="593" y="496" type="line"/>
      <point x="593" y="598" type="line"/>
      <point x="605" y="601"/>
      <point x="625" y="604"/>
      <point x="643" y="604" type="curve" smooth="yes"/>
      <point x="680" y="604"/>
      <point x="702" y="588"/>
      <point x="702" y="555" type="curve" smooth="yes"/>
      <point x="702" y="513"/>
      <point x="673" y="496"/>
      <point x="610" y="496" type="curve" smooth="yes"/>
    </contour>
  </outline>
</glyph>
<glyph name="la.eth" format="2">
  <advance width="675"/>
  <unicode hex="1208"/>
  <note>
uni1208
</note>
  <anchor x="345" y="714" name="top"/>
  <outline>
    <contour>
      <point x="36" y="0" type="curve"/>
      <point x="203" y="0" type="line"/>
      <point x="219" y="312"/>
      <point x="260" y="416"/>
      <point x="339" y="435" type="curve"/>
      <point x="468" y="0" type="line"/>
      <point x="655" y="0" type="line"/>
      <point x="438" y="714" type="line"/>
      <point x="249" y="714" type="line"/>
      <point x="297" y="566" type="line"/>
      <point x="137" y="523"/>
      <point x="59" y="388"/>
    </contour>
  </outline>
</glyph>
<glyph name="laa.eth" format="2">
  <advance width="659"/>
  <unicode hex="120B"/>
  <note>
uni120B
</note>
  <anchor x="337" y="714" name="top"/>
  <outline>
    <contour>
      <point x="452" y="0" type="line"/>
      <point x="639" y="0" type="line"/>
      <point x="422" y="714" type="line"/>
      <point x="233" y="714" type="line"/>
      <point x="281" y="566" type="line"/>
      <point x="148" y="530"/>
      <point x="71" y="433"/>
      <point x="36" y="176" type="curve"/>
      <point x="201" y="176" type="line"/>
      <point x="222" y="356"/>
      <point x="261" y="420"/>
      <point x="323" y="435" type="curve"/>
    </contour>
  </outline>
</glyph>
<glyph name="lee.eth" format="2">
  <advance width="889"/>
  <unicode hex="120C"/>
  <note>
uni120C
</note>
  <anchor x="458" y="714" name="top"/>
  <outline>
    <contour>
      <point x="36" y="0" type="curve"/>
      <point x="203" y="0" type="line"/>
      <point x="219" y="312"/>
      <point x="260" y="416"/>
      <point x="339" y="435" type="curve"/>
      <point x="468" y="0" type="line"/>
      <point x="603" y="0" type="line"/>
      <point x="640" y="51" type="line"/>
      <point x="438" y="714" type="line"/>
      <point x="249" y="714" type="line"/>
      <point x="297" y="566" type="line"/>
      <point x="137" y="523"/>
      <point x="59" y="388"/>
    </contour>
    <contour>
      <point x="579" y="118" type="line"/>
      <point x="579" y="226" type="line"/>
      <point x="639" y="226" type="line" smooth="yes"/>
      <point x="685" y="226"/>
      <point x="704" y="206"/>
      <point x="704" y="177" type="curve" smooth="yes"/>
      <point x="704" y="138"/>
      <point x="676" y="118"/>
      <point x="615" y="118" type="curve" smooth="yes"/>
    </contour>
    <contour>
      <point x="480" y="0" type="line"/>
      <point x="613" y="0" type="line" smooth="yes"/>
      <point x="800" y="0"/>
      <point x="881" y="73"/>
      <point x="881" y="177" type="curve" smooth="yes"/>
      <point x="881" y="287"/>
      <point x="812" y="342"/>
      <point x="654" y="342" type="curve" smooth="yes"/>
      <point x="480" y="342" type="line"/>
    </contour>
  </outline>
</glyph>
<glyph name="le.eth" format="2">
  <advance width="772"/>
  <unicode hex="120D"/>
  <note>
uni120D
</note>
  <anchor x="403" y="714" name="top"/>
  <outline>
    <contour>
      <point x="36" y="0" type="curve"/>
      <point x="209" y="0" type="line" smooth="yes"/>
      <point x="362" y="0"/>
      <point x="442" y="55"/>
      <point x="442" y="167" type="curve" smooth="yes"/>
      <point x="442" y="268"/>
      <point x="379" y="322"/>
      <point x="282" y="322" type="curve" smooth="yes"/>
      <point x="253" y="322" type="line"/>
      <point x="269" y="381"/>
      <point x="318" y="439"/>
      <point x="380" y="447" type="curve"/>
      <point x="584" y="0" type="line"/>
      <point x="770" y="0" type="line"/>
      <point x="437" y="714" type="line"/>
      <point x="251" y="714" type="line"/>
      <point x="322" y="566" type="line"/>
      <point x="165" y="523"/>
      <point x="69" y="408"/>
    </contour>
    <contour>
      <point x="212" y="118" type="line"/>
      <point x="214" y="150"/>
      <point x="218" y="180"/>
      <point x="224" y="206" type="curve"/>
      <point x="241" y="206" type="line" smooth="yes"/>
      <point x="276" y="206"/>
      <point x="299" y="195"/>
      <point x="299" y="166" type="curve" smooth="yes"/>
      <point x="299" y="126"/>
      <point x="275" y="118"/>
      <point x="225" y="118" type="curve" smooth="yes"/>
    </contour>
  </outline>
</glyph>
<glyph name="hha.eth" format="2">
  <advance width="846"/>
  <unicode hex="1210"/>
  <note>
uni1210
</note>
  <anchor x="423" y="714" name="top"/>
  <outline>
    <contour>
      <point x="48" y="0" type="line"/>
      <point x="228" y="0" type="line"/>
      <point x="228" y="202" type="line" smooth="yes"/>
      <point x="228" y="282"/>
      <point x="269" y="322"/>
      <point x="333" y="329" type="curve"/>
      <point x="333" y="0" type="line"/>
      <point x="513" y="0" type="line"/>
      <point x="513" y="329" type="line"/>
      <point x="576" y="322"/>
      <point x="618" y="286"/>
      <point x="618" y="201" type="curve" smooth="yes"/>
      <point x="618" y="0" type="line"/>
      <point x="798" y="0" type="line"/>
      <point x="798" y="209" type="line" smooth="yes"/>
      <point x="798" y="369"/>
      <point x="697" y="463"/>
      <point x="513" y="474" type="curve"/>
      <point x="513" y="714" type="line"/>
      <point x="333" y="714" type="line"/>
      <point x="333" y="476" type="line"/>
      <point x="147" y="463"/>
      <point x="48" y="369"/>
      <point x="48" y="208" type="curve" smooth="yes"/>
    </contour>
  </outline>
</glyph>
<glyph name="hhaa.eth" format="2">
  <advance width="846"/>
  <unicode hex="1213"/>
  <note>
uni1213
</note>
  <anchor x="423" y="714" name="top"/>
  <outline>
    <contour>
      <point x="618" y="0" type="line"/>
      <point x="798" y="0" type="line"/>
      <point x="798" y="223" type="line" smooth="yes"/>
      <point x="798" y="383"/>
      <point x="697" y="477"/>
      <point x="513" y="488" type="curve"/>
      <point x="513" y="714" type="line"/>
      <point x="333" y="714" type="line"/>
      <point x="333" y="490" type="line"/>
      <point x="147" y="477"/>
      <point x="48" y="383"/>
      <point x="48" y="222" type="curve" smooth="yes"/>
      <point x="48" y="164" type="line"/>
      <point x="228" y="164" type="line"/>
      <point x="228" y="216" type="line" smooth="yes"/>
      <point x="228" y="296"/>
      <point x="269" y="336"/>
      <point x="333" y="343" type="curve"/>
      <point x="333" y="164" type="line"/>
      <point x="513" y="164" type="line"/>
      <point x="513" y="343" type="line"/>
      <point x="576" y="336"/>
      <point x="618" y="300"/>
      <point x="618" y="215" type="curve" smooth="yes"/>
    </contour>
  </outline>
</glyph>
<glyph name="hhee.eth" format="2">
  <advance width="1083"/>
  <unicode hex="1214"/>
  <note>
uni1214
</note>
  <anchor x="561" y="714" name="top"/>
  <outline>
    <contour>
      <point x="619" y="0" type="line"/>
      <point x="807" y="0" type="line" smooth="yes"/>
      <point x="994" y="0"/>
      <point x="1075" y="73"/>
      <point x="1075" y="177" type="curve" smooth="yes"/>
      <point x="1075" y="287"/>
      <point x="1006" y="342"/>
      <point x="848" y="342" type="curve" smooth="yes"/>
      <point x="619" y="342" type="line"/>
    </contour>
    <contour>
      <point x="799" y="118" type="line"/>
      <point x="799" y="226" type="line"/>
      <point x="833" y="226" type="line" smooth="yes"/>
      <point x="879" y="226"/>
      <point x="898" y="206"/>
      <point x="898" y="177" type="curve" smooth="yes"/>
      <point x="898" y="138"/>
      <point x="870" y="118"/>
      <point x="809" y="118" type="curve" smooth="yes"/>
    </contour>
    <component base="hha.eth"/>
  </outline>
</glyph>
<glyph name="ma.eth" format="2">
  <advance width="1096"/>
  <unicode hex="1218"/>
  <note>
uni1218
</note>
  <anchor x="548" y="714" name="top"/>
  <outline>
    <contour>
      <point x="283" y="-10" type="curve" smooth="yes"/>
      <point x="389" y="-10"/>
      <point x="464" y="45"/>
      <point x="521" y="123" type="curve"/>
      <point x="521" y="586" type="line"/>
      <point x="609" y="586" type="line"/>
      <point x="609" y="73" type="line"/>
      <point x="797" y="73" type="line" smooth="yes"/>
      <point x="965" y="73"/>
      <point x="1056" y="182"/>
      <point x="1056" y="403" type="curve" smooth="yes"/>
      <point x="1056" y="615"/>
      <point x="971" y="714"/>
      <point x="812" y="714" type="curve" smooth="yes"/>
      <point x="338" y="714" type="line" smooth="yes"/>
      <point x="147" y="714"/>
      <point x="40" y="548"/>
      <point x="40" y="315" type="curve" smooth="yes"/>
      <point x="40" y="90"/>
      <point x="119" y="-10"/>
    </contour>
    <contour>
      <point x="289" y="125" type="curve" smooth="yes"/>
      <point x="236" y="125"/>
      <point x="218" y="182"/>
      <point x="218" y="320" type="curve" smooth="yes"/>
      <point x="218" y="488"/>
      <point x="264" y="586"/>
      <point x="333" y="586" type="curve" smooth="yes"/>
      <point x="341" y="586" type="line"/>
      <point x="341" y="150" type="line"/>
      <point x="329" y="136"/>
      <point x="313" y="125"/>
    </contour>
    <contour>
      <point x="789" y="205" type="line"/>
      <point x="789" y="586" type="line"/>
      <point x="800" y="586" type="line" smooth="yes"/>
      <point x="855" y="586"/>
      <point x="879" y="540"/>
      <point x="879" y="403" type="curve" smooth="yes"/>
      <point x="879" y="260"/>
      <point x="851" y="205"/>
      <point x="800" y="205" type="curve" smooth="yes"/>
    </contour>
  </outline>
</glyph>
<glyph name="mu.eth" format="2">
  <advance width="1248"/>
  <unicode hex="1219"/>
  <note>
uni1219
</note>
  <anchor x="641" y="714" name="top"/>
  <outline>
    <contour>
      <point x="283" y="-10" type="curve" smooth="yes"/>
      <point x="389" y="-10"/>
      <point x="464" y="45"/>
      <point x="521" y="123" type="curve"/>
      <point x="521" y="586" type="line"/>
      <point x="609" y="586" type="line"/>
      <point x="609" y="73" type="line"/>
      <point x="797" y="73" type="line" smooth="yes"/>
      <point x="965" y="73"/>
      <point x="1056" y="182"/>
      <point x="1056" y="403" type="curve" smooth="yes"/>
      <point x="1056" y="615"/>
      <point x="971" y="714"/>
      <point x="812" y="714" type="curve" smooth="yes"/>
      <point x="338" y="714" type="line" smooth="yes"/>
      <point x="147" y="714"/>
      <point x="40" y="548"/>
      <point x="40" y="315" type="curve" smooth="yes"/>
      <point x="40" y="90"/>
      <point x="119" y="-10"/>
    </contour>
    <contour>
      <point x="289" y="125" type="curve" smooth="yes"/>
      <point x="236" y="125"/>
      <point x="218" y="182"/>
      <point x="218" y="320" type="curve" smooth="yes"/>
      <point x="218" y="488"/>
      <point x="264" y="586"/>
      <point x="333" y="586" type="curve" smooth="yes"/>
      <point x="341" y="586" type="line"/>
      <point x="341" y="150" type="line"/>
      <point x="329" y="136"/>
      <point x="313" y="125"/>
    </contour>
    <contour>
      <point x="789" y="205" type="line"/>
      <point x="789" y="586" type="line"/>
      <point x="800" y="586" type="line" smooth="yes"/>
      <point x="855" y="586"/>
      <point x="879" y="540"/>
      <point x="879" y="403" type="curve" smooth="yes"/>
      <point x="879" y="260"/>
      <point x="851" y="205"/>
      <point x="800" y="205" type="curve" smooth="yes"/>
    </contour>
    <component base="rightdoubleflag" xOffset="982" yOffset="312"/>
  </outline>
</glyph>
<glyph name="maa.eth" format="2">
  <advance width="1061"/>
  <unicode hex="121B"/>
  <note>
uni121B
</note>
  <anchor x="530" y="714" name="top"/>
  <outline>
    <contour>
      <point x="633" y="0" type="line"/>
      <point x="822" y="0" type="line"/>
      <point x="990" y="379" type="line" smooth="yes"/>
      <point x="1024" y="457"/>
      <point x="1041" y="508"/>
      <point x="1041" y="554" type="curve" smooth="yes"/>
      <point x="1041" y="648"/>
      <point x="982" y="714"/>
      <point x="842" y="714" type="curve" smooth="yes"/>
      <point x="334" y="714" type="line" smooth="yes"/>
      <point x="131" y="714"/>
      <point x="20" y="619"/>
      <point x="20" y="449" type="curve" smooth="yes"/>
      <point x="20" y="314"/>
      <point x="111" y="239"/>
      <point x="252" y="239" type="curve" smooth="yes"/>
      <point x="356" y="239"/>
      <point x="441" y="284"/>
      <point x="503" y="336" type="curve"/>
      <point x="503" y="579" type="line"/>
      <point x="595" y="579" type="line"/>
      <point x="590" y="552"/>
      <point x="586" y="528"/>
      <point x="586" y="502" type="curve" smooth="yes"/>
      <point x="586" y="389"/>
      <point x="637" y="334"/>
      <point x="764" y="334" type="curve" smooth="yes"/>
      <point x="782" y="334" type="line"/>
    </contour>
    <contour>
      <point x="268" y="379" type="curve" smooth="yes"/>
      <point x="230" y="379"/>
      <point x="200" y="402"/>
      <point x="200" y="458" type="curve" smooth="yes"/>
      <point x="200" y="539"/>
      <point x="241" y="579"/>
      <point x="319" y="579" type="curve" smooth="yes"/>
      <point x="323" y="579" type="line"/>
      <point x="323" y="394" type="line"/>
      <point x="309" y="386"/>
      <point x="291" y="379"/>
    </contour>
    <contour>
      <point x="820" y="470" type="line" smooth="yes"/>
      <point x="779" y="470"/>
      <point x="762" y="486"/>
      <point x="762" y="522" type="curve" smooth="yes"/>
      <point x="762" y="539"/>
      <point x="765" y="558"/>
      <point x="771" y="579" type="curve"/>
      <point x="815" y="579" type="line" smooth="yes"/>
      <point x="844" y="579"/>
      <point x="861" y="565"/>
      <point x="861" y="543" type="curve" smooth="yes"/>
      <point x="861" y="520"/>
      <point x="854" y="502"/>
      <point x="845" y="481" type="curve" smooth="yes"/>
      <point x="840" y="470" type="line"/>
    </contour>
  </outline>
</glyph>
<glyph name="mee.eth" format="2">
  <advance width="1183"/>
  <unicode hex="121C"/>
  <note>
uni121C
</note>
  <anchor x="597" y="714" name="top"/>
  <outline>
    <contour>
      <point x="671" y="0" type="line"/>
      <point x="822" y="0" type="line"/>
      <point x="990" y="379" type="line" smooth="yes"/>
      <point x="1024" y="457"/>
      <point x="1041" y="508"/>
      <point x="1041" y="554" type="curve" smooth="yes"/>
      <point x="1041" y="648"/>
      <point x="982" y="714"/>
      <point x="842" y="714" type="curve" smooth="yes"/>
      <point x="334" y="714" type="line" smooth="yes"/>
      <point x="131" y="714"/>
      <point x="20" y="619"/>
      <point x="20" y="449" type="curve" smooth="yes"/>
      <point x="20" y="314"/>
      <point x="111" y="239"/>
      <point x="252" y="239" type="curve" smooth="yes"/>
      <point x="356" y="239"/>
      <point x="441" y="284"/>
      <point x="503" y="336" type="curve"/>
      <point x="503" y="579" type="line"/>
      <point x="595" y="579" type="line"/>
      <point x="589" y="545"/>
      <point x="586" y="524"/>
      <point x="586" y="493" type="curve" smooth="yes"/>
      <point x="586" y="387"/>
      <point x="643" y="334"/>
      <point x="764" y="334" type="curve" smooth="yes"/>
      <point x="782" y="334" type="line"/>
      <point x="671" y="86" type="line"/>
    </contour>
    <contour>
      <point x="268" y="379" type="curve" smooth="yes"/>
      <point x="230" y="379"/>
      <point x="200" y="402"/>
      <point x="200" y="458" type="curve" smooth="yes"/>
      <point x="200" y="539"/>
      <point x="241" y="579"/>
      <point x="319" y="579" type="curve" smooth="yes"/>
      <point x="323" y="579" type="line"/>
      <point x="323" y="394" type="line"/>
      <point x="309" y="386"/>
      <point x="291" y="379"/>
    </contour>
    <contour>
      <point x="854" y="118" type="line"/>
      <point x="899" y="226" type="line"/>
      <point x="933" y="226" type="line" smooth="yes"/>
      <point x="979" y="226"/>
      <point x="998" y="206"/>
      <point x="998" y="177" type="curve" smooth="yes"/>
      <point x="998" y="138"/>
      <point x="970" y="118"/>
      <point x="909" y="118" type="curve" smooth="yes"/>
    </contour>
    <contour>
      <point x="719" y="0" type="line"/>
      <point x="907" y="0" type="line" smooth="yes"/>
      <point x="1094" y="0"/>
      <point x="1175" y="73"/>
      <point x="1175" y="177" type="curve" smooth="yes"/>
      <point x="1175" y="287"/>
      <point x="1106" y="342"/>
      <point x="948" y="342" type="curve" smooth="yes"/>
      <point x="867" y="342" type="line"/>
    </contour>
    <contour>
      <point x="820" y="470" type="line" smooth="yes"/>
      <point x="781" y="470"/>
      <point x="762" y="487"/>
      <point x="762" y="515" type="curve" smooth="yes"/>
      <point x="762" y="538"/>
      <point x="764" y="556"/>
      <point x="771" y="579" type="curve"/>
      <point x="815" y="579" type="line" smooth="yes"/>
      <point x="844" y="579"/>
      <point x="861" y="565"/>
      <point x="861" y="543" type="curve" smooth="yes"/>
      <point x="861" y="520"/>
      <point x="854" y="502"/>
      <point x="845" y="481" type="curve" smooth="yes"/>
      <point x="840" y="470" type="line"/>
    </contour>
  </outline>
</glyph>
<glyph name="me.eth" format="2">
  <advance width="1049"/>
  <unicode hex="121D"/>
  <note>
uni121D
</note>
  <anchor x="523" y="714" name="top"/>
  <outline>
    <contour>
      <point x="243" y="239" type="curve" smooth="yes"/>
      <point x="351" y="239"/>
      <point x="441" y="285"/>
      <point x="503" y="336" type="curve"/>
      <point x="503" y="579" type="line"/>
      <point x="579" y="579" type="line"/>
      <point x="579" y="335" type="line"/>
      <point x="827" y="335" type="line" smooth="yes"/>
      <point x="965" y="335"/>
      <point x="1027" y="426"/>
      <point x="1027" y="532" type="curve" smooth="yes"/>
      <point x="1027" y="636"/>
      <point x="954" y="714"/>
      <point x="791" y="714" type="curve" smooth="yes"/>
      <point x="334" y="714" type="line"/>
      <point x="131" y="714"/>
      <point x="20" y="619"/>
      <point x="20" y="449" type="curve" smooth="yes"/>
      <point x="20" y="314"/>
      <point x="106" y="239"/>
    </contour>
    <contour>
      <point x="156" y="0" type="line"/>
      <point x="351" y="0" type="line"/>
      <point x="503" y="336" type="line"/>
      <point x="318" y="336" type="line"/>
    </contour>
    <contour>
      <point x="268" y="379" type="curve" smooth="yes"/>
      <point x="230" y="379"/>
      <point x="200" y="402"/>
      <point x="200" y="458" type="curve" smooth="yes"/>
      <point x="200" y="539"/>
      <point x="241" y="579"/>
      <point x="319" y="579" type="curve" smooth="yes"/>
      <point x="323" y="579" type="line"/>
      <point x="323" y="394" type="line"/>
      <point x="309" y="386"/>
      <point x="291" y="379"/>
    </contour>
    <contour>
      <point x="759" y="471" type="line"/>
      <point x="759" y="579" type="line"/>
      <point x="780" y="579" type="line" smooth="yes"/>
      <point x="843" y="579"/>
      <point x="849" y="545"/>
      <point x="849" y="527" type="curve" smooth="yes"/>
      <point x="849" y="503"/>
      <point x="841" y="471"/>
      <point x="785" y="471" type="curve" smooth="yes"/>
    </contour>
  </outline>
</glyph>
<glyph name="sza.eth" format="2">
  <advance width="932"/>
  <unicode hex="1220"/>
  <note>
uni1220
</note>
  <anchor x="466" y="714" name="top"/>
  <outline>
    <contour>
      <point x="291" y="-10" type="curve" smooth="yes"/>
      <point x="408" y="-10"/>
      <point x="472" y="59"/>
      <point x="496" y="134" type="curve"/>
      <point x="520" y="102"/>
      <point x="577" y="76"/>
      <point x="643" y="76" type="curve" smooth="yes"/>
      <point x="794" y="76"/>
      <point x="857" y="180"/>
      <point x="857" y="309" type="curve" smooth="yes"/>
      <point x="857" y="714" type="line"/>
      <point x="677" y="714" type="line"/>
      <point x="677" y="316" type="line" smooth="yes"/>
      <point x="677" y="269"/>
      <point x="665" y="228"/>
      <point x="619" y="228" type="curve" smooth="yes"/>
      <point x="568" y="228"/>
      <point x="556" y="265"/>
      <point x="556" y="317" type="curve" smooth="yes"/>
      <point x="556" y="714" type="line"/>
      <point x="376" y="714" type="line"/>
      <point x="376" y="229" type="line" smooth="yes"/>
      <point x="376" y="180"/>
      <point x="356" y="147"/>
      <point x="314" y="147" type="curve" smooth="yes"/>
      <point x="273" y="147"/>
      <point x="255" y="181"/>
      <point x="255" y="228" type="curve" smooth="yes"/>
      <point x="255" y="714" type="line"/>
      <point x="75" y="714" type="line"/>
      <point x="75" y="220" type="line" smooth="yes"/>
      <point x="75" y="89"/>
      <point x="132" y="-10"/>
    </contour>
  </outline>
</glyph>
<glyph name="szi.eth" format="2">
  <advance width="911"/>
  <unicode hex="1222"/>
  <note>
uni1222
</note>
  <anchor x="490" y="714" name="top"/>
  <outline>
    <contour>
      <point x="500" y="0" type="line"/>
      <point x="644" y="0" type="line"/>
      <point x="832" y="425" type="line"/>
      <point x="604" y="334" type="line"/>
      <point x="500" y="101" type="line"/>
    </contour>
    <contour>
      <point x="593" y="0" type="line"/>
      <point x="736" y="0" type="line"/>
      <point x="736" y="120" type="line"/>
      <point x="593" y="120" type="line"/>
    </contour>
    <component base="shorttoploops"/>
    <component base="rightdoubleflag" xOffset="645"/>
  </outline>
</glyph>
<glyph name="szaa.eth" format="2">
  <advance width="932"/>
  <unicode hex="1223"/>
  <note>
uni1223
</note>
  <anchor x="466" y="714" name="top"/>
  <outline>
    <contour>
      <point x="445" y="0" type="line"/>
      <point x="640" y="0" type="line"/>
      <point x="835" y="432" type="line"/>
      <point x="650" y="432" type="line"/>
    </contour>
    <component base="shorttoploops"/>
  </outline>
</glyph>
<glyph name="szee.eth" format="2">
  <advance width="1015"/>
  <unicode hex="1224"/>
  <note>
uni1224
</note>
  <anchor x="541" y="714" name="top"/>
  <outline>
    <contour>
      <point x="519" y="0" type="line"/>
      <point x="661" y="0" type="line"/>
      <point x="837" y="439" type="line"/>
      <point x="650" y="419" type="line"/>
      <point x="519" y="101" type="line"/>
    </contour>
    <contour>
      <point x="658" y="118" type="line"/>
      <point x="706" y="226" type="line"/>
      <point x="765" y="226" type="line" smooth="yes"/>
      <point x="811" y="226"/>
      <point x="830" y="206"/>
      <point x="830" y="177" type="curve" smooth="yes"/>
      <point x="830" y="138"/>
      <point x="802" y="118"/>
      <point x="741" y="118" type="curve" smooth="yes"/>
    </contour>
    <contour>
      <point x="539" y="0" type="line"/>
      <point x="739" y="0" type="line" smooth="yes"/>
      <point x="926" y="0"/>
      <point x="1007" y="73"/>
      <point x="1007" y="177" type="curve" smooth="yes"/>
      <point x="1007" y="287"/>
      <point x="938" y="342"/>
      <point x="780" y="342" type="curve" smooth="yes"/>
      <point x="657" y="342" type="line"/>
    </contour>
    <component base="shorttoploops"/>
  </outline>
</glyph>
<glyph name="sze.eth" format="2">
	<advance width="1011"/>
	<unicode hex="1225"/>
	<anchor x="478" y="714" name="top"/>
	<note>
		uni1225
	</note>
	<outline>
		<contour>
			<point x="20" y="0" type="line"/>
			<point x="215" y="0" type="line"/>
			<point x="377" y="358" type="line"/>
			<point x="225" y="432" type="line"/>
		</contour>
		<component base="shorttoploops" xOffset="79"/>
	</outline>
</glyph>
<glyph name="szo.eth" format="2">
  <advance width="932"/>
  <unicode hex="1226"/>
  <note>
uni1226
</note>
  <anchor x="466" y="714" name="top"/>
  <outline>
    <contour>
      <point x="131" y="0" type="line"/>
      <point x="326" y="0" type="line"/>
      <point x="521" y="419" type="line"/>
      <point x="293" y="327" type="line"/>
    </contour>
    <component base="shorttoploops"/>
  </outline>
</glyph>
<glyph name="ru.eth" format="2">
  <advance width="650"/>
  <unicode hex="1229"/>
  <note>
uni1229
</note>
  <anchor x="340" y="714" name="top"/>
  <outline>
    <contour>
      <point x="267" y="0" type="line"/>
      <point x="444" y="0" type="line"/>
      <point x="444" y="166" type="line"/>
      <point x="520" y="166" type="line"/>
      <point x="480" y="286" type="line"/>
      <point x="268" y="286" type="line" smooth="yes"/>
      <point x="233" y="286"/>
      <point x="214" y="299"/>
      <point x="214" y="331" type="curve" smooth="yes"/>
      <point x="214" y="362"/>
      <point x="239" y="378"/>
      <point x="308" y="418" type="curve" smooth="yes"/>
      <point x="431" y="489"/>
      <point x="479" y="563"/>
      <point x="479" y="714" type="curve"/>
      <point x="298" y="714" type="line"/>
      <point x="298" y="606"/>
      <point x="275" y="563"/>
      <point x="181" y="506" type="curve" smooth="yes"/>
      <point x="89" y="450"/>
      <point x="36" y="409"/>
      <point x="36" y="322" type="curve" smooth="yes"/>
      <point x="36" y="225"/>
      <point x="94" y="166"/>
      <point x="243" y="166" type="curve"/>
      <point x="267" y="166" type="line"/>
    </contour>
    <component base="rightsingleflag" xOffset="384" yOffset="-136"/>
  </outline>
</glyph>
<glyph name="ri.eth" format="2">
  <advance width="592"/>
  <unicode hex="122A"/>
  <note>
uni122A
</note>
  <anchor x="296" y="714" name="top"/>
  <outline>
    <contour>
      <point x="296" y="0" type="line"/>
      <point x="468" y="0"/>
      <point x="556" y="80"/>
      <point x="556" y="224" type="curve" smooth="yes"/>
      <point x="556" y="284" type="line"/>
      <point x="375" y="284" type="line"/>
      <point x="375" y="205" type="line" smooth="yes"/>
      <point x="375" y="142"/>
      <point x="338" y="120"/>
      <point x="296" y="120" type="curve"/>
    </contour>
    <component base="nose"/>
  </outline>
</glyph>
<glyph name="raa.eth" format="2">
  <advance width="704"/>
  <unicode hex="122B"/>
  <note>
uni122B
</note>
  <anchor x="367" y="714" name="top"/>
  <outline>
    <contour>
      <point x="296" y="0" type="line"/>
      <point x="449" y="0" type="line"/>
      <point x="449" y="133"/>
      <point x="471" y="211"/>
      <point x="558" y="225" type="curve"/>
      <point x="580" y="166"/>
      <point x="622" y="149"/>
      <point x="667" y="149" type="curve" smooth="yes"/>
      <point x="699" y="149" type="line"/>
      <point x="650" y="345" type="line"/>
      <point x="565" y="345" type="line" smooth="yes"/>
      <point x="424" y="345"/>
      <point x="314" y="275"/>
      <point x="303" y="120" type="curve"/>
      <point x="296" y="120" type="line"/>
    </contour>
    <component base="nose"/>
  </outline>
</glyph>
<glyph name="ree.eth" format="2">
  <advance width="667"/>
  <unicode hex="122C"/>
  <note>
uni122C
</note>
  <anchor x="344" y="714" name="top"/>
  <outline>
    <contour>
      <point x="296" y="0" type="line"/>
      <point x="443" y="0" type="line"/>
      <point x="443" y="60" type="line"/>
      <point x="343" y="120" type="line"/>
      <point x="296" y="120" type="line"/>
    </contour>
    <component base="nose"/>
    <component base="ballbig" xOffset="235" yOffset="-137"/>
  </outline>
</glyph>
<glyph name="re.eth" format="2">
  <advance width="576"/>
  <unicode hex="122D"/>
  <note>
uni122D
</note>
  <anchor x="305" y="714" name="top"/>
  <outline>
    <contour>
      <point x="534" y="-66" type="curve" smooth="yes"/>
      <point x="571" y="-66" type="line"/>
      <point x="538" y="60" type="line"/>
      <point x="571" y="185" type="line"/>
      <point x="534" y="185" type="line" smooth="yes"/>
      <point x="472" y="185"/>
      <point x="445" y="155"/>
      <point x="430" y="120" type="curve"/>
      <point x="345" y="120" type="line" smooth="yes"/>
      <point x="261" y="120"/>
      <point x="220" y="151"/>
      <point x="220" y="257" type="curve" smooth="yes"/>
      <point x="220" y="316" type="line" smooth="yes"/>
      <point x="220" y="530"/>
      <point x="292" y="594"/>
      <point x="410" y="594" type="curve" smooth="yes"/>
      <point x="430" y="594" type="line"/>
      <point x="452" y="534"/>
      <point x="496" y="518"/>
      <point x="535" y="518" type="curve" smooth="yes"/>
      <point x="571" y="518" type="line"/>
      <point x="522" y="714" type="line"/>
      <point x="369" y="714" type="line" smooth="yes"/>
      <point x="175" y="714"/>
      <point x="40" y="615"/>
      <point x="40" y="315" type="curve" smooth="yes"/>
      <point x="40" y="265" type="line" smooth="yes"/>
      <point x="40" y="79"/>
      <point x="124" y="0"/>
      <point x="314" y="0" type="curve" smooth="yes"/>
      <point x="430" y="0" type="line"/>
      <point x="443" y="-30"/>
      <point x="472" y="-66"/>
    </contour>
  </outline>
</glyph>
<glyph name="ro.eth" format="2">
  <advance width="721"/>
  <unicode hex="122E"/>
  <note>
uni122E
</note>
  <anchor x="373" y="714" name="top"/>
  <outline>
    <contour>
      <point x="534" y="-66" type="curve" smooth="yes"/>
      <point x="571" y="-66" type="line"/>
      <point x="538" y="60" type="line"/>
      <point x="571" y="185" type="line"/>
      <point x="534" y="185" type="line" smooth="yes"/>
      <point x="472" y="185"/>
      <point x="445" y="155"/>
      <point x="430" y="120" type="curve"/>
      <point x="345" y="120" type="line" smooth="yes"/>
      <point x="261" y="120"/>
      <point x="220" y="151"/>
      <point x="220" y="257" type="curve" smooth="yes"/>
      <point x="220" y="316" type="line" smooth="yes"/>
      <point x="220" y="530"/>
      <point x="292" y="594"/>
      <point x="410" y="594" type="curve"/>
      <point x="510" y="714" type="line"/>
      <point x="369" y="714" type="line" smooth="yes"/>
      <point x="175" y="714"/>
      <point x="40" y="615"/>
      <point x="40" y="315" type="curve" smooth="yes"/>
      <point x="40" y="265" type="line" smooth="yes"/>
      <point x="40" y="79"/>
      <point x="124" y="0"/>
      <point x="314" y="0" type="curve" smooth="yes"/>
      <point x="430" y="0" type="line"/>
      <point x="443" y="-30"/>
      <point x="472" y="-66"/>
    </contour>
    <component base="ballbig" xOffset="289" yOffset="263"/>
  </outline>
</glyph>
<glyph name="sa.eth" format="2">
  <advance width="668"/>
  <unicode hex="1230"/>
  <note>
uni1230
</note>
  <anchor x="334" y="760" name="top"/>
  <outline>
    <contour>
      <point x="244" y="551" type="line"/>
      <point x="424" y="551" type="line"/>
      <point x="424" y="760" type="line"/>
      <point x="244" y="760" type="line"/>
    </contour>
    <component base="shortnarch"/>
  </outline>
</glyph>
<glyph name="saa.eth" format="2">
  <advance width="668"/>
  <unicode hex="1233"/>
  <note>
uni1233
</note>
  <anchor x="334" y="760" name="top"/>
  <outline>
    <contour>
      <point x="248" y="551" type="line"/>
      <point x="428" y="551" type="line"/>
      <point x="428" y="760" type="line"/>
      <point x="248" y="760" type="line"/>
    </contour>
    <component base="baashort" xOffset="9"/>
  </outline>
</glyph>
<glyph name="se.eth" format="2">
	<advance width="668"/>
	<unicode hex="1235"/>
	<anchor x="334" y="760" name="top"/>
	<note>
		uni1235
	</note>
	<outline>
		<contour>
			<point x="247" y="551" type="line"/>
			<point x="430" y="551" type="line"/>
			<point x="331" y="760" type="line"/>
			<point x="148" y="760" type="line"/>
		</contour>
		<component base="shortnarch"/>
	</outline>
</glyph>
<glyph name="qe.eth" format="2">
	<advance width="718"/>
	<unicode hex="1245"/>
	<anchor x="359" y="849" name="top"/>
	<note>
		uni1245
	</note>
	<outline>
		<contour>
			<point x="269" y="675" type="line"/>
			<point x="449" y="675" type="line"/>
			<point x="449" y="773" type="line"/>
			<point x="269" y="773" type="line"/>
		</contour>
		<component base="qa.eth"/>
		<component base="leftsingleflag" yScale="-1" xOffset="61" yOffset="1075"/>
	</outline>
</glyph>
<glyph name="qwi.eth" format="2">
  <advance width="989"/>
  <unicode hex="124A"/>
  <note>
uni124A
</note>
  <anchor x="502" y="714" name="top"/>
  <outline>
    <contour>
      <point x="948" y="161" type="curve" smooth="yes"/>
      <point x="984" y="161" type="line"/>
      <point x="935" y="357" type="line"/>
      <point x="733" y="357" type="line"/>
      <point x="733" y="237" type="line"/>
      <point x="843" y="237" type="line"/>
      <point x="865" y="181"/>
      <point x="903" y="161"/>
    </contour>
    <contour>
      <point x="619" y="326" type="line"/>
      <point x="798" y="326" type="line"/>
      <point x="798" y="446" type="line"/>
      <point x="619" y="446" type="line"/>
    </contour>
    <contour>
      <point x="733" y="237" type="line"/>
      <point x="874" y="237" type="line"/>
      <point x="874" y="535" type="line"/>
      <point x="733" y="535" type="line"/>
    </contour>
    <component base="qa.eth"/>
  </outline>
</glyph>
<glyph name="qwaa.eth" format="2">
	<advance width="718"/>
	<unicode hex="124B"/>
	<anchor x="359" y="713" name="top"/>
	<note>
		uni124B
	</note>
	<outline>
		<contour>
			<point x="290" y="85" type="line"/>
			<point x="640" y="85" type="line"/>
			<point x="640" y="204" type="line"/>
			<point x="290" y="204" type="line"/>
		</contour>
		<contour>
			<point x="508" y="0" type="line"/>
			<point x="640" y="0" type="line"/>
			<point x="640" y="204" type="line"/>
			<point x="508" y="204" type="line"/>
		</contour>
		<component base="midring" yOffset="66"/>
		<component base="leftsingleflag" xOffset="41" yOffset="-217"/>
		<component base="stem1" yScale="0.785" xOffset="192" yOffset="153"/>
	</outline>
</glyph>
<glyph name="qwe.eth" format="2">
  <advance width="1007"/>
  <unicode hex="124D"/>
  <note>
uni124D
</note>
  <anchor x="511" y="714" name="top"/>
  <outline>
    <contour>
      <point x="728" y="320" type="line"/>
      <point x="867" y="320" type="line"/>
      <point x="867" y="602" type="line"/>
      <point x="728" y="602" type="line"/>
    </contour>
    <contour>
      <point x="595" y="320" type="line"/>
      <point x="774" y="320" type="line"/>
      <point x="774" y="440" type="line"/>
      <point x="595" y="440" type="line"/>
    </contour>
    <component base="rightsingleflag" xOffset="741" yOffset="18"/>
    <component base="qa.eth"/>
  </outline>
</glyph>
<glyph name="qha.eth" format="2">
	<advance width="718"/>
	<unicode hex="1250"/>
	<anchor x="359" y="871" name="top"/>
	<note>
		uni1250
	</note>
	<outline>
		<contour>
			<point x="269" y="686" type="line"/>
			<point x="449" y="686" type="line"/>
			<point x="449" y="766" type="line"/>
			<point x="269" y="766" type="line"/>
		</contour>
		<component base="qa.eth"/>
		<component base="bonemiddle" xOffset="42" yOffset="33"/>
	</outline>
</glyph>
<glyph name="qhu.eth" format="2">
  <advance width="718"/>
  <unicode hex="1251"/>
  <note>
uni1251
</note>
  <anchor x="359" y="871" name="top"/>
  <outline>
    <contour>
      <point x="270" y="686" type="line"/>
      <point x="449" y="686" type="line"/>
      <point x="449" y="766" type="line"/>
      <point x="270" y="766" type="line"/>
    </contour>
    <component base="qu.eth"/>
    <component base="bonemiddle" xOffset="38" yOffset="33"/>
  </outline>
</glyph>
<glyph name="qhaa.eth" format="2">
	<advance width="744"/>
	<unicode hex="1253"/>
	<anchor x="372" y="839" name="top"/>
	<note>
		uni1253
	</note>
	<outline>
		<contour>
			<point x="296" y="672" type="line"/>
			<point x="475" y="672" type="line"/>
			<point x="475" y="752" type="line"/>
			<point x="296" y="752" type="line"/>
		</contour>
		<component base="qaa.eth" xOffset="15"/>
		<component base="bonemiddle" xOffset="63" yOffset="1"/>
	</outline>
</glyph>
<glyph name="qhee.eth" format="2">
  <advance width="718"/>
  <unicode hex="1254"/>
  <note>
uni1254
</note>
  <anchor x="359" y="884" name="top"/>
  <outline>
    <contour>
      <point x="273" y="686" type="line"/>
      <point x="453" y="686" type="line"/>
      <point x="453" y="766" type="line"/>
      <point x="273" y="766" type="line"/>
    </contour>
    <component base="qee.eth"/>
    <component base="bonemiddle" xOffset="38" yOffset="46"/>
  </outline>
</glyph>
<glyph name="qhe.eth" format="2">
  <advance width="778"/>
  <unicode hex="1255"/>
  <note>
uni1255
</note>
  <anchor x="381" y="838" name="top"/>
  <outline>
    <contour>
      <point x="330" y="0" type="line"/>
      <point x="510" y="0" type="line"/>
      <point x="510" y="566" type="line"/>
      <point x="469" y="566" type="line" smooth="yes"/>
      <point x="393" y="566"/>
      <point x="367" y="601"/>
      <point x="367" y="668" type="curve" smooth="yes"/>
      <point x="367" y="715" type="line"/>
      <point x="196" y="715" type="line"/>
      <point x="196" y="635" type="line" smooth="yes"/>
      <point x="196" y="540"/>
      <point x="244" y="479"/>
      <point x="330" y="459" type="curve"/>
    </contour>
    <component base="midringshort" xOffset="60" yOffset="-136"/>
    <component base="bone"/>
  </outline>
</glyph>
<glyph name="qhwa.eth" format="2">
  <advance width="890"/>
  <unicode hex="1258"/>
  <note>
uni1258
</note>
  <anchor x="447" y="887" name="top"/>
  <outline>
    <contour>
      <point x="273" y="686" type="line"/>
      <point x="453" y="686" type="line"/>
      <point x="453" y="766" type="line"/>
      <point x="273" y="766" type="line"/>
    </contour>
    <component base="stem1" xOffset="194"/>
    <component base="rightbulbsmall" xOffset="440" yOffset="-155"/>
    <component base="midringshort" yOffset="73"/>
    <component base="bonemiddle" xOffset="43" yOffset="49"/>
  </outline>
</glyph>
<glyph name="qhwi.eth" format="2">
  <advance width="989"/>
  <unicode hex="125A"/>
  <note>
uni125A
</note>
  <anchor x="502" y="871" name="top"/>
  <outline>
    <contour>
      <point x="948" y="161" type="curve" smooth="yes"/>
      <point x="984" y="161" type="line"/>
      <point x="935" y="357" type="line"/>
      <point x="733" y="357" type="line"/>
      <point x="733" y="237" type="line"/>
      <point x="843" y="237" type="line"/>
      <point x="865" y="181"/>
      <point x="903" y="161"/>
    </contour>
    <contour>
      <point x="619" y="326" type="line"/>
      <point x="798" y="326" type="line"/>
      <point x="798" y="446" type="line"/>
      <point x="619" y="446" type="line"/>
    </contour>
    <contour>
      <point x="733" y="237" type="line"/>
      <point x="874" y="237" type="line"/>
      <point x="874" y="535" type="line"/>
      <point x="733" y="535" type="line"/>
    </contour>
    <component base="qha.eth"/>
  </outline>
</glyph>
<glyph name="qhwaa.eth" format="2">
	<advance width="718"/>
	<unicode hex="125B"/>
	<anchor x="359" y="838" name="top"/>
	<note>
		uni125B
	</note>
	<outline>
		<contour>
			<point x="287" y="96" type="line"/>
			<point x="637" y="96" type="line"/>
			<point x="637" y="216" type="line"/>
			<point x="287" y="216" type="line"/>
		</contour>
		<contour>
			<point x="505" y="0" type="line"/>
			<point x="637" y="0" type="line"/>
			<point x="637" y="204" type="line"/>
			<point x="505" y="204" type="line"/>
		</contour>
		<component base="midringshort" yOffset="49"/>
		<component base="bonemiddle" xOffset="38"/>
		<component base="stem1" yScale="0.882" xOffset="192" yOffset="132"/>
		<component base="leftsingleflag" xOffset="38" yOffset="-206"/>
	</outline>
</glyph>
<glyph name="baa.eth" format="2">
  <advance width="663"/>
  <unicode hex="1263"/>
  <note>
uni1263
</note>
  <anchor x="329" y="724" name="top"/>
  <outline>
    <contour>
      <point x="408" y="0" type="line"/>
      <point x="588" y="0" type="line"/>
      <point x="588" y="481" type="line" smooth="yes"/>
      <point x="588" y="637"/>
      <point x="500" y="724"/>
      <point x="332" y="724" type="curve" smooth="yes"/>
      <point x="158" y="724"/>
      <point x="70" y="628"/>
      <point x="70" y="483" type="curve" smooth="yes"/>
      <point x="70" y="239" type="line"/>
      <point x="250" y="239" type="line"/>
      <point x="250" y="463" type="line" smooth="yes"/>
      <point x="250" y="536"/>
      <point x="275" y="567"/>
      <point x="331" y="567" type="curve" smooth="yes"/>
      <point x="383" y="567"/>
      <point x="408" y="537"/>
      <point x="408" y="464" type="curve" smooth="yes"/>
    </contour>
  </outline>
</glyph>
<glyph name="te.eth" format="2">
  <advance width="676"/>
  <unicode hex="1275"/>
  <note>
uni1275
</note>
  <anchor x="338" y="806" name="top"/>
  <outline>
    <contour>
      <point x="254" y="0" type="line"/>
      <point x="434" y="0" type="line"/>
      <point x="434" y="624" type="line"/>
      <point x="393" y="624" type="line" smooth="yes"/>
      <point x="317" y="624"/>
      <point x="291" y="659"/>
      <point x="291" y="726" type="curve" smooth="yes"/>
      <point x="291" y="806" type="line"/>
      <point x="120" y="806" type="line"/>
      <point x="120" y="693" type="line" smooth="yes"/>
      <point x="120" y="598"/>
      <point x="168" y="537"/>
      <point x="254" y="517" type="curve"/>
    </contour>
    <component base="footmiddle" yOffset="333"/>
  </outline>
</glyph>
<glyph name="caa.eth" format="2">
  <advance width="708"/>
  <unicode hex="127B"/>
  <note>
uni127B
</note>
  <anchor x="354" y="838" name="top"/>
  <outline>
    <contour>
      <point x="280" y="611" type="line"/>
      <point x="460" y="611" type="line"/>
      <point x="460" y="773" type="line"/>
      <point x="280" y="773" type="line"/>
    </contour>
    <component base="jstem"/>
    <component base="footmiddle" xOffset="32" yOffset="433"/>
    <component base="bonemiddle" xOffset="53"/>
  </outline>
</glyph>
<glyph name="cee.eth" format="2">
  <advance width="710"/>
  <unicode hex="127C"/>
  <note>
uni127C
</note>
  <anchor x="355" y="864" name="top"/>
  <outline>
    <contour>
      <point x="249" y="619" type="line"/>
      <point x="429" y="619" type="line"/>
      <point x="429" y="786" type="line"/>
      <point x="249" y="786" type="line"/>
    </contour>
    <component base="stem1" xOffset="170"/>
    <component base="baselinebowl" xOffset="229"/>
    <component base="bonemiddle" xOffset="21" yOffset="26"/>
    <component base="footmiddle" yOffset="444"/>
  </outline>
</glyph>
<glyph name="ce.eth" format="2">
  <advance width="756"/>
  <unicode hex="127D"/>
  <note>
uni127D
</note>
  <anchor x="378" y="838" name="top"/>
  <outline>
    <contour>
      <point x="332" y="0" type="line"/>
      <point x="512" y="0" type="line"/>
      <point x="512" y="541" type="line"/>
      <point x="471" y="541" type="line" smooth="yes"/>
      <point x="395" y="541"/>
      <point x="369" y="576"/>
      <point x="369" y="643" type="curve" smooth="yes"/>
      <point x="369" y="773" type="line"/>
      <point x="198" y="773" type="line"/>
      <point x="198" y="610" type="line" smooth="yes"/>
      <point x="198" y="515"/>
      <point x="246" y="454"/>
      <point x="332" y="434" type="curve"/>
    </contour>
    <contour>
      <point x="54" y="653" type="line"/>
      <point x="423" y="653" type="line"/>
      <point x="438" y="621"/>
      <point x="465" y="587"/>
      <point x="527" y="587" type="curve" smooth="yes"/>
      <point x="564" y="587" type="line"/>
      <point x="531" y="713" type="line"/>
      <point x="564" y="838" type="line"/>
      <point x="527" y="838" type="line" smooth="yes"/>
      <point x="465" y="838"/>
      <point x="436" y="806"/>
      <point x="423" y="773" type="curve"/>
      <point x="146" y="773" type="line"/>
      <point x="133" y="806"/>
      <point x="104" y="838"/>
      <point x="42" y="838" type="curve" smooth="yes"/>
      <point x="5" y="838" type="line"/>
    </contour>
    <component base="footmiddle" xOffset="80" yOffset="304"/>
  </outline>
</glyph>
<glyph name="co.eth" format="2">
	<advance width="770"/>
	<unicode hex="127E"/>
	<anchor x="385" y="887" name="top"/>
	<note>
		uni127E
	</note>
	<outline>
		<contour>
			<point x="219" y="690" type="line"/>
			<point x="532" y="690" type="line"/>
			<point x="532" y="811" type="line"/>
			<point x="219" y="811" type="line"/>
		</contour>
		<component base="to.eth" xOffset="39"/>
		<component base="leftdoubleflag" xOffset="9" yOffset="691"/>
		<component base="rightsingleflag" yScale="-1" xOffset="495" yOffset="1113"/>
	</outline>
</glyph>
<glyph name="xaa.eth" format="2">
  <advance width="623"/>
  <unicode hex="1283"/>
  <note>
uni1283
</note>
  <anchor x="274" y="715" name="top"/>
  <outline>
    <contour>
      <point x="5" y="-76" type="line"/>
      <point x="37" y="-76" type="line" smooth="yes"/>
      <point x="70" y="-76"/>
      <point x="121" y="-68"/>
      <point x="146" y="0" type="curve"/>
      <point x="241" y="0" type="line" smooth="yes"/>
      <point x="457" y="0"/>
      <point x="543" y="102"/>
      <point x="543" y="257" type="curve" smooth="yes"/>
      <point x="543" y="343" type="line"/>
      <point x="363" y="343" type="line"/>
      <point x="363" y="251" type="line" smooth="yes"/>
      <point x="363" y="155"/>
      <point x="328" y="120"/>
      <point x="221" y="120" type="curve" smooth="yes"/>
      <point x="54" y="120" type="line"/>
    </contour>
    <contour>
      <point x="363" y="282" type="line"/>
      <point x="543" y="282" type="line"/>
      <point x="543" y="533" type="line"/>
      <point x="502" y="533" type="line" smooth="yes"/>
      <point x="426" y="533"/>
      <point x="400" y="568"/>
      <point x="400" y="635" type="curve" smooth="yes"/>
      <point x="400" y="715" type="line"/>
      <point x="229" y="715" type="line"/>
      <point x="229" y="602" type="line" smooth="yes"/>
      <point x="229" y="507"/>
      <point x="277" y="446"/>
      <point x="363" y="426" type="curve"/>
    </contour>
    <component base="leftsingleflag" xOffset="21" yOffset="234"/>
  </outline>
</glyph>
<glyph name="xe.eth" format="2">
  <advance width="625"/>
  <unicode hex="1285"/>
  <note>
uni1285
</note>
  <anchor x="282" y="715" name="top"/>
  <outline>
    <contour>
      <point x="20" y="357" type="curve"/>
      <point x="202" y="357" type="line"/>
      <point x="202" y="467"/>
      <point x="227" y="507"/>
      <point x="278" y="527" type="curve"/>
      <point x="250" y="649" type="line"/>
      <point x="99" y="631"/>
      <point x="20" y="522"/>
    </contour>
    <component base="na.eth" xOffset="191"/>
  </outline>
</glyph>
<glyph name="xwi.eth" format="2">
  <advance width="828"/>
  <unicode hex="128A"/>
  <note>
uni128A
</note>
  <anchor x="414" y="715" name="top"/>
  <outline>
    <contour>
      <point x="787" y="91" type="curve" smooth="yes"/>
      <point x="823" y="91" type="line"/>
      <point x="774" y="287" type="line"/>
      <point x="572" y="287" type="line"/>
      <point x="572" y="167" type="line"/>
      <point x="682" y="167" type="line"/>
      <point x="704" y="111"/>
      <point x="742" y="91"/>
    </contour>
    <contour>
      <point x="458" y="256" type="line"/>
      <point x="637" y="256" type="line"/>
      <point x="637" y="376" type="line"/>
      <point x="458" y="376" type="line"/>
    </contour>
    <contour>
      <point x="572" y="167" type="line"/>
      <point x="713" y="167" type="line"/>
      <point x="713" y="465" type="line"/>
      <point x="572" y="465" type="line"/>
    </contour>
    <component base="xa.eth"/>
  </outline>
</glyph>
<glyph name="xwaa.eth" format="2">
  <advance width="715"/>
  <unicode hex="128B"/>
  <note>
uni128B
</note>
  <anchor x="355" y="715" name="top"/>
  <outline>
    <contour>
      <point x="358" y="127" type="line"/>
      <point x="538" y="127" type="line"/>
      <point x="538" y="533" type="line"/>
      <point x="497" y="533" type="line" smooth="yes"/>
      <point x="421" y="533"/>
      <point x="395" y="568"/>
      <point x="395" y="635" type="curve" smooth="yes"/>
      <point x="395" y="715" type="line"/>
      <point x="224" y="715" type="line"/>
      <point x="224" y="602" type="line" smooth="yes"/>
      <point x="224" y="507"/>
      <point x="272" y="446"/>
      <point x="358" y="426" type="curve"/>
    </contour>
    <contour>
      <point x="290" y="96" type="line"/>
      <point x="706" y="96" type="line"/>
      <point x="706" y="216" type="line"/>
      <point x="290" y="216" type="line"/>
    </contour>
    <contour>
      <point x="557" y="0" type="line"/>
      <point x="706" y="0" type="line"/>
      <point x="706" y="216" type="line"/>
      <point x="557" y="216" type="line"/>
    </contour>
    <component base="leftsingleflag" xOffset="43" yOffset="-206"/>
    <component base="leftsingleflag" yOffset="234"/>
  </outline>
</glyph>
<glyph name="xwee.eth" format="2">
  <advance width="785"/>
  <unicode hex="128C"/>
  <note>
uni128C
</note>
  <anchor x="391" y="715" name="top"/>
  <outline>
    <contour>
      <point x="314" y="0" type="line"/>
      <point x="450" y="0" type="line"/>
      <point x="450" y="120" type="line"/>
      <point x="314" y="120" type="line"/>
    </contour>
    <component base="xee.eth"/>
    <component base="leftsingleflag" xOffset="71" yOffset="-302"/>
  </outline>
</glyph>
<glyph name="xwe.eth" format="2">
  <advance width="857"/>
  <unicode hex="128D"/>
  <note>
uni128D
</note>
  <anchor x="428" y="715" name="top"/>
  <outline>
    <contour>
      <point x="578" y="215" type="line"/>
      <point x="717" y="215" type="line"/>
      <point x="717" y="446" type="line"/>
      <point x="578" y="446" type="line"/>
    </contour>
    <contour>
      <point x="445" y="215" type="line"/>
      <point x="624" y="215" type="line"/>
      <point x="624" y="335" type="line"/>
      <point x="445" y="335" type="line"/>
    </contour>
    <component base="xa.eth"/>
    <component base="rightsingleflag" xOffset="591" yOffset="-87"/>
  </outline>
</glyph>
<glyph name="na.eth" format="2">
  <advance width="434"/>
  <unicode hex="1290"/>
  <note>
uni1290
</note>
  <anchor x="197" y="715" name="top"/>
  <outline>
    <contour>
      <point x="174" y="0" type="line"/>
      <point x="354" y="0" type="line"/>
      <point x="354" y="533" type="line"/>
      <point x="313" y="533" type="line" smooth="yes"/>
      <point x="237" y="533"/>
      <point x="211" y="568"/>
      <point x="211" y="635" type="curve" smooth="yes"/>
      <point x="211" y="715" type="line"/>
      <point x="40" y="715" type="line"/>
      <point x="40" y="602" type="line" smooth="yes"/>
      <point x="40" y="507"/>
      <point x="88" y="446"/>
      <point x="174" y="426" type="curve"/>
    </contour>
  </outline>
</glyph>
<glyph name="naa.eth" format="2">
  <advance width="586"/>
  <unicode hex="1293"/>
  <note>
uni1293
</note>
  <anchor x="315" y="714" name="top"/>
  <outline>
    <contour>
      <point x="50" y="230" type="line"/>
      <point x="227" y="287" type="line"/>
      <point x="227" y="306" type="line" smooth="yes"/>
      <point x="227" y="490"/>
      <point x="256" y="594"/>
      <point x="420" y="594" type="curve" smooth="yes"/>
      <point x="440" y="594" type="line"/>
      <point x="462" y="534"/>
      <point x="505" y="518"/>
      <point x="545" y="518" type="curve" smooth="yes"/>
      <point x="581" y="518" type="line"/>
      <point x="532" y="714" type="line"/>
      <point x="379" y="714" type="line" smooth="yes"/>
      <point x="185" y="714"/>
      <point x="50" y="615"/>
      <point x="50" y="315" type="curve" smooth="yes"/>
    </contour>
    <contour>
      <point x="238" y="0" type="line"/>
      <point x="418" y="0" type="line"/>
      <point x="418" y="367" type="line"/>
      <point x="125" y="367" type="line"/>
      <point x="50" y="230" type="line"/>
      <point x="238" y="230" type="line"/>
    </contour>
  </outline>
</glyph>
<glyph name="nee.eth" format="2">
  <advance width="588"/>
  <unicode hex="1294"/>
  <note>
uni1294
</note>
  <anchor x="324" y="715" name="top"/>
  <outline>
    <contour>
      <point x="94" y="0" type="line"/>
      <point x="226" y="0" type="line"/>
      <point x="449" y="533" type="line"/>
      <point x="342" y="533" type="line" smooth="yes"/>
      <point x="266" y="533"/>
      <point x="240" y="568"/>
      <point x="240" y="635" type="curve" smooth="yes"/>
      <point x="240" y="715" type="line"/>
      <point x="69" y="715" type="line"/>
      <point x="69" y="602" type="line" smooth="yes"/>
      <point x="69" y="507"/>
      <point x="117" y="436"/>
      <point x="233" y="416" type="curve"/>
      <point x="94" y="86" type="line"/>
    </contour>
    <contour>
      <point x="259" y="118" type="line"/>
      <point x="304" y="226" type="line"/>
      <point x="338" y="226" type="line" smooth="yes"/>
      <point x="384" y="226"/>
      <point x="403" y="206"/>
      <point x="403" y="177" type="curve" smooth="yes"/>
      <point x="403" y="138"/>
      <point x="375" y="118"/>
      <point x="314" y="118" type="curve" smooth="yes"/>
    </contour>
    <contour>
      <point x="124" y="0" type="line"/>
      <point x="312" y="0" type="line" smooth="yes"/>
      <point x="499" y="0"/>
      <point x="580" y="73"/>
      <point x="580" y="177" type="curve" smooth="yes"/>
      <point x="580" y="287"/>
      <point x="511" y="342"/>
      <point x="353" y="342" type="curve" smooth="yes"/>
      <point x="272" y="342" type="line"/>
    </contour>
  </outline>
</glyph>
<glyph name="ne.eth" format="2">
  <advance width="647"/>
  <unicode hex="1295"/>
  <note>
uni1295
</note>
  <anchor x="314" y="714" name="top"/>
  <outline>
    <contour>
      <point x="207" y="0" type="line"/>
      <point x="395" y="0" type="line"/>
      <point x="623" y="505" type="line"/>
      <point x="430" y="505" type="line"/>
      <point x="430" y="510" type="line" smooth="yes"/>
      <point x="430" y="650"/>
      <point x="361" y="714"/>
      <point x="178" y="714" type="curve" smooth="yes"/>
      <point x="54" y="714" type="line"/>
      <point x="5" y="518" type="line"/>
      <point x="32" y="518" type="line" smooth="yes"/>
      <point x="97" y="518"/>
      <point x="124" y="543"/>
      <point x="146" y="594" type="curve"/>
      <point x="150" y="594" type="line" smooth="yes"/>
      <point x="202" y="594"/>
      <point x="250" y="589"/>
      <point x="250" y="491" type="curve" smooth="yes"/>
      <point x="250" y="362" type="line"/>
      <point x="376" y="362" type="line"/>
    </contour>
  </outline>
</glyph>
<glyph name="no.eth" format="2">
  <advance width="734"/>
  <unicode hex="1296"/>
  <note>
uni1296
</note>
  <anchor x="384" y="714" name="top"/>
  <outline>
    <contour>
      <point x="290" y="0" type="line"/>
      <point x="470" y="0" type="line"/>
      <point x="470" y="361" type="line"/>
      <point x="231" y="361" type="line"/>
      <point x="231" y="469"/>
      <point x="255" y="567"/>
      <point x="321" y="590" type="curve"/>
      <point x="511" y="714" type="line"/>
      <point x="431" y="714" type="line" smooth="yes"/>
      <point x="185" y="714"/>
      <point x="50" y="615"/>
      <point x="50" y="315" type="curve" smooth="yes"/>
      <point x="50" y="223" type="line"/>
      <point x="290" y="223" type="line"/>
    </contour>
    <component base="ballbig" xOffset="302" yOffset="263"/>
  </outline>
</glyph>
<glyph name="nya.eth" format="2">
  <advance width="597"/>
  <unicode hex="1298"/>
  <note>
uni1298
</note>
  <anchor x="284" y="779" name="top"/>
  <outline>
    <contour>
      <point x="342" y="0" type="line"/>
      <point x="522" y="0" type="line"/>
      <point x="522" y="440" type="line"/>
      <point x="481" y="440" type="line" smooth="yes"/>
      <point x="405" y="440"/>
      <point x="379" y="475"/>
      <point x="379" y="542" type="curve" smooth="yes"/>
      <point x="379" y="622" type="line"/>
      <point x="208" y="622" type="line"/>
      <point x="208" y="509" type="line" smooth="yes"/>
      <point x="208" y="414"/>
      <point x="256" y="353"/>
      <point x="342" y="333" type="curve"/>
    </contour>
    <component base="bone" yOffset="-59"/>
  </outline>
</glyph>
<glyph name="nyaa.eth" format="2">
  <advance width="635"/>
  <unicode hex="129B"/>
  <note>
uni129B
</note>
  <anchor x="317" y="822" name="top"/>
  <outline>
    <contour>
      <point x="32" y="168" type="line"/>
      <point x="208" y="226" type="line" smooth="yes"/>
      <point x="208" y="291" type="line" smooth="yes"/>
      <point x="208" y="392"/>
      <point x="264" y="451"/>
      <point x="386" y="451" type="curve" smooth="yes"/>
      <point x="396" y="451" type="line"/>
      <point x="422" y="394"/>
      <point x="450" y="375"/>
      <point x="515" y="375" type="curve" smooth="yes"/>
      <point x="537" y="375" type="line"/>
      <point x="488" y="571" type="line"/>
      <point x="345" y="571" type="line" smooth="yes"/>
      <point x="167" y="571"/>
      <point x="32" y="482"/>
      <point x="32" y="262" type="curve" smooth="yes"/>
    </contour>
    <contour>
      <point x="220" y="0" type="line"/>
      <point x="400" y="0" type="line"/>
      <point x="400" y="306" type="line"/>
      <point x="107" y="306" type="line"/>
      <point x="32" y="168" type="line"/>
      <point x="220" y="168" type="line"/>
    </contour>
    <contour>
      <point x="226" y="526" type="line"/>
      <point x="395" y="526" type="line"/>
      <point x="395" y="681" type="line"/>
      <point x="226" y="681" type="line"/>
    </contour>
    <component base="bonemiddle" yOffset="-16"/>
  </outline>
</glyph>
<glyph name="nyee.eth" format="2">
  <advance width="760"/>
  <unicode hex="129C"/>
  <note>
uni129C
</note>
  <anchor x="378" y="788" name="top"/>
  <outline>
    <contour>
      <point x="266" y="0" type="line"/>
      <point x="398" y="0" type="line"/>
      <point x="603" y="490" type="line"/>
      <point x="414" y="490" type="line"/>
      <point x="414" y="649" type="line"/>
      <point x="234" y="649" type="line"/>
      <point x="234" y="347" type="line"/>
      <point x="376" y="347" type="line"/>
      <point x="266" y="86" type="line"/>
    </contour>
    <contour>
      <point x="431" y="118" type="line"/>
      <point x="476" y="226" type="line"/>
      <point x="510" y="226" type="line" smooth="yes"/>
      <point x="556" y="226"/>
      <point x="575" y="206"/>
      <point x="575" y="177" type="curve" smooth="yes"/>
      <point x="575" y="138"/>
      <point x="547" y="118"/>
      <point x="486" y="118" type="curve" smooth="yes"/>
    </contour>
    <contour>
      <point x="296" y="0" type="line"/>
      <point x="484" y="0" type="line" smooth="yes"/>
      <point x="671" y="0"/>
      <point x="752" y="73"/>
      <point x="752" y="177" type="curve" smooth="yes"/>
      <point x="752" y="287"/>
      <point x="683" y="342"/>
      <point x="525" y="342" type="curve" smooth="yes"/>
      <point x="444" y="342" type="line"/>
    </contour>
    <component base="bonemiddle" yOffset="-50"/>
  </outline>
</glyph>
<glyph name="nye.eth" format="2">
  <advance width="638"/>
  <unicode hex="129D"/>
  <note>
uni129D
</note>
  <anchor x="311" y="790" name="top"/>
  <outline>
    <contour>
      <point x="260" y="0" type="line"/>
      <point x="448" y="0" type="line"/>
      <point x="618" y="384" type="line"/>
      <point x="425" y="384" type="line"/>
      <point x="425" y="388" type="line" smooth="yes"/>
      <point x="425" y="449"/>
      <point x="386" y="544"/>
      <point x="223" y="544" type="curve" smooth="yes"/>
      <point x="66" y="544" type="line"/>
      <point x="16" y="348" type="line"/>
      <point x="52" y="348" type="line" smooth="yes"/>
      <point x="94" y="348"/>
      <point x="136" y="367"/>
      <point x="157" y="424" type="curve"/>
      <point x="161" y="424" type="line" smooth="yes"/>
      <point x="200" y="424"/>
      <point x="245" y="408"/>
      <point x="245" y="337" type="curve" smooth="yes"/>
      <point x="245" y="241" type="line"/>
      <point x="371" y="241" type="line"/>
    </contour>
    <contour>
      <point x="180" y="479" type="line"/>
      <point x="360" y="479" type="line"/>
      <point x="360" y="670" type="line"/>
      <point x="180" y="670" type="line"/>
    </contour>
    <component base="footshort" xScale="-1" yScale="-1" xOffset="546" yOffset="714"/>
  </outline>
</glyph>
<glyph name="nyo.eth" format="2">
  <advance width="720"/>
  <unicode hex="129E"/>
  <note>
uni129E
</note>
  <anchor x="368" y="834" name="top"/>
  <outline>
    <contour>
      <point x="262" y="0" type="line"/>
      <point x="442" y="0" type="line"/>
      <point x="442" y="298" type="line"/>
      <point x="222" y="298" type="line"/>
      <point x="222" y="402"/>
      <point x="268" y="460"/>
      <point x="375" y="460" type="curve"/>
      <point x="536" y="571" type="line"/>
      <point x="371" y="571" type="line" smooth="yes"/>
      <point x="177" y="571"/>
      <point x="42" y="502"/>
      <point x="42" y="237" type="curve" smooth="yes"/>
      <point x="42" y="185" type="line"/>
      <point x="262" y="185" type="line"/>
    </contour>
    <contour>
      <point x="535" y="304" type="curve" smooth="yes"/>
      <point x="651" y="304"/>
      <point x="705" y="361"/>
      <point x="705" y="438" type="curve" smooth="yes"/>
      <point x="705" y="515"/>
      <point x="651" y="571"/>
      <point x="535" y="571" type="curve" smooth="yes"/>
      <point x="419" y="571"/>
      <point x="364" y="515"/>
      <point x="364" y="438" type="curve" smooth="yes"/>
      <point x="364" y="361"/>
      <point x="419" y="304"/>
    </contour>
    <contour>
      <point x="254" y="514" type="line"/>
      <point x="434" y="514" type="line"/>
      <point x="434" y="674" type="line"/>
      <point x="254" y="674" type="line"/>
    </contour>
    <contour>
      <point x="535" y="389" type="curve" smooth="yes"/>
      <point x="504" y="389"/>
      <point x="488" y="407"/>
      <point x="488" y="438" type="curve" smooth="yes"/>
      <point x="488" y="468"/>
      <point x="504" y="486"/>
      <point x="535" y="486" type="curve" smooth="yes"/>
      <point x="566" y="486"/>
      <point x="582" y="468"/>
      <point x="582" y="438" type="curve" smooth="yes"/>
      <point x="582" y="407"/>
      <point x="565" y="389"/>
    </contour>
    <component base="bonemiddle" xOffset="27" yOffset="-4"/>
  </outline>
</glyph>
<glyph name="aGlottal.eth" format="2">
  <advance width="617"/>
  <unicode hex="12A0"/>
  <note>
uni12A0
</note>
  <anchor x="318" y="715" name="top"/>
  <outline>
    <contour>
      <point x="40" y="0" type="line"/>
      <point x="226" y="0" type="line"/>
      <point x="468" y="533" type="line"/>
      <point x="342" y="533" type="line" smooth="yes"/>
      <point x="266" y="533"/>
      <point x="240" y="568"/>
      <point x="240" y="635" type="curve" smooth="yes"/>
      <point x="240" y="715" type="line"/>
      <point x="69" y="715" type="line"/>
      <point x="69" y="602" type="line" smooth="yes"/>
      <point x="69" y="507"/>
      <point x="117" y="436"/>
      <point x="233" y="416" type="curve"/>
    </contour>
    <contour>
      <point x="415" y="0" type="curve"/>
      <point x="597" y="0" type="line"/>
      <point x="597" y="212"/>
      <point x="533" y="342"/>
      <point x="383" y="385" type="curve"/>
      <point x="320" y="258" type="line"/>
      <point x="383" y="227"/>
      <point x="415" y="170"/>
    </contour>
  </outline>
</glyph>
<glyph name="aaGlottal.eth" format="2">
  <advance width="588"/>
  <unicode hex="12A3"/>
  <note>
uni12A3
</note>
  <anchor x="304" y="715" name="top"/>
  <outline>
    <contour>
      <point x="78" y="145" type="line"/>
      <point x="263" y="145" type="line"/>
      <point x="439" y="533" type="line"/>
      <point x="313" y="533" type="line" smooth="yes"/>
      <point x="237" y="533"/>
      <point x="211" y="568"/>
      <point x="211" y="635" type="curve" smooth="yes"/>
      <point x="211" y="715" type="line"/>
      <point x="40" y="715" type="line"/>
      <point x="40" y="602" type="line" smooth="yes"/>
      <point x="40" y="507"/>
      <point x="88" y="436"/>
      <point x="204" y="416" type="curve"/>
    </contour>
    <contour>
      <point x="386" y="0" type="curve"/>
      <point x="568" y="0" type="line"/>
      <point x="568" y="212"/>
      <point x="504" y="342"/>
      <point x="354" y="385" type="curve"/>
      <point x="291" y="258" type="line"/>
      <point x="354" y="227"/>
      <point x="386" y="170"/>
    </contour>
  </outline>
</glyph>
<glyph name="eeGlottal.eth" format="2">
  <advance width="859"/>
  <unicode hex="12A4"/>
  <note>
uni12A4
</note>
  <anchor x="445" y="715" name="top"/>
  <outline>
    <contour>
      <point x="485" y="0" type="line"/>
      <point x="583" y="0" type="line" smooth="yes"/>
      <point x="770" y="0"/>
      <point x="851" y="73"/>
      <point x="851" y="177" type="curve" smooth="yes"/>
      <point x="851" y="287"/>
      <point x="782" y="342"/>
      <point x="624" y="342" type="curve" smooth="yes"/>
      <point x="395" y="342" type="line"/>
    </contour>
    <contour>
      <point x="565" y="118" type="line"/>
      <point x="533" y="226" type="line"/>
      <point x="609" y="226" type="line" smooth="yes"/>
      <point x="655" y="226"/>
      <point x="674" y="206"/>
      <point x="674" y="177" type="curve" smooth="yes"/>
      <point x="674" y="138"/>
      <point x="646" y="118"/>
      <point x="585" y="118" type="curve" smooth="yes"/>
    </contour>
    <component base="aGlottal.eth"/>
  </outline>
</glyph>
<glyph name="eGlottal.eth" format="2">
  <advance width="680"/>
  <unicode hex="12A5"/>
  <note>
uni12A5
</note>
  <anchor x="350" y="715" name="top"/>
  <outline>
    <contour>
      <point x="124" y="0" type="line"/>
      <point x="309" y="0" type="line"/>
      <point x="413" y="224" type="line"/>
      <point x="456" y="195"/>
      <point x="479" y="136"/>
      <point x="479" y="0" type="curve"/>
      <point x="660" y="0" type="line"/>
      <point x="660" y="203"/>
      <point x="605" y="301"/>
      <point x="474" y="354" type="curve"/>
      <point x="544" y="506" type="line"/>
      <point x="387" y="506" type="line"/>
      <point x="426" y="596" type="line"/>
      <point x="316" y="596" type="line" smooth="yes"/>
      <point x="243" y="596"/>
      <point x="211" y="631"/>
      <point x="211" y="695" type="curve" smooth="yes"/>
      <point x="211" y="715" type="line"/>
      <point x="40" y="715" type="line"/>
      <point x="40" y="677" type="line" smooth="yes"/>
      <point x="40" y="562"/>
      <point x="106" y="499"/>
      <point x="200" y="486" type="curve"/>
      <point x="150" y="368" type="line"/>
      <point x="293" y="368" type="line"/>
    </contour>
  </outline>
</glyph>
<glyph name="oGlottal.eth" format="2">
  <advance width="606"/>
  <unicode hex="12A6"/>
  <note>
uni12A6
</note>
  <anchor x="313" y="715" name="top"/>
  <outline>
    <contour>
      <point x="40" y="0" type="line"/>
      <point x="226" y="0" type="line"/>
      <point x="468" y="533" type="line"/>
      <point x="342" y="533" type="line" smooth="yes"/>
      <point x="266" y="533"/>
      <point x="240" y="568"/>
      <point x="240" y="635" type="curve" smooth="yes"/>
      <point x="240" y="715" type="line"/>
      <point x="69" y="715" type="line"/>
      <point x="69" y="602" type="line" smooth="yes"/>
      <point x="69" y="507"/>
      <point x="117" y="436"/>
      <point x="233" y="416" type="curve"/>
    </contour>
    <contour>
      <point x="404" y="137" type="curve"/>
      <point x="586" y="137" type="line"/>
      <point x="562" y="269"/>
      <point x="497" y="352"/>
      <point x="383" y="385" type="curve"/>
      <point x="320" y="258" type="line"/>
      <point x="362" y="238"/>
      <point x="390" y="206"/>
    </contour>
  </outline>
</glyph>
<glyph name="waGlottal.eth" format="2">
  <advance width="713"/>
  <unicode hex="12A7"/>
  <note>
uni12A7
</note>
  <anchor x="349" y="779" name="top"/>
  <outline>
    <contour>
      <point x="126" y="0" type="line"/>
      <point x="310" y="0" type="line"/>
      <point x="430" y="262" type="line"/>
      <point x="475" y="242"/>
      <point x="511" y="187"/>
      <point x="511" y="0" type="curve"/>
      <point x="693" y="0" type="line"/>
      <point x="693" y="232"/>
      <point x="628" y="334"/>
      <point x="489" y="388" type="curve"/>
      <point x="520" y="456" type="line"/>
      <point x="367" y="456" type="line"/>
      <point x="367" y="632" type="line"/>
      <point x="214" y="632" type="line"/>
      <point x="214" y="376" type="line"/>
      <point x="295" y="376" type="line"/>
    </contour>
    <component base="bone" yOffset="-59"/>
  </outline>
</glyph>
<glyph name="ka.eth" format="2">
	<advance width="729"/>
	<unicode hex="12A8"/>
	<anchor x="342" y="760" name="top"/>
	<note>
		uni12A8
	</note>
	<outline>
		<contour>
			<point x="162" y="447" type="curve"/>
			<point x="258" y="563" type="line"/>
			<point x="224" y="580"/>
			<point x="206" y="618"/>
			<point x="206" y="681" type="curve" smooth="yes"/>
			<point x="206" y="760" type="line"/>
			<point x="30" y="760" type="line"/>
			<point x="30" y="679" type="line" smooth="yes"/>
			<point x="30" y="561"/>
			<point x="71" y="480"/>
		</contour>
		<component base="shortnarch" xOffset="61"/>
	</outline>
</glyph>
<glyph name="kaa.eth" format="2">
  <advance width="701"/>
  <unicode hex="12AB"/>
  <note>
uni12AB
</note>
  <anchor x="328" y="760" name="top"/>
  <outline>
    <contour>
      <point x="163" y="447" type="curve"/>
      <point x="259" y="563" type="line"/>
      <point x="225" y="580"/>
      <point x="208" y="618"/>
      <point x="208" y="681" type="curve" smooth="yes"/>
      <point x="208" y="760" type="line"/>
      <point x="30" y="760" type="line"/>
      <point x="30" y="679" type="line" smooth="yes"/>
      <point x="30" y="561"/>
      <point x="72" y="480"/>
    </contour>
    <component base="baashort" xOffset="42"/>
  </outline>
</glyph>
<glyph name="ke.eth" format="2">
  <advance width="728"/>
  <unicode hex="12AD"/>
  <note>
uni12AD
</note>
  <anchor x="341" y="760" name="top"/>
  <outline>
    <contour>
      <point x="473" y="0" type="line"/>
      <point x="653" y="0" type="line"/>
      <point x="653" y="349" type="line" smooth="yes"/>
      <point x="653" y="505"/>
      <point x="565" y="592"/>
      <point x="397" y="592" type="curve" smooth="yes"/>
      <point x="223" y="592"/>
      <point x="135" y="496"/>
      <point x="135" y="351" type="curve" smooth="yes"/>
      <point x="135" y="322" type="line"/>
      <point x="315" y="322" type="line"/>
      <point x="315" y="331" type="line" smooth="yes"/>
      <point x="315" y="404"/>
      <point x="340" y="435"/>
      <point x="396" y="435" type="curve" smooth="yes"/>
      <point x="448" y="435"/>
      <point x="473" y="405"/>
      <point x="473" y="332" type="curve" smooth="yes"/>
    </contour>
    <contour>
      <point x="135" y="0" type="line"/>
      <point x="315" y="0" type="line"/>
      <point x="315" y="128" type="line" smooth="yes"/>
      <point x="315" y="191"/>
      <point x="334" y="207"/>
      <point x="382" y="207" type="curve"/>
      <point x="382" y="345" type="line"/>
      <point x="190" y="345"/>
      <point x="135" y="263"/>
      <point x="135" y="141" type="curve" smooth="yes"/>
    </contour>
    <contour>
      <point x="163" y="447" type="curve"/>
      <point x="259" y="563" type="line"/>
      <point x="225" y="580"/>
      <point x="208" y="618"/>
      <point x="208" y="681" type="curve" smooth="yes"/>
      <point x="208" y="760" type="line"/>
      <point x="30" y="760" type="line"/>
      <point x="30" y="679" type="line" smooth="yes"/>
      <point x="30" y="561"/>
      <point x="72" y="480"/>
    </contour>
  </outline>
</glyph>
<glyph name="ko.eth" format="2">
  <advance width="728"/>
  <unicode hex="12AE"/>
  <note>
uni12AE
</note>
  <anchor x="345" y="760" name="top"/>
  <outline>
    <contour>
      <point x="163" y="447" type="curve"/>
      <point x="259" y="563" type="line"/>
      <point x="225" y="580"/>
      <point x="208" y="618"/>
      <point x="208" y="681" type="curve" smooth="yes"/>
      <point x="208" y="760" type="line"/>
      <point x="30" y="760" type="line"/>
      <point x="30" y="679" type="line" smooth="yes"/>
      <point x="30" y="561"/>
      <point x="72" y="480"/>
    </contour>
    <component base="baashort" xScale="-1" xOffset="726"/>
  </outline>
</glyph>
<glyph name="kwi.eth" format="2">
  <advance width="968"/>
  <unicode hex="12B2"/>
  <note>
uni12B2
</note>
  <anchor x="499" y="760" name="top"/>
  <outline>
    <contour>
      <point x="927" y="100" type="curve" smooth="yes"/>
      <point x="963" y="100" type="line"/>
      <point x="914" y="296" type="line"/>
      <point x="712" y="296" type="line"/>
      <point x="712" y="176" type="line"/>
      <point x="822" y="176" type="line"/>
      <point x="844" y="120"/>
      <point x="882" y="100"/>
    </contour>
    <contour>
      <point x="604" y="265" type="line"/>
      <point x="777" y="265" type="line"/>
      <point x="777" y="385" type="line"/>
      <point x="604" y="385" type="line"/>
    </contour>
    <contour>
      <point x="712" y="176" type="line"/>
      <point x="853" y="176" type="line"/>
      <point x="853" y="474" type="line"/>
      <point x="712" y="474" type="line"/>
    </contour>
    <component base="ka.eth"/>
  </outline>
</glyph>
<glyph name="kwaa.eth" format="2">
  <advance width="805"/>
  <unicode hex="12B3"/>
  <note>
uni12B3
</note>
  <anchor x="405" y="760" name="top"/>
  <outline>
    <contour>
      <point x="446" y="139" type="line"/>
      <point x="626" y="139" type="line"/>
      <point x="626" y="349" type="line" smooth="yes"/>
      <point x="626" y="505"/>
      <point x="538" y="592"/>
      <point x="370" y="592" type="curve" smooth="yes"/>
      <point x="196" y="592"/>
      <point x="108" y="496"/>
      <point x="108" y="351" type="curve" smooth="yes"/>
      <point x="108" y="292" type="line"/>
      <point x="288" y="292" type="line"/>
      <point x="288" y="331" type="line" smooth="yes"/>
      <point x="288" y="404"/>
      <point x="313" y="435"/>
      <point x="369" y="435" type="curve" smooth="yes"/>
      <point x="421" y="435"/>
      <point x="446" y="405"/>
      <point x="446" y="332" type="curve" smooth="yes"/>
    </contour>
    <contour>
      <point x="378" y="93" type="line"/>
      <point x="647" y="93" type="line"/>
      <point x="647" y="213" type="line"/>
      <point x="378" y="213" type="line"/>
    </contour>
    <contour>
      <point x="163" y="447" type="curve"/>
      <point x="259" y="563" type="line"/>
      <point x="225" y="580"/>
      <point x="208" y="618"/>
      <point x="208" y="681" type="curve" smooth="yes"/>
      <point x="208" y="760" type="line"/>
      <point x="30" y="760" type="line"/>
      <point x="30" y="679" type="line" smooth="yes"/>
      <point x="30" y="561"/>
      <point x="72" y="480"/>
    </contour>
    <contour>
      <point x="611" y="0" type="line"/>
      <point x="780" y="0" type="line"/>
      <point x="780" y="213" type="line"/>
      <point x="611" y="213" type="line"/>
    </contour>
    <component base="leftsingleflag" xOffset="140" yOffset="-209"/>
  </outline>
</glyph>
<glyph name="kwee.eth" format="2">
  <advance width="910"/>
  <unicode hex="12B4"/>
  <note>
uni12B4
</note>
  <anchor x="466" y="760" name="top"/>
  <outline>
    <contour>
      <point x="348" y="0" type="line"/>
      <point x="480" y="0" type="line"/>
      <point x="480" y="120" type="line"/>
      <point x="348" y="120" type="line"/>
    </contour>
    <component base="kaa.eth"/>
    <component base="baselinebowl" xOffset="426"/>
    <component base="leftsingleflag" xOffset="124" yOffset="-302"/>
  </outline>
</glyph>
<glyph name="kwe.eth" format="2">
  <advance width="977"/>
  <unicode hex="12B5"/>
  <note>
uni12B5
</note>
  <anchor x="501" y="760" name="top"/>
  <outline>
    <contour>
      <point x="708" y="280" type="line"/>
      <point x="847" y="280" type="line"/>
      <point x="847" y="562" type="line"/>
      <point x="708" y="562" type="line"/>
    </contour>
    <contour>
      <point x="575" y="280" type="line"/>
      <point x="754" y="280" type="line"/>
      <point x="754" y="400" type="line"/>
      <point x="575" y="400" type="line"/>
    </contour>
    <component base="ka.eth"/>
    <component base="rightsingleflag" xOffset="711" yOffset="-22"/>
  </outline>
</glyph>
<glyph name="kxa.eth" format="2">
  <advance width="896"/>
  <unicode hex="12B8"/>
  <note>
uni12B8
</note>
  <anchor x="413" y="838" name="top"/>
  <outline>
    <contour>
      <point x="303" y="0" type="line"/>
      <point x="483" y="0" type="line"/>
      <point x="483" y="291" type="line" smooth="yes"/>
      <point x="483" y="364"/>
      <point x="508" y="395"/>
      <point x="564" y="395" type="curve" smooth="yes"/>
      <point x="616" y="395"/>
      <point x="641" y="365"/>
      <point x="641" y="292" type="curve" smooth="yes"/>
      <point x="641" y="0" type="line"/>
      <point x="821" y="0" type="line"/>
      <point x="821" y="309" type="line" smooth="yes"/>
      <point x="821" y="465"/>
      <point x="733" y="552"/>
      <point x="565" y="552" type="curve" smooth="yes"/>
      <point x="391" y="552"/>
      <point x="303" y="456"/>
      <point x="303" y="311" type="curve" smooth="yes"/>
    </contour>
    <contour>
      <point x="329" y="407" type="curve"/>
      <point x="425" y="523" type="line"/>
      <point x="391" y="540"/>
      <point x="373" y="578"/>
      <point x="373" y="641" type="curve" smooth="yes"/>
      <point x="373" y="720" type="line"/>
      <point x="197" y="720" type="line"/>
      <point x="197" y="639" type="line" smooth="yes"/>
      <point x="197" y="521"/>
      <point x="238" y="440"/>
    </contour>
    <component base="bone"/>
  </outline>
</glyph>
<glyph name="kxaa.eth" format="2">
  <advance width="897"/>
  <unicode hex="12BB"/>
  <note>
uni12BB
</note>
  <anchor x="413" y="838" name="top"/>
  <outline>
    <contour>
      <point x="642" y="0" type="line"/>
      <point x="822" y="0" type="line"/>
      <point x="822" y="309" type="line" smooth="yes"/>
      <point x="822" y="465"/>
      <point x="734" y="552"/>
      <point x="566" y="552" type="curve" smooth="yes"/>
      <point x="392" y="552"/>
      <point x="304" y="456"/>
      <point x="304" y="311" type="curve" smooth="yes"/>
      <point x="304" y="200" type="line"/>
      <point x="484" y="200" type="line"/>
      <point x="484" y="291" type="line" smooth="yes"/>
      <point x="484" y="364"/>
      <point x="509" y="395"/>
      <point x="565" y="395" type="curve" smooth="yes"/>
      <point x="617" y="395"/>
      <point x="642" y="365"/>
      <point x="642" y="292" type="curve" smooth="yes"/>
    </contour>
    <contour>
      <point x="330" y="407" type="curve"/>
      <point x="426" y="523" type="line"/>
      <point x="392" y="540"/>
      <point x="374" y="578"/>
      <point x="374" y="641" type="curve" smooth="yes"/>
      <point x="374" y="720" type="line"/>
      <point x="198" y="720" type="line"/>
      <point x="198" y="639" type="line" smooth="yes"/>
      <point x="198" y="521"/>
      <point x="239" y="440"/>
    </contour>
    <component base="bone"/>
  </outline>
</glyph>
<glyph name="kxe.eth" format="2">
  <advance width="898"/>
  <unicode hex="12BD"/>
  <note>
uni12BD
</note>
  <anchor x="414" y="838" name="top"/>
  <outline>
    <contour>
      <point x="643" y="0" type="line"/>
      <point x="823" y="0" type="line"/>
      <point x="823" y="289" type="line" smooth="yes"/>
      <point x="823" y="445"/>
      <point x="735" y="532"/>
      <point x="567" y="532" type="curve" smooth="yes"/>
      <point x="393" y="532"/>
      <point x="305" y="436"/>
      <point x="305" y="291" type="curve" smooth="yes"/>
      <point x="305" y="262" type="line"/>
      <point x="485" y="262" type="line"/>
      <point x="485" y="271" type="line" smooth="yes"/>
      <point x="485" y="344"/>
      <point x="510" y="375"/>
      <point x="566" y="375" type="curve" smooth="yes"/>
      <point x="618" y="375"/>
      <point x="643" y="345"/>
      <point x="643" y="272" type="curve" smooth="yes"/>
    </contour>
    <contour>
      <point x="305" y="0" type="line"/>
      <point x="485" y="0" type="line"/>
      <point x="485" y="68" type="line" smooth="yes"/>
      <point x="485" y="131"/>
      <point x="504" y="147"/>
      <point x="552" y="147" type="curve"/>
      <point x="552" y="285" type="line"/>
      <point x="360" y="285"/>
      <point x="305" y="203"/>
      <point x="305" y="81" type="curve" smooth="yes"/>
    </contour>
    <contour>
      <point x="333" y="387" type="curve"/>
      <point x="429" y="503" type="line"/>
      <point x="395" y="520"/>
      <point x="378" y="558"/>
      <point x="378" y="621" type="curve" smooth="yes"/>
      <point x="378" y="700" type="line"/>
      <point x="200" y="700" type="line"/>
      <point x="200" y="619" type="line" smooth="yes"/>
      <point x="200" y="501"/>
      <point x="242" y="420"/>
    </contour>
    <component base="bone"/>
  </outline>
</glyph>
<glyph name="kxo.eth" format="2">
  <advance width="893"/>
  <unicode hex="12BE"/>
  <note>
uni12BE
</note>
  <anchor x="416" y="838" name="top"/>
  <outline>
    <contour>
      <point x="309" y="0" type="line"/>
      <point x="489" y="0" type="line"/>
      <point x="489" y="252" type="line" smooth="yes"/>
      <point x="489" y="325"/>
      <point x="514" y="355"/>
      <point x="566" y="355" type="curve" smooth="yes"/>
      <point x="622" y="355"/>
      <point x="647" y="324"/>
      <point x="647" y="251" type="curve" smooth="yes"/>
      <point x="647" y="157" type="line"/>
      <point x="827" y="157" type="line"/>
      <point x="827" y="271" type="line" smooth="yes"/>
      <point x="827" y="416"/>
      <point x="739" y="512"/>
      <point x="565" y="512" type="curve" smooth="yes"/>
      <point x="397" y="512"/>
      <point x="309" y="425"/>
      <point x="309" y="269" type="curve" smooth="yes"/>
    </contour>
    <contour>
      <point x="330" y="367" type="curve"/>
      <point x="426" y="483" type="line"/>
      <point x="392" y="500"/>
      <point x="375" y="538"/>
      <point x="375" y="601" type="curve" smooth="yes"/>
      <point x="375" y="760" type="line"/>
      <point x="197" y="760" type="line"/>
      <point x="197" y="599" type="line" smooth="yes"/>
      <point x="197" y="481"/>
      <point x="239" y="400"/>
    </contour>
    <component base="bone"/>
  </outline>
</glyph>
<glyph name="kxwi.eth" format="2">
  <advance width="1158"/>
  <unicode hex="12C2"/>
  <note>
uni12C2
</note>
  <anchor x="579" y="838" name="top"/>
  <outline>
    <contour>
      <point x="1117" y="79" type="curve" smooth="yes"/>
      <point x="1153" y="79" type="line"/>
      <point x="1104" y="275" type="line"/>
      <point x="902" y="275" type="line"/>
      <point x="902" y="155" type="line"/>
      <point x="1012" y="155" type="line"/>
      <point x="1034" y="99"/>
      <point x="1072" y="79"/>
    </contour>
    <contour>
      <point x="788" y="244" type="line"/>
      <point x="967" y="244" type="line"/>
      <point x="967" y="364" type="line"/>
      <point x="788" y="364" type="line"/>
    </contour>
    <contour>
      <point x="902" y="155" type="line"/>
      <point x="1043" y="155" type="line"/>
      <point x="1043" y="453" type="line"/>
      <point x="902" y="453" type="line"/>
    </contour>
    <component base="kxa.eth"/>
  </outline>
</glyph>
<glyph name="kxwaa.eth" format="2">
  <advance width="936"/>
  <unicode hex="12C3"/>
  <note>
uni12C3
</note>
  <anchor x="468" y="849" name="top"/>
  <outline>
    <contour>
      <point x="631" y="0" type="line"/>
      <point x="811" y="0" type="line"/>
      <point x="811" y="309" type="line" smooth="yes"/>
      <point x="811" y="465"/>
      <point x="723" y="552"/>
      <point x="555" y="552" type="curve" smooth="yes"/>
      <point x="381" y="552"/>
      <point x="293" y="456"/>
      <point x="293" y="311" type="curve" smooth="yes"/>
      <point x="293" y="200" type="line"/>
      <point x="473" y="200" type="line"/>
      <point x="473" y="291" type="line" smooth="yes"/>
      <point x="473" y="364"/>
      <point x="498" y="395"/>
      <point x="554" y="395" type="curve" smooth="yes"/>
      <point x="606" y="395"/>
      <point x="631" y="365"/>
      <point x="631" y="292" type="curve" smooth="yes"/>
    </contour>
    <contour>
      <point x="319" y="407" type="curve"/>
      <point x="415" y="523" type="line"/>
      <point x="381" y="540"/>
      <point x="363" y="578"/>
      <point x="363" y="641" type="curve" smooth="yes"/>
      <point x="363" y="720" type="line"/>
      <point x="187" y="720" type="line"/>
      <point x="187" y="639" type="line" smooth="yes"/>
      <point x="187" y="521"/>
      <point x="228" y="440"/>
    </contour>
    <component base="footright" xOffset="317"/>
    <component base="footshort" xScale="-1" yScale="-1" xOffset="546" yOffset="773"/>
  </outline>
</glyph>
<glyph name="kxwee.eth" format="2">
  <advance width="1106"/>
  <unicode hex="12C4"/>
  <note>
uni12C4
</note>
  <anchor x="551" y="838" name="top"/>
  <outline>
    <contour>
      <point x="576" y="0" type="line"/>
      <point x="688" y="0" type="line"/>
      <point x="688" y="120" type="line"/>
      <point x="576" y="120" type="line"/>
    </contour>
    <component base="baselinebowl" xOffset="622"/>
    <component base="leftsingleflag" xOffset="361" yOffset="-302"/>
    <component base="kxaa.eth"/>
  </outline>
</glyph>
<glyph name="kxwe.eth" format="2">
  <advance width="1141"/>
  <unicode hex="12C5"/>
  <note>
uni12C5
</note>
  <anchor x="570" y="838" name="top"/>
  <outline>
    <contour>
      <point x="862" y="275" type="line"/>
      <point x="1001" y="275" type="line"/>
      <point x="1001" y="546" type="line"/>
      <point x="862" y="546" type="line"/>
    </contour>
    <contour>
      <point x="729" y="275" type="line"/>
      <point x="908" y="275" type="line"/>
      <point x="908" y="395" type="line"/>
      <point x="729" y="395" type="line"/>
    </contour>
    <component base="kxa.eth"/>
    <component base="rightsingleflag" xOffset="875" yOffset="-27"/>
  </outline>
</glyph>
<glyph name="wa.eth" format="2">
  <advance width="828"/>
  <unicode hex="12C8"/>
  <note>
uni12C8
</note>
  <anchor x="414" y="714" name="top"/>
  <outline>
    <contour>
      <point x="283" y="-10" type="curve" smooth="yes"/>
      <point x="365" y="-10"/>
      <point x="426" y="26"/>
      <point x="466" y="73" type="curve"/>
      <point x="529" y="73" type="line" smooth="yes"/>
      <point x="697" y="73"/>
      <point x="788" y="182"/>
      <point x="788" y="403" type="curve" smooth="yes"/>
      <point x="788" y="615"/>
      <point x="703" y="714"/>
      <point x="544" y="714" type="curve" smooth="yes"/>
      <point x="338" y="714" type="line" smooth="yes"/>
      <point x="147" y="714"/>
      <point x="40" y="548"/>
      <point x="40" y="315" type="curve" smooth="yes"/>
      <point x="40" y="90"/>
      <point x="119" y="-10"/>
    </contour>
    <contour>
      <point x="289" y="127" type="curve" smooth="yes"/>
      <point x="236" y="127"/>
      <point x="218" y="184"/>
      <point x="218" y="320" type="curve" smooth="yes"/>
      <point x="218" y="481"/>
      <point x="264" y="579"/>
      <point x="333" y="579" type="curve" smooth="yes"/>
      <point x="341" y="579" type="line"/>
      <point x="341" y="155" type="line"/>
      <point x="329" y="141"/>
      <point x="313" y="127"/>
    </contour>
    <contour>
      <point x="521" y="209" type="line"/>
      <point x="521" y="579" type="line"/>
      <point x="532" y="579" type="line" smooth="yes"/>
      <point x="587" y="579"/>
      <point x="611" y="533"/>
      <point x="611" y="403" type="curve" smooth="yes"/>
      <point x="611" y="264"/>
      <point x="583" y="209"/>
      <point x="532" y="209" type="curve" smooth="yes"/>
    </contour>
  </outline>
</glyph>
<glyph name="wu.eth" format="2">
  <advance width="984"/>
  <unicode hex="12C9"/>
  <note>
uni12C9
</note>
  <anchor x="509" y="714" name="top"/>
  <outline>
    <contour>
      <point x="483" y="73" type="line"/>
      <point x="814" y="73" type="line"/>
      <point x="814" y="193" type="line"/>
      <point x="483" y="193" type="line"/>
    </contour>
    <component base="wa.eth"/>
    <component base="rightdoubleflag" xOffset="718" yOffset="73"/>
  </outline>
</glyph>
<glyph name="wo.eth" format="2">
  <advance width="793"/>
  <unicode hex="12CE"/>
  <note>
uni12CB
</note>
  <anchor x="395" y="714" name="top"/>
  <outline>
    <contour>
      <point x="233" y="239" type="curve" smooth="yes"/>
      <point x="338" y="239"/>
      <point x="397" y="280"/>
      <point x="437" y="335" type="curve"/>
      <point x="571" y="335" type="line" smooth="yes"/>
      <point x="709" y="335"/>
      <point x="771" y="426"/>
      <point x="771" y="532" type="curve" smooth="yes"/>
      <point x="771" y="636"/>
      <point x="698" y="714"/>
      <point x="535" y="714" type="curve" smooth="yes"/>
      <point x="334" y="714" type="line" smooth="yes"/>
      <point x="131" y="714"/>
      <point x="20" y="619"/>
      <point x="20" y="449" type="curve" smooth="yes"/>
      <point x="20" y="314"/>
      <point x="106" y="239"/>
    </contour>
    <contour>
      <point x="143" y="0" type="line"/>
      <point x="323" y="0" type="line"/>
      <point x="523" y="359" type="line"/>
      <point x="343" y="359" type="line"/>
    </contour>
    <contour>
      <point x="268" y="379" type="curve" smooth="yes"/>
      <point x="230" y="379"/>
      <point x="200" y="402"/>
      <point x="200" y="458" type="curve" smooth="yes"/>
      <point x="200" y="539"/>
      <point x="241" y="579"/>
      <point x="319" y="579" type="curve" smooth="yes"/>
      <point x="323" y="579" type="line"/>
      <point x="323" y="394" type="line"/>
      <point x="309" y="386"/>
      <point x="291" y="379"/>
    </contour>
    <contour>
      <point x="503" y="471" type="line"/>
      <point x="503" y="579" type="line"/>
      <point x="524" y="579" type="line" smooth="yes"/>
      <point x="587" y="579"/>
      <point x="593" y="545"/>
      <point x="593" y="527" type="curve" smooth="yes"/>
      <point x="593" y="503"/>
      <point x="585" y="471"/>
      <point x="529" y="471" type="curve" smooth="yes"/>
    </contour>
  </outline>
</glyph>
<glyph name="aPhr.eth" format="2">
  <advance width="574"/>
  <unicode hex="12D0"/>
  <note>
uni12D0
</note>
  <anchor x="287" y="725" name="top"/>
  <outline>
    <contour>
      <point x="285" y="-10" type="curve" smooth="yes"/>
      <point x="464" y="-10"/>
      <point x="534" y="104"/>
      <point x="534" y="254" type="curve" smooth="yes"/>
      <point x="534" y="461" type="line" smooth="yes"/>
      <point x="534" y="609"/>
      <point x="464" y="725"/>
      <point x="285" y="725" type="curve" smooth="yes"/>
      <point x="115" y="725"/>
      <point x="40" y="618"/>
      <point x="40" y="459" type="curve" smooth="yes"/>
      <point x="40" y="256" type="line" smooth="yes"/>
      <point x="40" y="95"/>
      <point x="115" y="-10"/>
    </contour>
    <contour>
      <point x="288" y="137" type="curve" smooth="yes"/>
      <point x="239" y="137"/>
      <point x="220" y="179"/>
      <point x="220" y="251" type="curve" smooth="yes"/>
      <point x="220" y="462" type="line" smooth="yes"/>
      <point x="220" y="534"/>
      <point x="239" y="576"/>
      <point x="288" y="576" type="curve" smooth="yes"/>
      <point x="340" y="576"/>
      <point x="354" y="530"/>
      <point x="354" y="461" type="curve" smooth="yes"/>
      <point x="354" y="252" type="line" smooth="yes"/>
      <point x="354" y="185"/>
      <point x="340" y="137"/>
    </contour>
  </outline>
</glyph>
<glyph name="iPhr.eth" format="2">
  <advance width="710"/>
  <unicode hex="12D2"/>
  <note>
uni12D2
</note>
  <anchor x="362" y="725" name="top"/>
  <outline>
    <contour>
      <point x="310" y="0" type="line"/>
      <point x="458" y="0" type="line"/>
      <point x="636" y="396" type="line"/>
      <point x="492" y="396" type="line"/>
      <point x="494" y="410"/>
      <point x="495" y="428"/>
      <point x="495" y="450" type="curve" smooth="yes"/>
      <point x="495" y="514" type="line" smooth="yes"/>
      <point x="495" y="652"/>
      <point x="411" y="725"/>
      <point x="256" y="725" type="curve" smooth="yes"/>
      <point x="102" y="725"/>
      <point x="20" y="653"/>
      <point x="20" y="514" type="curve" smooth="yes"/>
      <point x="20" y="451" type="line" smooth="yes"/>
      <point x="20" y="312"/>
      <point x="100" y="239"/>
      <point x="249" y="239" type="curve" smooth="yes"/>
      <point x="318" y="239"/>
      <point x="361" y="253"/>
      <point x="383" y="266" type="curve"/>
      <point x="390" y="266" type="line"/>
      <point x="310" y="101" type="line"/>
    </contour>
    <contour>
      <point x="420" y="0" type="line"/>
      <point x="514" y="0" type="line"/>
      <point x="514" y="120" type="line"/>
      <point x="420" y="120" type="line"/>
    </contour>
    <contour>
      <point x="258" y="382" type="curve" smooth="yes"/>
      <point x="221" y="382"/>
      <point x="204" y="405"/>
      <point x="204" y="466" type="curve" smooth="yes"/>
      <point x="204" y="503" type="line" smooth="yes"/>
      <point x="204" y="557"/>
      <point x="220" y="582"/>
      <point x="257" y="582" type="curve" smooth="yes"/>
      <point x="295" y="582"/>
      <point x="311" y="557"/>
      <point x="311" y="503" type="curve" smooth="yes"/>
      <point x="311" y="466" type="line" smooth="yes"/>
      <point x="311" y="402"/>
      <point x="296" y="382"/>
    </contour>
    <component base="rightdoubleflag" xOffset="444"/>
  </outline>
</glyph>
<glyph name="eePhr.eth" format="2">
  <advance width="809"/>
  <unicode hex="12D4"/>
  <note>
uni12D4
</note>
  <anchor x="410" y="725" name="top"/>
  <outline>
    <contour>
      <point x="310" y="0" type="line"/>
      <point x="458" y="0" type="line"/>
      <point x="636" y="396" type="line"/>
      <point x="492" y="396" type="line"/>
      <point x="494" y="410"/>
      <point x="495" y="428"/>
      <point x="495" y="450" type="curve" smooth="yes"/>
      <point x="495" y="514" type="line" smooth="yes"/>
      <point x="495" y="652"/>
      <point x="411" y="725"/>
      <point x="256" y="725" type="curve" smooth="yes"/>
      <point x="102" y="725"/>
      <point x="20" y="653"/>
      <point x="20" y="514" type="curve" smooth="yes"/>
      <point x="20" y="451" type="line" smooth="yes"/>
      <point x="20" y="312"/>
      <point x="100" y="239"/>
      <point x="249" y="239" type="curve" smooth="yes"/>
      <point x="313" y="239"/>
      <point x="353" y="253"/>
      <point x="374" y="266" type="curve"/>
      <point x="390" y="266" type="line"/>
      <point x="310" y="101" type="line"/>
    </contour>
    <contour>
      <point x="483" y="118" type="line"/>
      <point x="525" y="226" type="line"/>
      <point x="559" y="226" type="line" smooth="yes"/>
      <point x="605" y="226"/>
      <point x="624" y="206"/>
      <point x="624" y="177" type="curve" smooth="yes"/>
      <point x="624" y="138"/>
      <point x="596" y="118"/>
      <point x="535" y="118" type="curve" smooth="yes"/>
    </contour>
    <contour>
      <point x="345" y="0" type="line"/>
      <point x="533" y="0" type="line" smooth="yes"/>
      <point x="720" y="0"/>
      <point x="801" y="73"/>
      <point x="801" y="177" type="curve" smooth="yes"/>
      <point x="801" y="287"/>
      <point x="732" y="342"/>
      <point x="574" y="342" type="curve" smooth="yes"/>
      <point x="507" y="342" type="line"/>
    </contour>
    <contour>
      <point x="258" y="382" type="curve" smooth="yes"/>
      <point x="221" y="382"/>
      <point x="204" y="405"/>
      <point x="204" y="466" type="curve" smooth="yes"/>
      <point x="204" y="503" type="line" smooth="yes"/>
      <point x="204" y="557"/>
      <point x="220" y="582"/>
      <point x="257" y="582" type="curve" smooth="yes"/>
      <point x="295" y="582"/>
      <point x="311" y="557"/>
      <point x="311" y="503" type="curve" smooth="yes"/>
      <point x="311" y="466" type="line" smooth="yes"/>
      <point x="311" y="402"/>
      <point x="296" y="382"/>
    </contour>
  </outline>
</glyph>
<glyph name="ePhr.eth" format="2">
  <advance width="574"/>
  <unicode hex="12D5"/>
  <note>
uni12D5
</note>
  <anchor x="287" y="760" name="top"/>
  <outline>
    <contour>
      <point x="285" y="-10" type="curve" smooth="yes"/>
      <point x="464" y="-10"/>
      <point x="534" y="104"/>
      <point x="534" y="254" type="curve" smooth="yes"/>
      <point x="534" y="381" type="line" smooth="yes"/>
      <point x="534" y="529"/>
      <point x="464" y="645"/>
      <point x="285" y="645" type="curve" smooth="yes"/>
      <point x="115" y="645"/>
      <point x="40" y="538"/>
      <point x="40" y="379" type="curve" smooth="yes"/>
      <point x="40" y="256" type="line" smooth="yes"/>
      <point x="40" y="95"/>
      <point x="115" y="-10"/>
    </contour>
    <contour>
      <point x="288" y="137" type="curve" smooth="yes"/>
      <point x="239" y="137"/>
      <point x="220" y="179"/>
      <point x="220" y="251" type="curve" smooth="yes"/>
      <point x="220" y="382" type="line" smooth="yes"/>
      <point x="220" y="454"/>
      <point x="239" y="496"/>
      <point x="288" y="496" type="curve" smooth="yes"/>
      <point x="340" y="496"/>
      <point x="354" y="450"/>
      <point x="354" y="381" type="curve" smooth="yes"/>
      <point x="354" y="252" type="line" smooth="yes"/>
      <point x="354" y="185"/>
      <point x="340" y="137"/>
    </contour>
    <contour>
      <point x="200" y="616" type="line"/>
      <point x="380" y="616" type="line"/>
      <point x="380" y="760" type="line"/>
      <point x="200" y="760" type="line"/>
    </contour>
  </outline>
</glyph>
<glyph name="oPhr.eth" format="2">
  <advance width="580"/>
  <unicode hex="12D6"/>
  <note>
uni12D6
</note>
  <anchor x="290" y="724" name="top"/>
  <outline>
    <contour>
      <point x="20" y="0" type="curve"/>
      <point x="205" y="0" type="line"/>
      <point x="208" y="134"/>
      <point x="231" y="182"/>
      <point x="363" y="260" type="curve" smooth="yes"/>
      <point x="511" y="347"/>
      <point x="560" y="409"/>
      <point x="560" y="523" type="curve" smooth="yes"/>
      <point x="560" y="648"/>
      <point x="473" y="724"/>
      <point x="315" y="724" type="curve" smooth="yes"/>
      <point x="151" y="724"/>
      <point x="62" y="643"/>
      <point x="62" y="510" type="curve" smooth="yes"/>
      <point x="62" y="425"/>
      <point x="104" y="361"/>
      <point x="175" y="317" type="curve"/>
      <point x="63" y="238"/>
      <point x="23" y="160"/>
    </contour>
    <contour>
      <point x="306" y="398" type="curve"/>
      <point x="266" y="422"/>
      <point x="240" y="455"/>
      <point x="240" y="515" type="curve" smooth="yes"/>
      <point x="240" y="578"/>
      <point x="274" y="602"/>
      <point x="315" y="602" type="curve" smooth="yes"/>
      <point x="354" y="602"/>
      <point x="386" y="579"/>
      <point x="386" y="517" type="curve" smooth="yes"/>
      <point x="386" y="462"/>
      <point x="360" y="433"/>
    </contour>
  </outline>
</glyph>
<glyph name="za.eth" format="2">
  <advance width="634"/>
  <unicode hex="12D8"/>
  <note>
uni12D8
</note>
  <anchor x="317" y="714" name="top"/>
  <outline>
    <contour>
      <point x="70" y="0" type="line"/>
      <point x="250" y="0" type="line"/>
      <point x="250" y="291" type="line"/>
      <point x="384" y="291" type="line"/>
      <point x="384" y="0" type="line"/>
      <point x="564" y="0" type="line"/>
      <point x="564" y="714" type="line"/>
      <point x="384" y="714" type="line"/>
      <point x="384" y="449" type="line"/>
      <point x="250" y="449" type="line"/>
      <point x="250" y="714" type="line"/>
      <point x="70" y="714" type="line"/>
    </contour>
  </outline>
</glyph>
<glyph name="zaa.eth" format="2">
  <advance width="634"/>
  <unicode hex="12DB"/>
  <note>
uni12DB
</note>
  <anchor x="317" y="714" name="top"/>
  <outline>
    <contour>
      <point x="384" y="0" type="line"/>
      <point x="564" y="0" type="line"/>
      <point x="564" y="714" type="line"/>
      <point x="384" y="714" type="line"/>
      <point x="384" y="449" type="line"/>
      <point x="250" y="449" type="line"/>
      <point x="250" y="714" type="line"/>
      <point x="70" y="714" type="line"/>
      <point x="70" y="152" type="line"/>
      <point x="250" y="152" type="line"/>
      <point x="250" y="291" type="line"/>
      <point x="384" y="291" type="line"/>
    </contour>
  </outline>
</glyph>
<glyph name="ze.eth" format="2">
  <advance width="778"/>
  <unicode hex="12DD"/>
  <note>
uni12DD
</note>
  <anchor x="356" y="714" name="top"/>
  <outline>
    <contour>
      <point x="214" y="0" type="line"/>
      <point x="394" y="0" type="line"/>
      <point x="394" y="292" type="line"/>
      <point x="528" y="292" type="line"/>
      <point x="528" y="0" type="line"/>
      <point x="708" y="0" type="line"/>
      <point x="708" y="714" type="line"/>
      <point x="528" y="714" type="line"/>
      <point x="528" y="448" type="line"/>
      <point x="394" y="448" type="line"/>
      <point x="394" y="526" type="line" smooth="yes"/>
      <point x="394" y="676"/>
      <point x="300" y="714"/>
      <point x="188" y="714" type="curve" smooth="yes"/>
      <point x="54" y="714" type="line"/>
      <point x="5" y="518" type="line"/>
      <point x="40" y="518" type="line" smooth="yes"/>
      <point x="95" y="518"/>
      <point x="126" y="547"/>
      <point x="146" y="594" type="curve"/>
      <point x="153" y="594" type="line" smooth="yes"/>
      <point x="197" y="594"/>
      <point x="214" y="559"/>
      <point x="214" y="522" type="curve" smooth="yes"/>
    </contour>
  </outline>
</glyph>
<glyph name="zhaa.eth" format="2">
  <advance width="922"/>
  <unicode hex="12E3"/>
  <note>
uni12E3
</note>
  <anchor x="461" y="714" name="top"/>
  <outline>
    <contour>
      <point x="528" y="0" type="line"/>
      <point x="708" y="0" type="line"/>
      <point x="708" y="522" type="line" smooth="yes"/>
      <point x="708" y="559"/>
      <point x="725" y="594"/>
      <point x="769" y="594" type="curve" smooth="yes"/>
      <point x="776" y="594" type="line"/>
      <point x="796" y="547"/>
      <point x="827" y="518"/>
      <point x="882" y="518" type="curve" smooth="yes"/>
      <point x="917" y="518" type="line"/>
      <point x="868" y="714" type="line"/>
      <point x="734" y="714" type="line" smooth="yes"/>
      <point x="622" y="714"/>
      <point x="528" y="676"/>
      <point x="528" y="526" type="curve" smooth="yes"/>
      <point x="528" y="448" type="line"/>
      <point x="394" y="448" type="line"/>
      <point x="394" y="526" type="line" smooth="yes"/>
      <point x="394" y="676"/>
      <point x="300" y="714"/>
      <point x="188" y="714" type="curve" smooth="yes"/>
      <point x="54" y="714" type="line"/>
      <point x="5" y="518" type="line"/>
      <point x="40" y="518" type="line" smooth="yes"/>
      <point x="95" y="518"/>
      <point x="126" y="547"/>
      <point x="146" y="594" type="curve"/>
      <point x="153" y="594" type="line" smooth="yes"/>
      <point x="197" y="594"/>
      <point x="214" y="559"/>
      <point x="214" y="522" type="curve" smooth="yes"/>
      <point x="214" y="154" type="line"/>
      <point x="394" y="154" type="line"/>
      <point x="394" y="292" type="line"/>
      <point x="528" y="292" type="line"/>
    </contour>
  </outline>
</glyph>
<glyph name="zhe.eth" format="2">
  <advance width="922"/>
  <unicode hex="12E5"/>
  <note>
uni12E5
</note>
  <anchor x="461" y="849" name="top"/>
  <outline>
    <contour>
      <point x="214" y="0" type="line"/>
      <point x="394" y="0" type="line"/>
      <point x="394" y="199" type="line"/>
      <point x="528" y="199" type="line"/>
      <point x="528" y="0" type="line"/>
      <point x="708" y="0" type="line"/>
      <point x="708" y="372" type="line" smooth="yes"/>
      <point x="708" y="409"/>
      <point x="725" y="444"/>
      <point x="769" y="444" type="curve" smooth="yes"/>
      <point x="776" y="444" type="line"/>
      <point x="796" y="397"/>
      <point x="827" y="368"/>
      <point x="882" y="368" type="curve" smooth="yes"/>
      <point x="917" y="368" type="line"/>
      <point x="868" y="564" type="line"/>
      <point x="734" y="564" type="line" smooth="yes"/>
      <point x="622" y="564"/>
      <point x="528" y="526"/>
      <point x="528" y="376" type="curve" smooth="yes"/>
      <point x="528" y="355" type="line"/>
      <point x="394" y="355" type="line"/>
      <point x="394" y="376" type="line" smooth="yes"/>
      <point x="394" y="526"/>
      <point x="300" y="564"/>
      <point x="188" y="564" type="curve" smooth="yes"/>
      <point x="54" y="564" type="line"/>
      <point x="5" y="368" type="line"/>
      <point x="40" y="368" type="line" smooth="yes"/>
      <point x="95" y="368"/>
      <point x="126" y="397"/>
      <point x="146" y="444" type="curve"/>
      <point x="153" y="444" type="line" smooth="yes"/>
      <point x="197" y="444"/>
      <point x="214" y="409"/>
      <point x="214" y="372" type="curve" smooth="yes"/>
    </contour>
    <contour>
      <point x="367" y="462" type="line"/>
      <point x="367" y="729" type="line"/>
      <point x="198" y="729" type="line"/>
      <point x="198" y="498" type="line"/>
    </contour>
    <component base="footshort" xScale="-1" yScale="-1" xOffset="553" yOffset="773"/>
  </outline>
</glyph>
<glyph name="ya.eth" format="2">
  <advance width="536"/>
  <unicode hex="12E8"/>
  <note>
uni12E8
</note>
  <anchor x="273" y="726" name="top"/>
  <outline>
    <contour>
      <point x="161" y="0" type="line"/>
      <point x="347" y="0" type="line"/>
      <point x="347" y="134" type="line" smooth="yes"/>
      <point x="347" y="194"/>
      <point x="342" y="248"/>
      <point x="320" y="289" type="curve"/>
      <point x="442" y="331"/>
      <point x="516" y="402"/>
      <point x="516" y="521" type="curve" smooth="yes"/>
      <point x="516" y="649"/>
      <point x="429" y="726"/>
      <point x="279" y="726" type="curve" smooth="yes"/>
      <point x="119" y="726"/>
      <point x="30" y="634"/>
      <point x="30" y="512" type="curve" smooth="yes"/>
      <point x="30" y="424"/>
      <point x="62" y="379"/>
      <point x="97" y="325" type="curve" smooth="yes"/>
      <point x="132" y="271"/>
      <point x="161" y="225"/>
      <point x="161" y="138" type="curve" smooth="yes"/>
    </contour>
    <contour>
      <point x="258" y="411" type="curve"/>
      <point x="231" y="446"/>
      <point x="214" y="474"/>
      <point x="214" y="514" type="curve" smooth="yes"/>
      <point x="214" y="559"/>
      <point x="239" y="585"/>
      <point x="275" y="585" type="curve" smooth="yes"/>
      <point x="310" y="585"/>
      <point x="337" y="562"/>
      <point x="337" y="514" type="curve" smooth="yes"/>
      <point x="337" y="456"/>
      <point x="295" y="427"/>
    </contour>
  </outline>
</glyph>
<glyph name="yi.eth" format="2">
  <advance width="690"/>
  <unicode hex="12EA"/>
  <note>
uni12EA
</note>
  <anchor x="357" y="726" name="top"/>
  <outline>
    <contour>
      <point x="649" y="-52" type="curve" smooth="yes"/>
      <point x="685" y="-52" type="line"/>
      <point x="636" y="144" type="line"/>
      <point x="434" y="144" type="line"/>
      <point x="434" y="24" type="line"/>
      <point x="544" y="24" type="line"/>
      <point x="566" y="-32"/>
      <point x="604" y="-52"/>
    </contour>
    <contour>
      <point x="320" y="113" type="line"/>
      <point x="499" y="113" type="line"/>
      <point x="499" y="233" type="line"/>
      <point x="320" y="233" type="line"/>
    </contour>
    <contour>
      <point x="434" y="24" type="line"/>
      <point x="575" y="24" type="line"/>
      <point x="575" y="322" type="line"/>
      <point x="434" y="322" type="line"/>
    </contour>
    <component base="ya.eth"/>
  </outline>
</glyph>
<glyph name="ye.eth" format="2">
  <advance width="798"/>
  <unicode hex="12ED"/>
  <note>
uni12ED
</note>
  <anchor x="381" y="724" name="top"/>
  <outline>
    <contour>
      <point x="491" y="0" type="curve" smooth="yes"/>
      <point x="649" y="0"/>
      <point x="753" y="93"/>
      <point x="753" y="255" type="curve" smooth="yes"/>
      <point x="753" y="290" type="line"/>
      <point x="574" y="290" type="line"/>
      <point x="574" y="248" type="line" smooth="yes"/>
      <point x="574" y="175"/>
      <point x="541" y="150"/>
      <point x="491" y="150" type="curve" smooth="yes"/>
      <point x="428" y="150"/>
      <point x="375" y="197"/>
      <point x="343" y="316" type="curve"/>
      <point x="521" y="325"/>
      <point x="643" y="404"/>
      <point x="643" y="541" type="curve" smooth="yes"/>
      <point x="643" y="645"/>
      <point x="572" y="724"/>
      <point x="405" y="724" type="curve" smooth="yes"/>
      <point x="229" y="724"/>
      <point x="141" y="606"/>
      <point x="141" y="430" type="curve" smooth="yes"/>
      <point x="141" y="185"/>
      <point x="273" y="0"/>
    </contour>
    <contour>
      <point x="213" y="0" type="line"/>
      <point x="489" y="0" type="line"/>
      <point x="383" y="120" type="line"/>
      <point x="213" y="120" type="line"/>
    </contour>
    <contour>
      <point x="327" y="441" type="curve"/>
      <point x="327" y="451"/>
      <point x="326" y="461"/>
      <point x="326" y="476" type="curve" smooth="yes"/>
      <point x="326" y="552"/>
      <point x="353" y="589"/>
      <point x="403" y="589" type="curve" smooth="yes"/>
      <point x="440" y="589"/>
      <point x="460" y="568"/>
      <point x="460" y="530" type="curve" smooth="yes"/>
      <point x="460" y="470"/>
      <point x="408" y="444"/>
    </contour>
    <component base="leftsingleflag" xOffset="5" yOffset="-302"/>
  </outline>
</glyph>
<glyph name="da.eth" format="2">
  <advance width="676"/>
  <unicode hex="12F0"/>
  <note>
uni12F0
</note>
  <anchor x="338" y="725" name="top"/>
  <outline>
    <contour>
      <point x="221" y="194" type="curve"/>
      <point x="417" y="194" type="line"/>
      <point x="381" y="227"/>
      <point x="348" y="274"/>
      <point x="337" y="311" type="curve"/>
      <point x="507" y="319"/>
      <point x="619" y="396"/>
      <point x="619" y="527" type="curve" smooth="yes"/>
      <point x="619" y="649"/>
      <point x="539" y="725"/>
      <point x="396" y="725" type="curve" smooth="yes"/>
      <point x="223" y="725"/>
      <point x="131" y="628"/>
      <point x="131" y="444" type="curve" smooth="yes"/>
      <point x="131" y="335"/>
      <point x="173" y="250"/>
    </contour>
    <contour>
      <point x="313" y="442" type="curve"/>
      <point x="313" y="450"/>
      <point x="312" y="463"/>
      <point x="312" y="477" type="curve" smooth="yes"/>
      <point x="312" y="540"/>
      <point x="337" y="582"/>
      <point x="386" y="582" type="curve" smooth="yes"/>
      <point x="421" y="582"/>
      <point x="446" y="566"/>
      <point x="446" y="526" type="curve" smooth="yes"/>
      <point x="446" y="474"/>
      <point x="395" y="444"/>
    </contour>
    <component base="footmiddle" yOffset="76"/>
  </outline>
</glyph>
<glyph name="daa.eth" format="2">
  <advance width="853"/>
  <unicode hex="12F3"/>
  <note>
uni12F3
</note>
  <anchor x="393" y="723" name="top"/>
  <outline>
    <contour>
      <point x="435" y="230" type="curve"/>
      <point x="629" y="283" type="line"/>
      <point x="492" y="287"/>
      <point x="387" y="366"/>
      <point x="387" y="496" type="curve" smooth="yes"/>
      <point x="387" y="560"/>
      <point x="413" y="589"/>
      <point x="450" y="589" type="curve" smooth="yes"/>
      <point x="480" y="589"/>
      <point x="502" y="571"/>
      <point x="502" y="527" type="curve" smooth="yes"/>
      <point x="502" y="465"/>
      <point x="457" y="434"/>
      <point x="369" y="434" type="curve"/>
      <point x="384" y="329" type="line"/>
      <point x="571" y="329"/>
      <point x="685" y="400"/>
      <point x="685" y="533" type="curve" smooth="yes"/>
      <point x="685" y="646"/>
      <point x="602" y="723"/>
      <point x="454" y="723" type="curve" smooth="yes"/>
      <point x="295" y="723"/>
      <point x="200" y="635"/>
      <point x="200" y="488" type="curve" smooth="yes"/>
      <point x="200" y="351"/>
      <point x="283" y="259"/>
    </contour>
    <contour>
      <point x="601" y="0" type="line"/>
      <point x="781" y="0" type="line"/>
      <point x="781" y="285" type="line"/>
      <point x="209" y="285" type="line"/>
      <point x="209" y="165" type="line"/>
      <point x="601" y="165" type="line"/>
    </contour>
    <component base="leftsingleflag" yOffset="-137"/>
  </outline>
</glyph>
<glyph name="dee.eth" format="2">
  <advance width="807"/>
  <unicode hex="12F4"/>
  <note>
uni12F4
</note>
  <anchor x="398" y="725" name="top"/>
  <outline>
    <contour>
      <point x="188" y="126" type="line"/>
      <point x="492" y="126" type="line"/>
      <point x="613" y="245" type="line"/>
      <point x="415" y="245" type="line"/>
      <point x="383" y="269"/>
      <point x="348" y="315"/>
      <point x="333" y="345" type="curve"/>
      <point x="513" y="347"/>
      <point x="607" y="410"/>
      <point x="607" y="540" type="curve" smooth="yes"/>
      <point x="607" y="657"/>
      <point x="527" y="725"/>
      <point x="384" y="725" type="curve" smooth="yes"/>
      <point x="209" y="725"/>
      <point x="119" y="628"/>
      <point x="119" y="474" type="curve" smooth="yes"/>
      <point x="119" y="360"/>
      <point x="167" y="293"/>
      <point x="213" y="245" type="curve"/>
      <point x="188" y="245" type="line"/>
    </contour>
    <contour>
      <point x="303" y="461" type="curve"/>
      <point x="302" y="471"/>
      <point x="300" y="485"/>
      <point x="300" y="495" type="curve" smooth="yes"/>
      <point x="300" y="542"/>
      <point x="323" y="582"/>
      <point x="372" y="582" type="curve" smooth="yes"/>
      <point x="410" y="582"/>
      <point x="434" y="566"/>
      <point x="434" y="530" type="curve" smooth="yes"/>
      <point x="434" y="485"/>
      <point x="388" y="461"/>
    </contour>
    <component base="ballsmall" xOffset="419" yOffset="-185"/>
    <component base="leftsingleflag" yOffset="-176"/>
  </outline>
</glyph>
<glyph name="do.eth" format="2">
  <advance width="745"/>
  <unicode hex="12F6"/>
  <note>
uni12F6
</note>
  <anchor x="372" y="723" name="top"/>
  <outline>
    <contour>
      <point x="401" y="230" type="curve"/>
      <point x="595" y="283" type="line"/>
      <point x="458" y="287"/>
      <point x="353" y="366"/>
      <point x="353" y="496" type="curve" smooth="yes"/>
      <point x="353" y="560"/>
      <point x="379" y="589"/>
      <point x="416" y="589" type="curve" smooth="yes"/>
      <point x="446" y="589"/>
      <point x="468" y="571"/>
      <point x="468" y="527" type="curve" smooth="yes"/>
      <point x="468" y="465"/>
      <point x="423" y="434"/>
      <point x="335" y="434" type="curve"/>
      <point x="350" y="329" type="line"/>
      <point x="537" y="329"/>
      <point x="651" y="400"/>
      <point x="651" y="533" type="curve" smooth="yes"/>
      <point x="651" y="646"/>
      <point x="568" y="723"/>
      <point x="420" y="723" type="curve" smooth="yes"/>
      <point x="261" y="723"/>
      <point x="166" y="635"/>
      <point x="166" y="488" type="curve" smooth="yes"/>
      <point x="166" y="351"/>
      <point x="249" y="259"/>
    </contour>
    <contour>
      <point x="5" y="0" type="line"/>
      <point x="183" y="0" type="line"/>
      <point x="183" y="91" type="line" smooth="yes"/>
      <point x="183" y="145"/>
      <point x="201" y="165"/>
      <point x="256" y="165" type="curve" smooth="yes"/>
      <point x="522" y="165" type="line"/>
      <point x="522" y="285" type="line"/>
      <point x="203" y="285" type="line" smooth="yes"/>
      <point x="87" y="285"/>
      <point x="5" y="227"/>
      <point x="5" y="89" type="curve" smooth="yes"/>
    </contour>
    <component base="rightsingleflag" xOffset="479" yOffset="-137"/>
  </outline>
</glyph>
<glyph name="dwa.eth" format="2">
  <advance width="814"/>
  <unicode hex="12F7"/>
  <note>
uni12F7
</note>
  <anchor x="407" y="723" name="top"/>
  <outline>
    <contour>
      <point x="367" y="230" type="curve"/>
      <point x="561" y="283" type="line"/>
      <point x="424" y="287"/>
      <point x="319" y="365"/>
      <point x="319" y="497" type="curve" smooth="yes"/>
      <point x="319" y="560"/>
      <point x="345" y="589"/>
      <point x="383" y="589" type="curve" smooth="yes"/>
      <point x="414" y="589"/>
      <point x="434" y="569"/>
      <point x="434" y="533" type="curve" smooth="yes"/>
      <point x="434" y="472"/>
      <point x="391" y="441"/>
      <point x="301" y="441" type="curve"/>
      <point x="316" y="336" type="line"/>
      <point x="503" y="336"/>
      <point x="617" y="396"/>
      <point x="617" y="533" type="curve" smooth="yes"/>
      <point x="617" y="647"/>
      <point x="534" y="723"/>
      <point x="386" y="723" type="curve" smooth="yes"/>
      <point x="227" y="723"/>
      <point x="132" y="636"/>
      <point x="132" y="486" type="curve" smooth="yes"/>
      <point x="132" y="350"/>
      <point x="218" y="258"/>
    </contour>
    <contour>
      <point x="446" y="0" type="line"/>
      <point x="626" y="0" type="line"/>
      <point x="626" y="285" type="line"/>
      <point x="191" y="285" type="line"/>
      <point x="191" y="165" type="line"/>
      <point x="446" y="165" type="line"/>
    </contour>
    <component base="leftsingleflag" yOffset="-137"/>
    <component base="footright" xOffset="195"/>
  </outline>
</glyph>
<glyph name="dda.eth" format="2">
  <advance width="676"/>
  <unicode hex="12F8"/>
  <note>
uni12F8
</note>
  <anchor x="338" y="783" name="top"/>
  <outline>
    <contour>
      <point x="195" y="193" type="curve"/>
      <point x="387" y="193" type="line"/>
      <point x="366" y="212"/>
      <point x="342" y="242"/>
      <point x="328" y="271" type="curve"/>
      <point x="501" y="278"/>
      <point x="583" y="346"/>
      <point x="583" y="477" type="curve" smooth="yes"/>
      <point x="583" y="580"/>
      <point x="512" y="662"/>
      <point x="367" y="662" type="curve" smooth="yes"/>
      <point x="199" y="662"/>
      <point x="115" y="569"/>
      <point x="115" y="419" type="curve" smooth="yes"/>
      <point x="115" y="312"/>
      <point x="161" y="234"/>
    </contour>
    <contour>
      <point x="295" y="402" type="curve"/>
      <point x="293" y="412"/>
      <point x="291" y="426"/>
      <point x="291" y="441" type="curve" smooth="yes"/>
      <point x="291" y="486"/>
      <point x="312" y="520"/>
      <point x="356" y="520" type="curve" smooth="yes"/>
      <point x="391" y="520"/>
      <point x="409" y="495"/>
      <point x="409" y="467" type="curve" smooth="yes"/>
      <point x="409" y="428"/>
      <point x="377" y="404"/>
    </contour>
    <contour>
      <point x="262" y="606" type="line"/>
      <point x="442" y="606" type="line"/>
      <point x="442" y="783" type="line"/>
      <point x="262" y="783" type="line"/>
    </contour>
    <component base="footmiddle" yOffset="76"/>
  </outline>
</glyph>
<glyph name="ddaa.eth" format="2">
  <advance width="852"/>
  <unicode hex="12FB"/>
  <note>
uni12FB
</note>
  <anchor x="392" y="816" name="top"/>
  <outline>
    <contour>
      <point x="434" y="202" type="curve"/>
      <point x="628" y="255" type="line"/>
      <point x="488" y="259"/>
      <point x="381" y="350"/>
      <point x="381" y="469" type="curve" smooth="yes"/>
      <point x="381" y="532"/>
      <point x="409" y="555"/>
      <point x="443" y="555" type="curve" smooth="yes"/>
      <point x="479" y="555"/>
      <point x="501" y="538"/>
      <point x="501" y="502" type="curve" smooth="yes"/>
      <point x="501" y="435"/>
      <point x="458" y="406"/>
      <point x="368" y="406" type="curve"/>
      <point x="383" y="301" type="line"/>
      <point x="579" y="301"/>
      <point x="684" y="373"/>
      <point x="684" y="502" type="curve" smooth="yes"/>
      <point x="684" y="617"/>
      <point x="601" y="689"/>
      <point x="453" y="689" type="curve" smooth="yes"/>
      <point x="294" y="689"/>
      <point x="199" y="606"/>
      <point x="199" y="458" type="curve" smooth="yes"/>
      <point x="199" y="322"/>
      <point x="285" y="230"/>
    </contour>
    <contour>
      <point x="600" y="0" type="line"/>
      <point x="780" y="0" type="line"/>
      <point x="780" y="257" type="line"/>
      <point x="208" y="257" type="line"/>
      <point x="208" y="137" type="line"/>
      <point x="600" y="137" type="line"/>
    </contour>
    <contour>
      <point x="362" y="629" type="line"/>
      <point x="542" y="629" type="line"/>
      <point x="542" y="816" type="line"/>
      <point x="362" y="816" type="line"/>
    </contour>
    <component base="leftsingleflag" yOffset="-165"/>
  </outline>
</glyph>
<glyph name="ddee.eth" format="2">
  <advance width="793"/>
  <unicode hex="12FC"/>
  <note>
uni12FC
</note>
  <anchor x="391" y="816" name="top"/>
  <outline>
    <contour>
      <point x="210" y="242" type="curve"/>
      <point x="410" y="242" type="line"/>
      <point x="376" y="263"/>
      <point x="347" y="295"/>
      <point x="332" y="322" type="curve"/>
      <point x="505" y="322"/>
      <point x="601" y="381"/>
      <point x="601" y="514" type="curve" smooth="yes"/>
      <point x="601" y="630"/>
      <point x="520" y="699"/>
      <point x="374" y="699" type="curve" smooth="yes"/>
      <point x="195" y="699"/>
      <point x="113" y="605"/>
      <point x="113" y="462" type="curve" smooth="yes"/>
      <point x="113" y="346"/>
      <point x="172" y="277"/>
    </contour>
    <contour>
      <point x="191" y="126" type="line"/>
      <point x="517" y="126" type="line"/>
      <point x="593" y="245" type="line"/>
      <point x="191" y="245" type="line"/>
    </contour>
    <contour>
      <point x="298" y="436" type="curve"/>
      <point x="296" y="448"/>
      <point x="294" y="460"/>
      <point x="294" y="472" type="curve" smooth="yes"/>
      <point x="294" y="520"/>
      <point x="317" y="559"/>
      <point x="366" y="559" type="curve" smooth="yes"/>
      <point x="404" y="559"/>
      <point x="428" y="542"/>
      <point x="428" y="506" type="curve" smooth="yes"/>
      <point x="428" y="458"/>
      <point x="383" y="436"/>
    </contour>
    <contour>
      <point x="283" y="654" type="line"/>
      <point x="463" y="654" type="line"/>
      <point x="463" y="816" type="line"/>
      <point x="283" y="816" type="line"/>
    </contour>
    <component base="ballsmall" xOffset="405" yOffset="-185"/>
    <component base="leftsingleflag" yOffset="-176"/>
  </outline>
</glyph>
<glyph name="ddo.eth" format="2">
  <advance width="738"/>
  <unicode hex="12FE"/>
  <note>
uni12FE
</note>
  <anchor x="369" y="783" name="top"/>
  <outline>
    <contour>
      <point x="401" y="154" type="curve"/>
      <point x="595" y="207" type="line"/>
      <point x="458" y="211"/>
      <point x="353" y="290"/>
      <point x="353" y="420" type="curve" smooth="yes"/>
      <point x="353" y="484"/>
      <point x="379" y="513"/>
      <point x="416" y="513" type="curve" smooth="yes"/>
      <point x="446" y="513"/>
      <point x="468" y="495"/>
      <point x="468" y="451" type="curve" smooth="yes"/>
      <point x="468" y="389"/>
      <point x="423" y="358"/>
      <point x="335" y="358" type="curve"/>
      <point x="350" y="253" type="line"/>
      <point x="537" y="253"/>
      <point x="651" y="324"/>
      <point x="651" y="457" type="curve" smooth="yes"/>
      <point x="651" y="570"/>
      <point x="568" y="647"/>
      <point x="420" y="647" type="curve" smooth="yes"/>
      <point x="261" y="647"/>
      <point x="166" y="559"/>
      <point x="166" y="412" type="curve" smooth="yes"/>
      <point x="166" y="275"/>
      <point x="249" y="183"/>
    </contour>
    <contour>
      <point x="5" y="0" type="line"/>
      <point x="183" y="0" type="line"/>
      <point x="183" y="15" type="line" smooth="yes"/>
      <point x="183" y="69"/>
      <point x="201" y="89"/>
      <point x="256" y="89" type="curve" smooth="yes"/>
      <point x="522" y="89" type="line"/>
      <point x="522" y="209" type="line"/>
      <point x="203" y="209" type="line" smooth="yes"/>
      <point x="87" y="209"/>
      <point x="5" y="151"/>
      <point x="5" y="13" type="curve" smooth="yes"/>
    </contour>
    <contour>
      <point x="320" y="606" type="line"/>
      <point x="500" y="606" type="line"/>
      <point x="500" y="783" type="line"/>
      <point x="320" y="783" type="line"/>
    </contour>
    <component base="rightsingleflag" xOffset="472" yOffset="-213"/>
  </outline>
</glyph>
<glyph name="ddwa.eth" format="2">
  <advance width="797"/>
  <unicode hex="12FF"/>
  <note>
uni12FF
</note>
  <anchor x="398" y="816" name="top"/>
  <outline>
    <contour>
      <point x="362" y="202" type="curve"/>
      <point x="556" y="255" type="line"/>
      <point x="416" y="259"/>
      <point x="309" y="350"/>
      <point x="309" y="469" type="curve" smooth="yes"/>
      <point x="309" y="532"/>
      <point x="337" y="555"/>
      <point x="371" y="555" type="curve" smooth="yes"/>
      <point x="407" y="555"/>
      <point x="429" y="538"/>
      <point x="429" y="502" type="curve" smooth="yes"/>
      <point x="429" y="435"/>
      <point x="386" y="406"/>
      <point x="296" y="406" type="curve"/>
      <point x="311" y="301" type="line"/>
      <point x="507" y="301"/>
      <point x="612" y="373"/>
      <point x="612" y="502" type="curve" smooth="yes"/>
      <point x="612" y="617"/>
      <point x="529" y="689"/>
      <point x="381" y="689" type="curve" smooth="yes"/>
      <point x="222" y="689"/>
      <point x="127" y="606"/>
      <point x="127" y="458" type="curve" smooth="yes"/>
      <point x="127" y="322"/>
      <point x="213" y="230"/>
    </contour>
    <contour>
      <point x="435" y="0" type="line"/>
      <point x="615" y="0" type="line"/>
      <point x="615" y="257" type="line"/>
      <point x="136" y="257" type="line"/>
      <point x="136" y="137" type="line"/>
      <point x="435" y="137" type="line"/>
    </contour>
    <contour>
      <point x="290" y="629" type="line"/>
      <point x="470" y="629" type="line"/>
      <point x="470" y="816" type="line"/>
      <point x="290" y="816" type="line"/>
    </contour>
    <component base="footright" xOffset="178"/>
    <component base="leftsingleflag" yOffset="-165"/>
  </outline>
</glyph>
<glyph name="ja.eth" format="2">
  <advance width="676"/>
  <unicode hex="1300"/>
  <note>
uni1300
</note>
  <anchor x="338" y="887" name="top"/>
  <outline>
    <contour>
      <point x="186" y="194" type="curve"/>
      <point x="378" y="194" type="line"/>
      <point x="352" y="214"/>
      <point x="334" y="233"/>
      <point x="319" y="261" type="curve"/>
      <point x="492" y="268"/>
      <point x="574" y="336"/>
      <point x="574" y="460" type="curve" smooth="yes"/>
      <point x="574" y="563"/>
      <point x="503" y="645"/>
      <point x="358" y="645" type="curve" smooth="yes"/>
      <point x="190" y="645"/>
      <point x="106" y="552"/>
      <point x="106" y="409" type="curve" smooth="yes"/>
      <point x="106" y="300"/>
      <point x="152" y="236"/>
    </contour>
    <contour>
      <point x="286" y="392" type="curve"/>
      <point x="284" y="402"/>
      <point x="282" y="416"/>
      <point x="282" y="431" type="curve" smooth="yes"/>
      <point x="282" y="473"/>
      <point x="303" y="503"/>
      <point x="347" y="503" type="curve" smooth="yes"/>
      <point x="382" y="503"/>
      <point x="400" y="482"/>
      <point x="400" y="454" type="curve" smooth="yes"/>
      <point x="400" y="415"/>
      <point x="368" y="394"/>
    </contour>
    <contour>
      <point x="248" y="589" type="line"/>
      <point x="428" y="589" type="line"/>
      <point x="428" y="763" type="line"/>
      <point x="248" y="763" type="line"/>
    </contour>
    <component base="footmiddle" yOffset="76"/>
    <component base="bonemiddle" xOffset="20" yOffset="49"/>
  </outline>
</glyph>
<glyph name="jaa.eth" format="2">
  <advance width="813"/>
  <unicode hex="1303"/>
  <note>
uni1303
</note>
  <anchor x="396" y="869" name="top"/>
  <outline>
    <contour>
      <point x="434" y="182" type="curve"/>
      <point x="628" y="235" type="line"/>
      <point x="491" y="239"/>
      <point x="386" y="318"/>
      <point x="386" y="433" type="curve" smooth="yes"/>
      <point x="386" y="484"/>
      <point x="412" y="506"/>
      <point x="449" y="506" type="curve" smooth="yes"/>
      <point x="479" y="506"/>
      <point x="501" y="489"/>
      <point x="501" y="456" type="curve" smooth="yes"/>
      <point x="501" y="409"/>
      <point x="458" y="386"/>
      <point x="368" y="386" type="curve"/>
      <point x="383" y="281" type="line"/>
      <point x="579" y="281"/>
      <point x="684" y="339"/>
      <point x="684" y="464" type="curve" smooth="yes"/>
      <point x="684" y="576"/>
      <point x="601" y="640"/>
      <point x="453" y="640" type="curve" smooth="yes"/>
      <point x="286" y="640"/>
      <point x="199" y="564"/>
      <point x="199" y="432" type="curve" smooth="yes"/>
      <point x="199" y="293"/>
      <point x="285" y="210"/>
    </contour>
    <contour>
      <point x="600" y="0" type="line"/>
      <point x="780" y="0" type="line"/>
      <point x="780" y="237" type="line"/>
      <point x="208" y="237" type="line"/>
      <point x="208" y="117" type="line"/>
      <point x="600" y="117" type="line"/>
    </contour>
    <contour>
      <point x="362" y="582" type="line"/>
      <point x="542" y="582" type="line"/>
      <point x="542" y="775" type="line"/>
      <point x="362" y="775" type="line"/>
    </contour>
    <component base="leftsingleflag" yOffset="-185"/>
    <component base="bonelong" xOffset="70" yOffset="31"/>
  </outline>
</glyph>
<glyph name="jee.eth" format="2">
  <advance width="912"/>
  <unicode hex="1304"/>
  <note>
uni1304
</note>
  <anchor x="451" y="868" name="top"/>
  <outline>
    <contour>
      <point x="434" y="181" type="curve"/>
      <point x="628" y="234" type="line"/>
      <point x="491" y="238"/>
      <point x="386" y="317"/>
      <point x="386" y="432" type="curve" smooth="yes"/>
      <point x="386" y="483"/>
      <point x="412" y="505"/>
      <point x="449" y="505" type="curve" smooth="yes"/>
      <point x="479" y="505"/>
      <point x="501" y="488"/>
      <point x="501" y="455" type="curve" smooth="yes"/>
      <point x="501" y="408"/>
      <point x="458" y="385"/>
      <point x="368" y="385" type="curve"/>
      <point x="383" y="280" type="line"/>
      <point x="579" y="280"/>
      <point x="684" y="338"/>
      <point x="684" y="463" type="curve" smooth="yes"/>
      <point x="684" y="575"/>
      <point x="601" y="639"/>
      <point x="453" y="639" type="curve" smooth="yes"/>
      <point x="286" y="639"/>
      <point x="199" y="563"/>
      <point x="199" y="431" type="curve" smooth="yes"/>
      <point x="199" y="292"/>
      <point x="285" y="209"/>
    </contour>
    <contour>
      <point x="208" y="116" type="line"/>
      <point x="600" y="116" type="line"/>
      <point x="717" y="236" type="line"/>
      <point x="208" y="236" type="line"/>
    </contour>
    <contour>
      <point x="362" y="581" type="line"/>
      <point x="542" y="581" type="line"/>
      <point x="542" y="774" type="line"/>
      <point x="362" y="774" type="line"/>
    </contour>
    <component base="ballsmall" xOffset="524" yOffset="-194"/>
    <component base="leftsingleflag" yOffset="-186"/>
    <component base="bonelong" xOffset="80" yOffset="30"/>
  </outline>
</glyph>
<glyph name="jo.eth" format="2">
  <advance width="781"/>
  <unicode hex="1306"/>
  <note>
uni1306
</note>
  <anchor x="390" y="869" name="top"/>
  <outline>
    <contour>
      <point x="409" y="182" type="curve"/>
      <point x="603" y="235" type="line"/>
      <point x="466" y="239"/>
      <point x="361" y="318"/>
      <point x="361" y="433" type="curve" smooth="yes"/>
      <point x="361" y="484"/>
      <point x="387" y="506"/>
      <point x="424" y="506" type="curve" smooth="yes"/>
      <point x="454" y="506"/>
      <point x="476" y="489"/>
      <point x="476" y="456" type="curve" smooth="yes"/>
      <point x="476" y="409"/>
      <point x="433" y="386"/>
      <point x="343" y="386" type="curve"/>
      <point x="358" y="281" type="line"/>
      <point x="554" y="281"/>
      <point x="659" y="339"/>
      <point x="659" y="464" type="curve" smooth="yes"/>
      <point x="659" y="576"/>
      <point x="576" y="640"/>
      <point x="428" y="640" type="curve" smooth="yes"/>
      <point x="261" y="640"/>
      <point x="174" y="564"/>
      <point x="174" y="432" type="curve" smooth="yes"/>
      <point x="174" y="293"/>
      <point x="260" y="210"/>
    </contour>
    <contour>
      <point x="5" y="0" type="line"/>
      <point x="183" y="0" type="line"/>
      <point x="183" y="41" type="line" smooth="yes"/>
      <point x="183" y="95"/>
      <point x="201" y="115"/>
      <point x="256" y="115" type="curve" smooth="yes"/>
      <point x="522" y="115" type="line"/>
      <point x="522" y="235" type="line"/>
      <point x="203" y="235" type="line" smooth="yes"/>
      <point x="87" y="235"/>
      <point x="5" y="177"/>
      <point x="5" y="39" type="curve" smooth="yes"/>
    </contour>
    <contour>
      <point x="337" y="582" type="line"/>
      <point x="517" y="582" type="line"/>
      <point x="517" y="775" type="line"/>
      <point x="337" y="775" type="line"/>
    </contour>
    <component base="bonelong" xOffset="58" yOffset="31"/>
    <component base="rightsingleflag" xOffset="472" yOffset="-187"/>
  </outline>
</glyph>
<glyph name="ga.eth" format="2">
  <advance width="637"/>
  <unicode hex="1308"/>
  <note>
uni1308
</note>
  <anchor x="283" y="714" name="top"/>
  <outline>
    <contour>
      <point x="382" y="0" type="line"/>
      <point x="562" y="0" type="line"/>
      <point x="562" y="359" type="line" smooth="yes"/>
      <point x="562" y="592"/>
      <point x="464" y="714"/>
      <point x="184" y="714" type="curve" smooth="yes"/>
      <point x="54" y="714" type="line"/>
      <point x="5" y="518" type="line"/>
      <point x="39" y="518" type="line" smooth="yes"/>
      <point x="79" y="518"/>
      <point x="122" y="532"/>
      <point x="146" y="594" type="curve"/>
      <point x="154" y="594" type="line" smooth="yes"/>
      <point x="308" y="594"/>
      <point x="382" y="551"/>
      <point x="382" y="314" type="curve" smooth="yes"/>
    </contour>
  </outline>
</glyph>
<glyph name="gaa.eth" format="2">
  <advance width="640"/>
  <unicode hex="130B"/>
  <note>
uni130B
</note>
  <anchor x="285" y="714" name="top"/>
  <outline>
    <contour>
      <point x="6" y="-76" type="line"/>
      <point x="33" y="-76" type="line" smooth="yes"/>
      <point x="86" y="-76"/>
      <point x="122" y="-60"/>
      <point x="147" y="0" type="curve"/>
      <point x="263" y="0" type="line" smooth="yes"/>
      <point x="479" y="0"/>
      <point x="565" y="102"/>
      <point x="565" y="257" type="curve" smooth="yes"/>
      <point x="565" y="359" type="line" smooth="yes"/>
      <point x="565" y="592"/>
      <point x="467" y="714"/>
      <point x="187" y="714" type="curve" smooth="yes"/>
      <point x="54" y="714" type="line"/>
      <point x="5" y="518" type="line"/>
      <point x="36" y="518" type="line" smooth="yes"/>
      <point x="95" y="518"/>
      <point x="125" y="545"/>
      <point x="146" y="594" type="curve"/>
      <point x="153" y="594" type="line" smooth="yes"/>
      <point x="307" y="594"/>
      <point x="385" y="551"/>
      <point x="385" y="344" type="curve" smooth="yes"/>
      <point x="385" y="251" type="line" smooth="yes"/>
      <point x="385" y="162"/>
      <point x="350" y="120"/>
      <point x="243" y="120" type="curve" smooth="yes"/>
      <point x="55" y="120" type="line"/>
    </contour>
  </outline>
</glyph>
<glyph name="ge.eth" format="2">
  <advance width="785"/>
  <unicode hex="130D"/>
  <note>
uni130D
</note>
  <anchor x="362" y="714" name="top"/>
  <outline>
    <contour>
      <point x="530" y="0" type="line"/>
      <point x="710" y="0" type="line"/>
      <point x="710" y="359" type="line" smooth="yes"/>
      <point x="710" y="592"/>
      <point x="612" y="714"/>
      <point x="332" y="714" type="curve" smooth="yes"/>
      <point x="222" y="714" type="line"/>
      <point x="321" y="604" type="line"/>
      <point x="359" y="604" type="line" smooth="yes"/>
      <point x="493" y="604"/>
      <point x="530" y="551"/>
      <point x="530" y="314" type="curve" smooth="yes"/>
    </contour>
    <component base="ballbig" yOffset="263"/>
  </outline>
</glyph>
<glyph name="go.eth" format="2">
	<advance width="637"/>
	<unicode hex="130E"/>
	<anchor x="283" y="760" name="top"/>
	<note>
		uni130E
	</note>
	<outline>
		<contour>
			<point x="382" y="0" type="line"/>
			<point x="562" y="0" type="line"/>
			<point x="562" y="263" type="line" smooth="yes"/>
			<point x="562" y="496"/>
			<point x="464" y="618"/>
			<point x="184" y="618" type="curve" smooth="yes"/>
			<point x="54" y="618" type="line"/>
			<point x="5" y="422" type="line"/>
			<point x="39" y="422" type="line" smooth="yes"/>
			<point x="92" y="422"/>
			<point x="126" y="447"/>
			<point x="146" y="498" type="curve"/>
			<point x="154" y="498" type="line" smooth="yes"/>
			<point x="329" y="498"/>
			<point x="382" y="447"/>
			<point x="382" y="218" type="curve" smooth="yes"/>
		</contour>
		<contour>
			<point x="184" y="575" type="line"/>
			<point x="364" y="575" type="line"/>
			<point x="364" y="760" type="line"/>
			<point x="184" y="760" type="line"/>
		</contour>
	</outline>
</glyph>
<glyph name="goa.eth" format="2">
	<advance width="660"/>
	<unicode hex="130F"/>
	<anchor x="306" y="760" name="top"/>
	<note>
		uni130F
	</note>
	<outline>
		<contour>
			<point x="254" y="0" type="line"/>
			<point x="475" y="0" type="line"/>
			<point x="475" y="120" type="line"/>
			<point x="254" y="120" type="line"/>
		</contour>
		<component base="go.eth" xOffset="23"/>
		<component base="leftdoubleflag" xOffset="25"/>
	</outline>
</glyph>
<glyph name="gwi.eth" format="2">
  <advance width="885"/>
  <unicode hex="1312"/>
  <note>
uni1312
</note>
  <anchor x="442" y="714" name="top"/>
  <outline>
    <contour>
      <point x="844" y="194" type="curve" smooth="yes"/>
      <point x="880" y="194" type="line"/>
      <point x="831" y="390" type="line"/>
      <point x="629" y="390" type="line"/>
      <point x="629" y="270" type="line"/>
      <point x="739" y="270" type="line"/>
      <point x="761" y="214"/>
      <point x="799" y="194"/>
    </contour>
    <contour>
      <point x="515" y="359" type="line"/>
      <point x="694" y="359" type="line"/>
      <point x="694" y="479" type="line"/>
      <point x="515" y="479" type="line"/>
    </contour>
    <contour>
      <point x="629" y="270" type="line"/>
      <point x="770" y="270" type="line"/>
      <point x="770" y="568" type="line"/>
      <point x="629" y="568" type="line"/>
    </contour>
    <component base="ga.eth"/>
  </outline>
</glyph>
<glyph name="gwaa.eth" format="2">
  <advance width="637"/>
  <unicode hex="1313"/>
  <note>
uni1313
</note>
  <anchor x="283" y="714" name="top"/>
  <outline>
    <contour>
      <point x="382" y="0" type="line"/>
      <point x="562" y="0" type="line"/>
      <point x="562" y="99" type="line" smooth="yes"/>
      <point x="562" y="332"/>
      <point x="464" y="454"/>
      <point x="184" y="454" type="curve" smooth="yes"/>
      <point x="54" y="454" type="line"/>
      <point x="5" y="258" type="line"/>
      <point x="39" y="258" type="line" smooth="yes"/>
      <point x="92" y="258"/>
      <point x="126" y="283"/>
      <point x="146" y="334" type="curve"/>
      <point x="154" y="334" type="line" smooth="yes"/>
      <point x="329" y="334"/>
      <point x="382" y="283"/>
      <point x="382" y="54" type="curve" smooth="yes"/>
    </contour>
    <contour>
      <point x="250" y="380" type="line"/>
      <point x="430" y="380" type="line"/>
      <point x="430" y="469" type="line" smooth="yes"/>
      <point x="430" y="636"/>
      <point x="352" y="714"/>
      <point x="172" y="714" type="curve" smooth="yes"/>
      <point x="54" y="714" type="line"/>
      <point x="5" y="518" type="line"/>
      <point x="39" y="518" type="line" smooth="yes"/>
      <point x="88" y="518"/>
      <point x="126" y="540"/>
      <point x="146" y="594" type="curve"/>
      <point x="152" y="594" type="line" smooth="yes"/>
      <point x="215" y="594"/>
      <point x="250" y="573"/>
      <point x="250" y="464" type="curve" smooth="yes"/>
    </contour>
  </outline>
</glyph>
<glyph name="gwe.eth" format="2">
  <advance width="939"/>
  <unicode hex="1315"/>
  <note>
uni1315
</note>
  <anchor x="469" y="714" name="top"/>
  <outline>
    <contour>
      <point x="660" y="300" type="line"/>
      <point x="799" y="300" type="line"/>
      <point x="799" y="582" type="line"/>
      <point x="660" y="582" type="line"/>
    </contour>
    <contour>
      <point x="527" y="300" type="line"/>
      <point x="706" y="300" type="line"/>
      <point x="706" y="420" type="line"/>
      <point x="527" y="420" type="line"/>
    </contour>
    <component base="ga.eth"/>
    <component base="rightsingleflag" xOffset="673" yOffset="-2"/>
  </outline>
</glyph>
<glyph name="gga.eth" format="2">
  <advance width="640"/>
  <unicode hex="1318"/>
  <note>
uni1318
</note>
  <anchor x="285" y="779" name="top"/>
  <outline>
    <contour>
      <point x="382" y="0" type="line"/>
      <point x="562" y="0" type="line"/>
      <point x="562" y="156" type="line" smooth="yes"/>
      <point x="562" y="389"/>
      <point x="464" y="511"/>
      <point x="184" y="511" type="curve" smooth="yes"/>
      <point x="54" y="511" type="line"/>
      <point x="5" y="315" type="line"/>
      <point x="39" y="315" type="line" smooth="yes"/>
      <point x="79" y="315"/>
      <point x="122" y="329"/>
      <point x="146" y="391" type="curve"/>
      <point x="154" y="391" type="line" smooth="yes"/>
      <point x="308" y="391"/>
      <point x="382" y="348"/>
      <point x="382" y="111" type="curve" smooth="yes"/>
    </contour>
    <contour>
      <point x="198" y="462" type="line"/>
      <point x="378" y="462" type="line"/>
      <point x="378" y="647" type="line"/>
      <point x="198" y="647" type="line"/>
    </contour>
    <component base="bone" xOffset="1" yOffset="-59"/>
  </outline>
</glyph>
<glyph name="ggaa.eth" format="2">
  <advance width="646"/>
  <unicode hex="131B"/>
  <note>
uni131B
</note>
  <anchor x="288" y="779" name="top"/>
  <outline>
    <contour>
      <point x="5" y="-76" type="line"/>
      <point x="32" y="-76" type="line" smooth="yes"/>
      <point x="85" y="-76"/>
      <point x="121" y="-60"/>
      <point x="146" y="0" type="curve"/>
      <point x="262" y="0" type="line" smooth="yes"/>
      <point x="478" y="0"/>
      <point x="564" y="102"/>
      <point x="564" y="257" type="curve" smooth="yes"/>
      <point x="564" y="274" type="line" smooth="yes"/>
      <point x="564" y="431"/>
      <point x="466" y="511"/>
      <point x="186" y="511" type="curve" smooth="yes"/>
      <point x="53" y="511" type="line"/>
      <point x="16" y="313" type="line"/>
      <point x="47" y="313" type="line" smooth="yes"/>
      <point x="116" y="313"/>
      <point x="148" y="337"/>
      <point x="172" y="401" type="curve"/>
      <point x="179" y="401" type="line" smooth="yes"/>
      <point x="333" y="401"/>
      <point x="384" y="373"/>
      <point x="384" y="269" type="curve" smooth="yes"/>
      <point x="384" y="252" type="line" smooth="yes"/>
      <point x="384" y="162"/>
      <point x="349" y="120"/>
      <point x="242" y="120" type="curve" smooth="yes"/>
      <point x="54" y="120" type="line"/>
    </contour>
    <contour>
      <point x="206" y="452" type="line"/>
      <point x="386" y="452" type="line"/>
      <point x="386" y="647" type="line"/>
      <point x="206" y="647" type="line"/>
    </contour>
    <component base="bone" xOffset="7" yOffset="-59"/>
  </outline>
</glyph>
<glyph name="gge.eth" format="2">
  <advance width="785"/>
  <unicode hex="131D"/>
  <note>
uni131D
</note>
  <anchor x="357" y="779" name="top"/>
  <outline>
    <contour>
      <point x="530" y="0" type="line"/>
      <point x="710" y="0" type="line"/>
      <point x="710" y="170" type="line" smooth="yes"/>
      <point x="710" y="403"/>
      <point x="612" y="525"/>
      <point x="332" y="525" type="curve" smooth="yes"/>
      <point x="222" y="525" type="line"/>
      <point x="321" y="415" type="line"/>
      <point x="359" y="415" type="line" smooth="yes"/>
      <point x="493" y="415"/>
      <point x="530" y="362"/>
      <point x="530" y="125" type="curve" smooth="yes"/>
    </contour>
    <contour>
      <point x="229" y="462" type="line"/>
      <point x="409" y="462" type="line"/>
      <point x="409" y="647" type="line"/>
      <point x="229" y="647" type="line"/>
    </contour>
    <component base="bonemiddle" yOffset="-59"/>
    <component base="ballbig" yOffset="74"/>
  </outline>
</glyph>
<glyph name="ggo.eth" format="2">
  <advance width="723"/>
  <unicode hex="131E"/>
  <note>
uni131E
</note>
  <anchor x="361" y="869" name="top"/>
  <outline>
    <contour>
      <point x="435" y="0" type="line"/>
      <point x="615" y="0" type="line"/>
      <point x="615" y="94" type="line" smooth="yes"/>
      <point x="615" y="327"/>
      <point x="517" y="449"/>
      <point x="237" y="449" type="curve" smooth="yes"/>
      <point x="107" y="449" type="line"/>
      <point x="58" y="253" type="line"/>
      <point x="92" y="253" type="line" smooth="yes"/>
      <point x="145" y="253"/>
      <point x="179" y="278"/>
      <point x="199" y="329" type="curve"/>
      <point x="207" y="329" type="line" smooth="yes"/>
      <point x="382" y="329"/>
      <point x="435" y="278"/>
      <point x="435" y="49" type="curve" smooth="yes"/>
    </contour>
    <contour>
      <point x="272" y="356" type="line"/>
      <point x="450" y="356" type="line"/>
      <point x="450" y="450" type="line" smooth="yes"/>
      <point x="450" y="470"/>
      <point x="457" y="483"/>
      <point x="474" y="493" type="curve" smooth="yes"/>
      <point x="521" y="522"/>
      <point x="561" y="556"/>
      <point x="561" y="633" type="curve" smooth="yes"/>
      <point x="561" y="713"/>
      <point x="499" y="773"/>
      <point x="363" y="773" type="curve" smooth="yes"/>
      <point x="245" y="773"/>
      <point x="164" y="722"/>
      <point x="164" y="624" type="curve" smooth="yes"/>
      <point x="164" y="541"/>
      <point x="216" y="503"/>
      <point x="280" y="484" type="curve"/>
      <point x="275" y="474"/>
      <point x="272" y="462"/>
      <point x="272" y="449" type="curve" smooth="yes"/>
    </contour>
    <contour>
      <point x="360" y="557" type="curve"/>
      <point x="324" y="573"/>
      <point x="302" y="590"/>
      <point x="302" y="625" type="curve" smooth="yes"/>
      <point x="302" y="653"/>
      <point x="320" y="678"/>
      <point x="363" y="678" type="curve" smooth="yes"/>
      <point x="402" y="678"/>
      <point x="423" y="655"/>
      <point x="423" y="628" type="curve" smooth="yes"/>
      <point x="423" y="595"/>
      <point x="406" y="574"/>
    </contour>
    <component base="bonelong" yOffset="31"/>
  </outline>
</glyph>
<glyph name="the.eth" format="2">
  <advance width="1154"/>
  <unicode hex="1325"/>
  <note>
uni1325
</note>
  <anchor x="576" y="714" name="top"/>
  <outline>
    <contour>
      <point x="542" y="0" type="line"/>
      <point x="722" y="0" type="line"/>
      <point x="722" y="421" type="line"/>
      <point x="624" y="421" type="line"/>
      <point x="624" y="525" type="line"/>
      <point x="643" y="543"/>
      <point x="691" y="579"/>
      <point x="760" y="579" type="curve" smooth="yes"/>
      <point x="854" y="579"/>
      <point x="899" y="526"/>
      <point x="899" y="420" type="curve" smooth="yes"/>
      <point x="899" y="235" type="line"/>
      <point x="1079" y="235" type="line"/>
      <point x="1079" y="451" type="line" smooth="yes"/>
      <point x="1079" y="575"/>
      <point x="1013" y="714"/>
      <point x="816" y="714" type="curve" smooth="yes"/>
      <point x="711" y="714"/>
      <point x="648" y="672"/>
      <point x="624" y="652" type="curve"/>
      <point x="624" y="714" type="line"/>
      <point x="414" y="714" type="line" smooth="yes"/>
      <point x="224" y="714"/>
      <point x="73" y="624"/>
      <point x="73" y="387" type="curve" smooth="yes"/>
      <point x="73" y="235" type="line"/>
      <point x="253" y="235" type="line"/>
      <point x="253" y="376" type="line" smooth="yes"/>
      <point x="253" y="505"/>
      <point x="310" y="572"/>
      <point x="414" y="572" type="curve" smooth="yes"/>
      <point x="424" y="572"/>
      <point x="435" y="572"/>
      <point x="444" y="572" type="curve"/>
      <point x="444" y="282" type="line"/>
      <point x="542" y="282" type="line"/>
    </contour>
  </outline>
</glyph>
<glyph name="tho.eth" format="2">
  <advance width="1134"/>
  <unicode hex="1326"/>
  <note>
uni1326
</note>
  <anchor x="566" y="714" name="top"/>
  <outline>
    <contour>
      <point x="73" y="0" type="line"/>
      <point x="253" y="0" type="line"/>
      <point x="253" y="345" type="line" smooth="yes"/>
      <point x="253" y="494"/>
      <point x="317" y="572"/>
      <point x="446" y="572" type="curve" smooth="yes"/>
      <point x="456" y="572"/>
      <point x="467" y="572"/>
      <point x="476" y="572" type="curve"/>
      <point x="476" y="238" type="line"/>
      <point x="656" y="238" type="line"/>
      <point x="656" y="543" type="line"/>
      <point x="675" y="560"/>
      <point x="713" y="579"/>
      <point x="760" y="579" type="curve" smooth="yes"/>
      <point x="850" y="579"/>
      <point x="879" y="532"/>
      <point x="879" y="430" type="curve" smooth="yes"/>
      <point x="879" y="238" type="line"/>
      <point x="1059" y="238" type="line"/>
      <point x="1059" y="461" type="line" smooth="yes"/>
      <point x="1059" y="573"/>
      <point x="1009" y="714"/>
      <point x="812" y="714" type="curve" smooth="yes"/>
      <point x="729" y="714"/>
      <point x="679" y="686"/>
      <point x="656" y="666" type="curve"/>
      <point x="656" y="714" type="line"/>
      <point x="446" y="714" type="line" smooth="yes"/>
      <point x="231" y="714"/>
      <point x="73" y="613"/>
      <point x="73" y="356" type="curve" smooth="yes"/>
    </contour>
  </outline>
</glyph>
<glyph name="che.eth" format="2">
  <advance width="1309"/>
  <unicode hex="132D"/>
  <note>
uni132D
</note>
  <anchor x="687" y="714" name="top"/>
  <outline>
    <contour>
      <point x="73" y="207" type="line"/>
      <point x="253" y="207" type="line"/>
      <point x="253" y="345" type="line" smooth="yes"/>
      <point x="253" y="494"/>
      <point x="317" y="572"/>
      <point x="446" y="572" type="curve" smooth="yes"/>
      <point x="456" y="572"/>
      <point x="467" y="572"/>
      <point x="476" y="572" type="curve"/>
      <point x="476" y="304" type="line"/>
      <point x="656" y="304" type="line"/>
      <point x="656" y="543" type="line"/>
      <point x="680" y="560"/>
      <point x="729" y="579"/>
      <point x="790" y="579" type="curve" smooth="yes"/>
      <point x="897" y="579"/>
      <point x="932" y="532"/>
      <point x="932" y="430" type="curve" smooth="yes"/>
      <point x="932" y="207" type="line"/>
      <point x="1112" y="207" type="line"/>
      <point x="1112" y="461" type="line" smooth="yes"/>
      <point x="1112" y="573"/>
      <point x="1057" y="714"/>
      <point x="842" y="714" type="curve" smooth="yes"/>
      <point x="743" y="714"/>
      <point x="683" y="686"/>
      <point x="656" y="666" type="curve"/>
      <point x="656" y="714" type="line"/>
      <point x="446" y="714" type="line" smooth="yes"/>
      <point x="231" y="714"/>
      <point x="73" y="612"/>
      <point x="73" y="356" type="curve" smooth="yes"/>
    </contour>
    <contour>
      <point x="113" y="207" type="line"/>
      <point x="259" y="207" type="line" smooth="yes"/>
      <point x="385" y="207"/>
      <point x="444" y="265"/>
      <point x="444" y="349" type="curve" smooth="yes"/>
      <point x="444" y="437"/>
      <point x="395" y="480"/>
      <point x="272" y="480" type="curve" smooth="yes"/>
      <point x="113" y="480" type="line"/>
    </contour>
    <contour>
      <point x="253" y="307" type="line"/>
      <point x="253" y="384" type="line"/>
      <point x="261" y="384" type="line" smooth="yes"/>
      <point x="288" y="384"/>
      <point x="300" y="368"/>
      <point x="300" y="346" type="curve" smooth="yes"/>
      <point x="300" y="322"/>
      <point x="285" y="307"/>
      <point x="257" y="307" type="curve" smooth="yes"/>
    </contour>
    <contour>
      <point x="558" y="0" type="line"/>
      <point x="738" y="0" type="line"/>
      <point x="738" y="369" type="line"/>
      <point x="558" y="369" type="line"/>
    </contour>
    <contour>
      <point x="489" y="304" type="line"/>
      <point x="738" y="304" type="line"/>
      <point x="738" y="434" type="line"/>
      <point x="489" y="434" type="line"/>
    </contour>
    <component base="bbowlnarrow" xOffset="576"/>
    <component base="bbowlnarrow" xOffset="950" yOffset="207"/>
  </outline>
</glyph>
<glyph name="cho.eth" format="2">
  <advance width="1255"/>
  <unicode hex="132E"/>
  <note>
uni132E
</note>
  <anchor x="660" y="714" name="top"/>
  <outline>
    <contour>
      <point x="73" y="0" type="line"/>
      <point x="253" y="0" type="line"/>
      <point x="253" y="345" type="line" smooth="yes"/>
      <point x="253" y="494"/>
      <point x="317" y="572"/>
      <point x="446" y="572" type="curve" smooth="yes"/>
      <point x="456" y="572"/>
      <point x="467" y="572"/>
      <point x="476" y="572" type="curve"/>
      <point x="476" y="199" type="line"/>
      <point x="656" y="199" type="line"/>
      <point x="656" y="543" type="line"/>
      <point x="675" y="560"/>
      <point x="713" y="579"/>
      <point x="760" y="579" type="curve" smooth="yes"/>
      <point x="850" y="579"/>
      <point x="879" y="532"/>
      <point x="879" y="430" type="curve" smooth="yes"/>
      <point x="879" y="199" type="line"/>
      <point x="1059" y="199" type="line"/>
      <point x="1059" y="461" type="line" smooth="yes"/>
      <point x="1059" y="573"/>
      <point x="1009" y="714"/>
      <point x="812" y="714" type="curve" smooth="yes"/>
      <point x="729" y="714"/>
      <point x="679" y="686"/>
      <point x="656" y="666" type="curve"/>
      <point x="656" y="714" type="line"/>
      <point x="446" y="714" type="line" smooth="yes"/>
      <point x="231" y="714"/>
      <point x="73" y="613"/>
      <point x="73" y="356" type="curve" smooth="yes"/>
    </contour>
    <component base="bbowlnarrow" xOffset="493" yOffset="199"/>
    <component base="bbowlnarrow" xOffset="896" yOffset="199"/>
    <component base="bbowlnarrow" xOffset="90"/>
  </outline>
</glyph>
<glyph name="chwa.eth" format="2">
  <advance width="1240"/>
  <unicode hex="132F"/>
  <note>
uni132F
</note>
  <anchor x="654" y="714" name="top"/>
  <outline>
    <contour>
      <point x="879" y="0" type="line"/>
      <point x="1059" y="0" type="line"/>
      <point x="1059" y="461" type="line" smooth="yes"/>
      <point x="1059" y="573"/>
      <point x="1009" y="714"/>
      <point x="812" y="714" type="curve" smooth="yes"/>
      <point x="729" y="714"/>
      <point x="679" y="686"/>
      <point x="656" y="666" type="curve"/>
      <point x="656" y="714" type="line"/>
      <point x="446" y="714" type="line" smooth="yes"/>
      <point x="231" y="714"/>
      <point x="73" y="613"/>
      <point x="73" y="356" type="curve" smooth="yes"/>
      <point x="73" y="205" type="line"/>
      <point x="253" y="205" type="line"/>
      <point x="253" y="345" type="line" smooth="yes"/>
      <point x="253" y="494"/>
      <point x="317" y="572"/>
      <point x="446" y="572" type="curve" smooth="yes"/>
      <point x="456" y="572"/>
      <point x="467" y="572"/>
      <point x="476" y="572" type="curve"/>
      <point x="476" y="202" type="line"/>
      <point x="656" y="202" type="line"/>
      <point x="656" y="543" type="line"/>
      <point x="675" y="560"/>
      <point x="713" y="579"/>
      <point x="760" y="579" type="curve" smooth="yes"/>
      <point x="850" y="579"/>
      <point x="879" y="532"/>
      <point x="879" y="430" type="curve" smooth="yes"/>
    </contour>
    <contour>
      <point x="113" y="205" type="line"/>
      <point x="259" y="205" type="line" smooth="yes"/>
      <point x="385" y="205"/>
      <point x="444" y="263"/>
      <point x="444" y="347" type="curve" smooth="yes"/>
      <point x="444" y="435"/>
      <point x="395" y="478"/>
      <point x="272" y="478" type="curve" smooth="yes"/>
      <point x="113" y="478" type="line"/>
    </contour>
    <contour>
      <point x="253" y="305" type="line"/>
      <point x="253" y="382" type="line"/>
      <point x="261" y="382" type="line" smooth="yes"/>
      <point x="288" y="382"/>
      <point x="300" y="366"/>
      <point x="300" y="344" type="curve" smooth="yes"/>
      <point x="300" y="320"/>
      <point x="285" y="305"/>
      <point x="257" y="305" type="curve" smooth="yes"/>
    </contour>
    <component base="footmiddle" xOffset="564"/>
    <component base="bbowlnarrow" xOffset="496" yOffset="202"/>
  </outline>
</glyph>
<glyph name="pha.eth" format="2">
  <advance width="657"/>
  <unicode hex="1330"/>
  <note>
uni1330
</note>
  <anchor x="328" y="760" name="top"/>
  <outline>
    <contour>
      <point x="25" y="0" type="curve"/>
      <point x="210" y="0" type="line"/>
      <point x="210" y="93"/>
      <point x="236" y="150"/>
      <point x="368" y="228" type="curve" smooth="yes"/>
      <point x="514" y="315"/>
      <point x="573" y="368"/>
      <point x="573" y="472" type="curve" smooth="yes"/>
      <point x="573" y="585"/>
      <point x="482" y="654"/>
      <point x="336" y="654" type="curve" smooth="yes"/>
      <point x="181" y="654"/>
      <point x="98" y="580"/>
      <point x="98" y="465" type="curve" smooth="yes"/>
      <point x="98" y="387"/>
      <point x="153" y="329"/>
      <point x="244" y="306" type="curve"/>
      <point x="371" y="383" type="line"/>
      <point x="310" y="398"/>
      <point x="276" y="417"/>
      <point x="276" y="459" type="curve" smooth="yes"/>
      <point x="276" y="493"/>
      <point x="300" y="514"/>
      <point x="333" y="514" type="curve" smooth="yes"/>
      <point x="371" y="514"/>
      <point x="392" y="489"/>
      <point x="392" y="460" type="curve" smooth="yes"/>
      <point x="392" y="417"/>
      <point x="360" y="392"/>
      <point x="276" y="345" type="curve" smooth="yes"/>
      <point x="90" y="241"/>
      <point x="25" y="147"/>
    </contour>
    <contour>
      <point x="446" y="0" type="line"/>
      <point x="632" y="0" type="line"/>
      <point x="632" y="22" type="line" smooth="yes"/>
      <point x="632" y="184"/>
      <point x="554" y="244"/>
      <point x="365" y="279" type="curve"/>
      <point x="252" y="187" type="line"/>
      <point x="392" y="164"/>
      <point x="446" y="125"/>
      <point x="446" y="7" type="curve" smooth="yes"/>
    </contour>
    <contour>
      <point x="239" y="616" type="line"/>
      <point x="419" y="616" type="line"/>
      <point x="419" y="760" type="line"/>
      <point x="239" y="760" type="line"/>
    </contour>
  </outline>
</glyph>
<glyph name="phu.eth" format="2">
  <advance width="822"/>
  <unicode hex="1331"/>
  <note>
uni1331
</note>
  <anchor x="421" y="760" name="top"/>
  <outline>
    <contour>
      <point x="456" y="124" type="line"/>
      <point x="648" y="124" type="line"/>
      <point x="648" y="243" type="line"/>
      <point x="456" y="243" type="line"/>
    </contour>
    <component base="pha.eth"/>
    <component base="rightsingleflag" xOffset="556" yOffset="-179"/>
  </outline>
</glyph>
<glyph name="phaa.eth" format="2">
  <advance width="647"/>
  <unicode hex="1333"/>
  <note>
uni1333
</note>
  <anchor x="323" y="760" name="top"/>
  <outline>
    <contour>
      <point x="25" y="91" type="curve"/>
      <point x="215" y="91" type="line"/>
      <point x="234" y="138"/>
      <point x="275" y="179"/>
      <point x="358" y="228" type="curve" smooth="yes"/>
      <point x="504" y="314"/>
      <point x="563" y="368"/>
      <point x="563" y="472" type="curve" smooth="yes"/>
      <point x="563" y="585"/>
      <point x="472" y="654"/>
      <point x="326" y="654" type="curve" smooth="yes"/>
      <point x="171" y="654"/>
      <point x="88" y="580"/>
      <point x="88" y="465" type="curve" smooth="yes"/>
      <point x="88" y="387"/>
      <point x="143" y="329"/>
      <point x="234" y="306" type="curve"/>
      <point x="361" y="383" type="line"/>
      <point x="300" y="398"/>
      <point x="266" y="417"/>
      <point x="266" y="459" type="curve" smooth="yes"/>
      <point x="266" y="493"/>
      <point x="290" y="514"/>
      <point x="323" y="514" type="curve" smooth="yes"/>
      <point x="361" y="514"/>
      <point x="382" y="489"/>
      <point x="382" y="460" type="curve" smooth="yes"/>
      <point x="382" y="417"/>
      <point x="350" y="392"/>
      <point x="266" y="345" type="curve" smooth="yes"/>
      <point x="121" y="264"/>
      <point x="50" y="189"/>
    </contour>
    <contour>
      <point x="436" y="0" type="line"/>
      <point x="622" y="0" type="line"/>
      <point x="622" y="22" type="line" smooth="yes"/>
      <point x="622" y="184"/>
      <point x="544" y="244"/>
      <point x="355" y="279" type="curve"/>
      <point x="242" y="187" type="line"/>
      <point x="382" y="164"/>
      <point x="436" y="125"/>
      <point x="436" y="7" type="curve" smooth="yes"/>
    </contour>
    <contour>
      <point x="229" y="616" type="line"/>
      <point x="409" y="616" type="line"/>
      <point x="409" y="760" type="line"/>
      <point x="229" y="760" type="line"/>
    </contour>
  </outline>
</glyph>
<glyph name="phee.eth" format="2">
  <advance width="839"/>
  <unicode hex="1334"/>
  <note>
uni1334
</note>
  <anchor x="424" y="760" name="top"/>
  <outline>
    <contour>
      <point x="25" y="0" type="curve"/>
      <point x="210" y="0" type="line"/>
      <point x="210" y="93"/>
      <point x="236" y="150"/>
      <point x="368" y="228" type="curve" smooth="yes"/>
      <point x="514" y="315"/>
      <point x="573" y="368"/>
      <point x="573" y="472" type="curve" smooth="yes"/>
      <point x="573" y="585"/>
      <point x="482" y="654"/>
      <point x="336" y="654" type="curve" smooth="yes"/>
      <point x="181" y="654"/>
      <point x="98" y="580"/>
      <point x="98" y="465" type="curve" smooth="yes"/>
      <point x="98" y="387"/>
      <point x="153" y="329"/>
      <point x="244" y="306" type="curve"/>
      <point x="371" y="383" type="line"/>
      <point x="310" y="398"/>
      <point x="276" y="417"/>
      <point x="276" y="459" type="curve" smooth="yes"/>
      <point x="276" y="493"/>
      <point x="300" y="514"/>
      <point x="333" y="514" type="curve" smooth="yes"/>
      <point x="371" y="514"/>
      <point x="392" y="489"/>
      <point x="392" y="460" type="curve" smooth="yes"/>
      <point x="392" y="417"/>
      <point x="360" y="392"/>
      <point x="276" y="345" type="curve" smooth="yes"/>
      <point x="90" y="241"/>
      <point x="25" y="147"/>
    </contour>
    <contour>
      <point x="641" y="-18" type="curve" smooth="yes"/>
      <point x="759" y="-18"/>
      <point x="824" y="52"/>
      <point x="824" y="150" type="curve" smooth="yes"/>
      <point x="824" y="247"/>
      <point x="757" y="306"/>
      <point x="654" y="306" type="curve" smooth="yes"/>
      <point x="586" y="306"/>
      <point x="538" y="277"/>
      <point x="509" y="236" type="curve"/>
      <point x="490" y="249"/>
      <point x="461" y="266"/>
      <point x="430" y="273" type="curve"/>
      <point x="303" y="190" type="line"/>
      <point x="369" y="174"/>
      <point x="408" y="144"/>
      <point x="453" y="83" type="curve" smooth="yes"/>
      <point x="496" y="25"/>
      <point x="536" y="-18"/>
    </contour>
    <contour>
      <point x="641" y="96" type="curve" smooth="yes"/>
      <point x="608" y="96"/>
      <point x="592" y="121"/>
      <point x="592" y="144" type="curve" smooth="yes"/>
      <point x="592" y="168"/>
      <point x="608" y="190"/>
      <point x="641" y="190" type="curve" smooth="yes"/>
      <point x="673" y="190"/>
      <point x="689" y="168"/>
      <point x="689" y="144" type="curve" smooth="yes"/>
      <point x="689" y="121"/>
      <point x="673" y="96"/>
    </contour>
    <contour>
      <point x="239" y="616" type="line"/>
      <point x="419" y="616" type="line"/>
      <point x="419" y="760" type="line"/>
      <point x="239" y="760" type="line"/>
    </contour>
  </outline>
</glyph>
<glyph name="pho.eth" format="2">
  <advance width="650"/>
  <unicode hex="1336"/>
  <note>
uni1336
</note>
  <anchor x="325" y="760" name="top"/>
  <outline>
    <contour>
      <point x="25" y="0" type="curve"/>
      <point x="210" y="0" type="line"/>
      <point x="210" y="93"/>
      <point x="236" y="150"/>
      <point x="368" y="228" type="curve" smooth="yes"/>
      <point x="514" y="315"/>
      <point x="573" y="368"/>
      <point x="573" y="472" type="curve" smooth="yes"/>
      <point x="573" y="585"/>
      <point x="482" y="654"/>
      <point x="336" y="654" type="curve" smooth="yes"/>
      <point x="181" y="654"/>
      <point x="98" y="580"/>
      <point x="98" y="465" type="curve" smooth="yes"/>
      <point x="98" y="387"/>
      <point x="153" y="329"/>
      <point x="244" y="306" type="curve"/>
      <point x="371" y="383" type="line"/>
      <point x="310" y="398"/>
      <point x="276" y="417"/>
      <point x="276" y="459" type="curve" smooth="yes"/>
      <point x="276" y="493"/>
      <point x="300" y="514"/>
      <point x="333" y="514" type="curve" smooth="yes"/>
      <point x="371" y="514"/>
      <point x="392" y="489"/>
      <point x="392" y="460" type="curve" smooth="yes"/>
      <point x="392" y="417"/>
      <point x="360" y="392"/>
      <point x="276" y="345" type="curve" smooth="yes"/>
      <point x="90" y="241"/>
      <point x="25" y="147"/>
    </contour>
    <contour>
      <point x="430" y="95" type="curve"/>
      <point x="625" y="95" type="line"/>
      <point x="603" y="203"/>
      <point x="523" y="250"/>
      <point x="365" y="279" type="curve"/>
      <point x="252" y="187" type="line"/>
      <point x="349" y="171"/>
      <point x="405" y="147"/>
    </contour>
    <contour>
      <point x="239" y="616" type="line"/>
      <point x="419" y="616" type="line"/>
      <point x="419" y="760" type="line"/>
      <point x="239" y="760" type="line"/>
    </contour>
  </outline>
</glyph>
<glyph name="tsa.eth" format="2">
  <advance width="657"/>
  <unicode hex="1338"/>
  <note>
uni1338
</note>
  <anchor x="328" y="724" name="top"/>
  <outline>
    <contour>
      <point x="25" y="0" type="curve"/>
      <point x="210" y="0" type="line"/>
      <point x="210" y="146"/>
      <point x="236" y="220"/>
      <point x="368" y="298" type="curve" smooth="yes"/>
      <point x="514" y="385"/>
      <point x="573" y="438"/>
      <point x="573" y="542" type="curve" smooth="yes"/>
      <point x="573" y="655"/>
      <point x="482" y="724"/>
      <point x="336" y="724" type="curve" smooth="yes"/>
      <point x="181" y="724"/>
      <point x="98" y="650"/>
      <point x="98" y="535" type="curve" smooth="yes"/>
      <point x="98" y="457"/>
      <point x="153" y="399"/>
      <point x="244" y="376" type="curve"/>
      <point x="371" y="453" type="line"/>
      <point x="310" y="468"/>
      <point x="276" y="487"/>
      <point x="276" y="529" type="curve" smooth="yes"/>
      <point x="276" y="563"/>
      <point x="300" y="584"/>
      <point x="333" y="584" type="curve" smooth="yes"/>
      <point x="371" y="584"/>
      <point x="392" y="559"/>
      <point x="392" y="530" type="curve" smooth="yes"/>
      <point x="392" y="487"/>
      <point x="360" y="462"/>
      <point x="276" y="415" type="curve" smooth="yes"/>
      <point x="90" y="311"/>
      <point x="25" y="200"/>
    </contour>
    <contour>
      <point x="446" y="0" type="line"/>
      <point x="632" y="0" type="line"/>
      <point x="632" y="35" type="line" smooth="yes"/>
      <point x="632" y="224"/>
      <point x="554" y="314"/>
      <point x="365" y="349" type="curve"/>
      <point x="252" y="257" type="line"/>
      <point x="392" y="234"/>
      <point x="446" y="178"/>
      <point x="446" y="20" type="curve" smooth="yes"/>
    </contour>
  </outline>
</glyph>
<glyph name="tsaa.eth" format="2">
  <advance width="649"/>
  <unicode hex="133B"/>
  <note>
uni133B
</note>
  <anchor x="324" y="724" name="top"/>
  <outline>
    <contour>
      <point x="25" y="107" type="curve"/>
      <point x="210" y="107" type="line"/>
      <point x="225" y="188"/>
      <point x="265" y="242"/>
      <point x="360" y="298" type="curve" smooth="yes"/>
      <point x="506" y="384"/>
      <point x="565" y="438"/>
      <point x="565" y="542" type="curve" smooth="yes"/>
      <point x="565" y="655"/>
      <point x="474" y="724"/>
      <point x="328" y="724" type="curve" smooth="yes"/>
      <point x="173" y="724"/>
      <point x="90" y="650"/>
      <point x="90" y="535" type="curve" smooth="yes"/>
      <point x="90" y="457"/>
      <point x="145" y="399"/>
      <point x="236" y="376" type="curve"/>
      <point x="363" y="453" type="line"/>
      <point x="302" y="468"/>
      <point x="268" y="487"/>
      <point x="268" y="529" type="curve" smooth="yes"/>
      <point x="268" y="563"/>
      <point x="292" y="584"/>
      <point x="325" y="584" type="curve" smooth="yes"/>
      <point x="363" y="584"/>
      <point x="384" y="559"/>
      <point x="384" y="530" type="curve" smooth="yes"/>
      <point x="384" y="487"/>
      <point x="352" y="462"/>
      <point x="268" y="415" type="curve" smooth="yes"/>
      <point x="118" y="331"/>
      <point x="47" y="243"/>
    </contour>
    <contour>
      <point x="438" y="0" type="line"/>
      <point x="624" y="0" type="line"/>
      <point x="624" y="35" type="line" smooth="yes"/>
      <point x="624" y="224"/>
      <point x="546" y="314"/>
      <point x="357" y="349" type="curve"/>
      <point x="244" y="257" type="line"/>
      <point x="384" y="234"/>
      <point x="438" y="178"/>
      <point x="438" y="20" type="curve" smooth="yes"/>
    </contour>
  </outline>
</glyph>
<glyph name="tsee.eth" format="2">
  <advance width="839"/>
  <unicode hex="133C"/>
  <note>
uni133C
</note>
  <anchor x="424" y="724" name="top"/>
  <outline>
    <contour>
      <point x="25" y="0" type="curve"/>
      <point x="210" y="0" type="line"/>
      <point x="210" y="146"/>
      <point x="236" y="220"/>
      <point x="368" y="298" type="curve" smooth="yes"/>
      <point x="514" y="385"/>
      <point x="573" y="438"/>
      <point x="573" y="542" type="curve" smooth="yes"/>
      <point x="573" y="655"/>
      <point x="482" y="724"/>
      <point x="336" y="724" type="curve" smooth="yes"/>
      <point x="181" y="724"/>
      <point x="98" y="650"/>
      <point x="98" y="535" type="curve" smooth="yes"/>
      <point x="98" y="457"/>
      <point x="153" y="399"/>
      <point x="244" y="376" type="curve"/>
      <point x="371" y="453" type="line"/>
      <point x="310" y="468"/>
      <point x="276" y="487"/>
      <point x="276" y="529" type="curve" smooth="yes"/>
      <point x="276" y="563"/>
      <point x="300" y="584"/>
      <point x="333" y="584" type="curve" smooth="yes"/>
      <point x="371" y="584"/>
      <point x="392" y="559"/>
      <point x="392" y="530" type="curve" smooth="yes"/>
      <point x="392" y="487"/>
      <point x="360" y="462"/>
      <point x="276" y="415" type="curve" smooth="yes"/>
      <point x="90" y="311"/>
      <point x="25" y="200"/>
    </contour>
    <contour>
      <point x="641" y="-18" type="curve" smooth="yes"/>
      <point x="759" y="-18"/>
      <point x="824" y="52"/>
      <point x="824" y="150" type="curve" smooth="yes"/>
      <point x="824" y="247"/>
      <point x="757" y="306"/>
      <point x="654" y="306" type="curve" smooth="yes"/>
      <point x="586" y="306"/>
      <point x="546" y="277"/>
      <point x="528" y="257" type="curve"/>
      <point x="501" y="309"/>
      <point x="430" y="335"/>
      <point x="381" y="343" type="curve"/>
      <point x="257" y="256" type="line"/>
      <point x="331" y="250"/>
      <point x="384" y="212"/>
      <point x="421" y="119" type="curve" smooth="yes"/>
      <point x="464" y="12"/>
      <point x="536" y="-18"/>
    </contour>
    <contour>
      <point x="638" y="96" type="curve" smooth="yes"/>
      <point x="605" y="96"/>
      <point x="589" y="121"/>
      <point x="589" y="144" type="curve" smooth="yes"/>
      <point x="589" y="168"/>
      <point x="605" y="190"/>
      <point x="638" y="190" type="curve" smooth="yes"/>
      <point x="670" y="190"/>
      <point x="686" y="168"/>
      <point x="686" y="144" type="curve" smooth="yes"/>
      <point x="686" y="121"/>
      <point x="670" y="96"/>
    </contour>
  </outline>
</glyph>
<glyph name="tso.eth" format="2">
  <advance width="652"/>
  <unicode hex="133E"/>
  <note>
uni133E
</note>
  <anchor x="326" y="724" name="top"/>
  <outline>
    <contour>
      <point x="25" y="0" type="curve"/>
      <point x="210" y="0" type="line"/>
      <point x="210" y="146"/>
      <point x="236" y="220"/>
      <point x="368" y="298" type="curve" smooth="yes"/>
      <point x="514" y="385"/>
      <point x="573" y="438"/>
      <point x="573" y="542" type="curve" smooth="yes"/>
      <point x="573" y="655"/>
      <point x="482" y="724"/>
      <point x="336" y="724" type="curve" smooth="yes"/>
      <point x="181" y="724"/>
      <point x="98" y="650"/>
      <point x="98" y="535" type="curve" smooth="yes"/>
      <point x="98" y="457"/>
      <point x="153" y="399"/>
      <point x="244" y="376" type="curve"/>
      <point x="371" y="453" type="line"/>
      <point x="310" y="468"/>
      <point x="276" y="487"/>
      <point x="276" y="529" type="curve" smooth="yes"/>
      <point x="276" y="563"/>
      <point x="300" y="584"/>
      <point x="333" y="584" type="curve" smooth="yes"/>
      <point x="371" y="584"/>
      <point x="392" y="559"/>
      <point x="392" y="530" type="curve" smooth="yes"/>
      <point x="392" y="487"/>
      <point x="360" y="462"/>
      <point x="276" y="415" type="curve" smooth="yes"/>
      <point x="90" y="311"/>
      <point x="25" y="200"/>
    </contour>
    <contour>
      <point x="438" y="108" type="curve"/>
      <point x="627" y="108" type="line"/>
      <point x="608" y="248"/>
      <point x="528" y="319"/>
      <point x="365" y="349" type="curve"/>
      <point x="252" y="257" type="line"/>
      <point x="362" y="239"/>
      <point x="419" y="200"/>
    </contour>
  </outline>
</glyph>
<glyph name="tza.eth" format="2">
  <advance width="574"/>
  <unicode hex="1340"/>
  <note>
uni1340
</note>
  <anchor x="287" y="725" name="top"/>
  <outline>
    <contour>
      <point x="172" y="304" type="line"/>
      <point x="403" y="304" type="line"/>
      <point x="403" y="423" type="line"/>
      <point x="172" y="423" type="line"/>
    </contour>
    <component base="aPhr.eth"/>
  </outline>
</glyph>
<glyph name="tzi.eth" format="2">
  <advance width="584"/>
  <unicode hex="1342"/>
  <note>
uni1342
</note>
  <anchor x="299" y="724" name="top"/>
  <outline>
    <contour>
      <point x="253" y="0" type="line"/>
      <point x="367" y="0" type="line"/>
      <point x="367" y="120" type="line"/>
      <point x="253" y="120" type="line"/>
    </contour>
    <component base="tzaa.eth"/>
    <component base="rightdoubleflag" xOffset="318"/>
  </outline>
</glyph>
<glyph name="tzaa.eth" format="2">
  <advance width="546"/>
  <unicode hex="1343"/>
  <note>
uni1343
</note>
  <anchor x="268" y="724" name="top"/>
  <outline>
    <contour>
      <point x="129" y="0" type="line"/>
      <point x="317" y="0" type="line"/>
      <point x="331" y="85" type="line" smooth="yes"/>
      <point x="346" y="176"/>
      <point x="362" y="226"/>
      <point x="423" y="296" type="curve" smooth="yes"/>
      <point x="481" y="363"/>
      <point x="516" y="418"/>
      <point x="516" y="511" type="curve" smooth="yes"/>
      <point x="516" y="638"/>
      <point x="433" y="724"/>
      <point x="268" y="724" type="curve" smooth="yes"/>
      <point x="96" y="724"/>
      <point x="20" y="622"/>
      <point x="20" y="497" type="curve" smooth="yes"/>
      <point x="20" y="379"/>
      <point x="83" y="306"/>
      <point x="195" y="258" type="curve"/>
      <point x="173" y="226"/>
      <point x="157" y="167"/>
      <point x="143" y="83" type="curve" smooth="yes"/>
    </contour>
    <contour>
      <point x="287" y="381" type="curve"/>
      <point x="231" y="395"/>
      <point x="202" y="417"/>
      <point x="199" y="446" type="curve"/>
      <point x="332" y="446" type="line"/>
      <point x="327" y="420"/>
      <point x="303" y="400"/>
    </contour>
    <contour>
      <point x="197" y="549" type="line"/>
      <point x="202" y="581"/>
      <point x="225" y="601"/>
      <point x="267" y="601" type="curve" smooth="yes"/>
      <point x="305" y="601"/>
      <point x="331" y="584"/>
      <point x="335" y="549" type="curve"/>
    </contour>
  </outline>
</glyph>
<glyph name="tzee.eth" format="2">
  <advance width="643"/>
  <unicode hex="1344"/>
  <note>
uni1344
</note>
  <anchor x="327" y="724" name="top"/>
  <outline>
    <contour>
      <point x="179" y="0" type="line"/>
      <point x="367" y="0" type="line" smooth="yes"/>
      <point x="554" y="0"/>
      <point x="635" y="73"/>
      <point x="635" y="177" type="curve" smooth="yes"/>
      <point x="635" y="287"/>
      <point x="566" y="342"/>
      <point x="408" y="342" type="curve" smooth="yes"/>
      <point x="261" y="342" type="line"/>
    </contour>
    <contour>
      <point x="332" y="118" type="line"/>
      <point x="359" y="226" type="line"/>
      <point x="387" y="226" type="line" smooth="yes"/>
      <point x="439" y="226"/>
      <point x="458" y="205"/>
      <point x="458" y="176" type="curve" smooth="yes"/>
      <point x="458" y="137"/>
      <point x="440" y="118"/>
      <point x="379" y="118" type="curve" smooth="yes"/>
    </contour>
    <component base="tzaa.eth"/>
  </outline>
</glyph>
<glyph name="tze.eth" format="2">
  <advance width="574"/>
  <unicode hex="1345"/>
  <note>
uni1345
</note>
  <anchor x="287" y="760" name="top"/>
  <outline>
    <contour>
      <point x="159" y="261" type="line"/>
      <point x="420" y="261" type="line"/>
      <point x="420" y="380" type="line"/>
      <point x="159" y="380" type="line"/>
    </contour>
    <component base="ePhr.eth"/>
  </outline>
</glyph>
<glyph name="tzo.eth" format="2">
  <advance width="580"/>
  <unicode hex="1346"/>
  <note>
uni1346
</note>
  <anchor x="290" y="724" name="top"/>
  <outline>
    <contour>
      <point x="168" y="468" type="line"/>
      <point x="440" y="468" type="line"/>
      <point x="440" y="547" type="line"/>
      <point x="168" y="547" type="line"/>
    </contour>
    <component base="oPhr.eth"/>
  </outline>
</glyph>
<glyph name="fa.eth" format="2">
  <advance width="710"/>
  <unicode hex="1348"/>
  <note>
uni1348
</note>
  <anchor x="370" y="723" name="top"/>
  <outline>
    <contour>
      <point x="270" y="0" type="curve" smooth="yes"/>
      <point x="543" y="0" type="line"/>
      <point x="600" y="120" type="line"/>
      <point x="473" y="120" type="line"/>
      <point x="488" y="142"/>
      <point x="501" y="180"/>
      <point x="501" y="222" type="curve" smooth="yes"/>
      <point x="501" y="288"/>
      <point x="464" y="336"/>
      <point x="400" y="364" type="curve"/>
      <point x="432" y="383"/>
      <point x="462" y="407"/>
      <point x="482" y="431" type="curve" smooth="yes"/>
      <point x="544" y="506"/>
      <point x="572" y="600"/>
      <point x="574" y="723" type="curve"/>
      <point x="389" y="723" type="line"/>
      <point x="387" y="632"/>
      <point x="371" y="569"/>
      <point x="336" y="521" type="curve" smooth="yes"/>
      <point x="310" y="486"/>
      <point x="275" y="458"/>
      <point x="215" y="424" type="curve" smooth="yes"/>
      <point x="122" y="372"/>
      <point x="36" y="321"/>
      <point x="36" y="194" type="curve" smooth="yes"/>
      <point x="36" y="67"/>
      <point x="122" y="0"/>
    </contour>
    <contour>
      <point x="270" y="121" type="curve" smooth="yes"/>
      <point x="234" y="121"/>
      <point x="209" y="147"/>
      <point x="209" y="198" type="curve" smooth="yes"/>
      <point x="209" y="249"/>
      <point x="232" y="283"/>
      <point x="273" y="300" type="curve"/>
      <point x="313" y="284"/>
      <point x="333" y="245"/>
      <point x="333" y="202" type="curve" smooth="yes"/>
      <point x="333" y="147"/>
      <point x="307" y="121"/>
    </contour>
    <component base="rightdoubleflag" xOffset="444"/>
  </outline>
</glyph>
<glyph name="fu.eth" format="2">
  <advance width="699"/>
  <unicode hex="1349"/>
  <note>
uni1349
</note>
  <anchor x="365" y="760" name="top"/>
  <outline>
    <contour>
      <point x="75" y="0" type="curve"/>
      <point x="264" y="0" type="line"/>
      <point x="270" y="70"/>
      <point x="307" y="145"/>
      <point x="382" y="196" type="curve" smooth="yes"/>
      <point x="464" y="252"/>
      <point x="492" y="310"/>
      <point x="492" y="387" type="curve" smooth="yes"/>
      <point x="492" y="450"/>
      <point x="465" y="503"/>
      <point x="416" y="537" type="curve"/>
      <point x="518" y="583"/>
      <point x="563" y="652"/>
      <point x="565" y="760" type="curve"/>
      <point x="379" y="760" type="line"/>
      <point x="379" y="668"/>
      <point x="335" y="621"/>
      <point x="198" y="577" type="curve" smooth="yes"/>
      <point x="89" y="542"/>
      <point x="36" y="478"/>
      <point x="36" y="374" type="curve" smooth="yes"/>
      <point x="36" y="286"/>
      <point x="81" y="229"/>
      <point x="177" y="202" type="curve"/>
      <point x="119" y="162"/>
      <point x="79" y="82"/>
    </contour>
    <contour>
      <point x="265" y="319" type="curve" smooth="yes"/>
      <point x="229" y="319"/>
      <point x="208" y="341"/>
      <point x="208" y="385" type="curve" smooth="yes"/>
      <point x="208" y="424"/>
      <point x="230" y="447"/>
      <point x="265" y="447" type="curve" smooth="yes"/>
      <point x="299" y="447"/>
      <point x="320" y="426"/>
      <point x="320" y="385" type="curve" smooth="yes"/>
      <point x="320" y="339"/>
      <point x="300" y="319"/>
    </contour>
    <contour>
      <point x="345" y="188" type="line"/>
      <point x="476" y="188" type="line"/>
      <point x="476" y="308" type="line"/>
      <point x="345" y="308" type="line"/>
    </contour>
    <component base="rightdoubleflag" xOffset="433" yOffset="188"/>
  </outline>
</glyph>
<glyph name="fi.eth" format="2">
  <advance width="790"/>
  <unicode hex="134A"/>
  <note>
uni134A
</note>
  <anchor x="410" y="724" name="top"/>
  <outline>
    <contour>
      <point x="275" y="0" type="line"/>
      <point x="508" y="0" type="line" smooth="yes"/>
      <point x="704" y="0"/>
      <point x="785" y="84"/>
      <point x="785" y="241" type="curve" smooth="yes"/>
      <point x="785" y="293" type="line"/>
      <point x="605" y="293" type="line"/>
      <point x="605" y="242" type="line" smooth="yes"/>
      <point x="605" y="171"/>
      <point x="582" y="135"/>
      <point x="516" y="135" type="curve" smooth="yes"/>
      <point x="433" y="135" type="line"/>
    </contour>
    <contour>
      <point x="576" y="724" type="curve"/>
      <point x="391" y="724" type="line"/>
      <point x="388" y="590"/>
      <point x="365" y="542"/>
      <point x="233" y="464" type="curve" smooth="yes"/>
      <point x="85" y="377"/>
      <point x="36" y="315"/>
      <point x="36" y="201" type="curve" smooth="yes"/>
      <point x="36" y="76"/>
      <point x="123" y="0"/>
      <point x="281" y="0" type="curve" smooth="yes"/>
      <point x="445" y="0"/>
      <point x="534" y="81"/>
      <point x="534" y="214" type="curve" smooth="yes"/>
      <point x="534" y="299"/>
      <point x="492" y="363"/>
      <point x="421" y="407" type="curve"/>
      <point x="533" y="486"/>
      <point x="573" y="564"/>
    </contour>
    <contour>
      <point x="290" y="326" type="curve"/>
      <point x="330" y="302"/>
      <point x="356" y="269"/>
      <point x="356" y="209" type="curve" smooth="yes"/>
      <point x="356" y="146"/>
      <point x="322" y="122"/>
      <point x="281" y="122" type="curve" smooth="yes"/>
      <point x="242" y="122"/>
      <point x="210" y="145"/>
      <point x="210" y="207" type="curve" smooth="yes"/>
      <point x="210" y="262"/>
      <point x="236" y="291"/>
    </contour>
  </outline>
</glyph>
<glyph name="faa.eth" format="2">
  <advance width="730"/>
  <unicode hex="134B"/>
  <note>
uni134B
</note>
  <anchor x="380" y="760" name="top"/>
  <outline>
    <contour>
      <point x="317" y="0" type="line"/>
      <point x="497" y="0" type="line"/>
      <point x="497" y="193" type="line"/>
      <point x="594" y="193" type="line"/>
      <point x="594" y="313" type="line"/>
      <point x="497" y="313" type="line"/>
      <point x="497" y="368" type="line" smooth="yes"/>
      <point x="497" y="448"/>
      <point x="468" y="495"/>
      <point x="416" y="524" type="curve"/>
      <point x="508" y="570"/>
      <point x="567" y="651"/>
      <point x="567" y="760" type="curve"/>
      <point x="379" y="760" type="line"/>
      <point x="376" y="653"/>
      <point x="325" y="605"/>
      <point x="207" y="574" type="curve" smooth="yes"/>
      <point x="89" y="543"/>
      <point x="36" y="481"/>
      <point x="36" y="373" type="curve" smooth="yes"/>
      <point x="36" y="248"/>
      <point x="118" y="182"/>
      <point x="269" y="182" type="curve" smooth="yes"/>
      <point x="317" y="182" type="line"/>
    </contour>
    <contour>
      <point x="278" y="313" type="line" smooth="yes"/>
      <point x="239" y="313"/>
      <point x="214" y="336"/>
      <point x="214" y="382" type="curve" smooth="yes"/>
      <point x="214" y="429"/>
      <point x="235" y="449"/>
      <point x="267" y="449" type="curve" smooth="yes"/>
      <point x="297" y="449"/>
      <point x="317" y="427"/>
      <point x="317" y="380" type="curve" smooth="yes"/>
      <point x="317" y="313" type="line"/>
    </contour>
    <component base="rightsingleflag" xOffset="464" yOffset="-109"/>
  </outline>
</glyph>
<glyph name="fee.eth" format="2">
  <advance width="944"/>
  <unicode hex="134C"/>
  <note>
uni134C
</note>
  <anchor x="482" y="724" name="top"/>
  <outline>
    <contour>
      <point x="363" y="54" type="line"/>
      <point x="695" y="54" type="line"/>
      <point x="655" y="153" type="line"/>
      <point x="407" y="153" type="line"/>
    </contour>
    <component base="ballsmall" xOffset="556" yOffset="-147"/>
    <component base="oPhr.eth" xScale="-1" yScale="-1" xOffset="596" yOffset="724"/>
  </outline>
</glyph>
